<?xml version="1.0" standalone="no"?>
<!DOCTYPE svg PUBLIC "-//W3C//DTD SVG 1.1//EN" "http://www.w3.org/Graphics/SVG/1.1/DTD/svg11.dtd" >
<svg xmlns="http://www.w3.org/2000/svg" xmlns:xlink="http://www.w3.org/1999/xlink" version="1.1">
<metadata>
Created by FontForge 20190801 at Sun Feb 19 21:47:48 2017
 By www-data
Copyright (c) Milos Mitrovic, 2015. All rights reserved.
</metadata>
<defs>
<font id="BergenTextRegular" horiz-adv-x="544" >
  <font-face 
    font-family="BergenTextRegular"
    font-weight="400"
    font-stretch="normal"
    units-per-em="1000"
    panose-1="0 0 5 0 0 0 0 0 0 0"
    ascent="800"
    descent="-200"
    x-height="464"
    cap-height="704"
    bbox="-204 -304 1104 1040"
    underline-thickness="50"
    underline-position="-100"
    unicode-range="U+0020-25CA"
  />
<missing-glyph horiz-adv-x="520" 
d="M426 800v-1040h-329v1040h329zM346 730h-171v-34h67v-38h-68v-35h172v35h-68v38h68v34zM278 596h-104v-108h172v35h-68v73zM242 561v-38h-34v38h34zM346 460h-172v-34h68v-39h-68v-34h104v73h68v34zM346 398h-34v-69h-138v-35h172v104zM346 271h-104v-59h36v24h34v-49
h-104v84h-34v-118h172v118zM346 91h-172v-118h172v118zM312 56v-48h-104v48h104zM346 -51h-172v-34h72l-72 -49v-34h172v34h-106l73 49h33v34z" />
    <glyph glyph-name=".notdef" horiz-adv-x="520" 
d="M426 800v-1040h-329v1040h329zM346 730h-171v-34h67v-38h-68v-35h172v35h-68v38h68v34zM278 596h-104v-108h172v35h-68v73zM242 561v-38h-34v38h34zM346 460h-172v-34h68v-39h-68v-34h104v73h68v34zM346 398h-34v-69h-138v-35h172v104zM346 271h-104v-59h36v24h34v-49
h-104v84h-34v-118h172v118zM346 91h-172v-118h172v118zM312 56v-48h-104v48h104zM346 -51h-172v-34h72l-72 -49v-34h172v34h-106l73 49h33v34z" />
    <glyph glyph-name=".null" horiz-adv-x="0" 
 />
    <glyph glyph-name="nonmarkingreturn" horiz-adv-x="333" 
 />
    <glyph glyph-name="space" unicode=" " horiz-adv-x="336" 
 />
    <glyph glyph-name="exclam" unicode="!" horiz-adv-x="304" 
d="M112 208l-16 496h112l-16 -496h-80zM152 -8q-30 0 -51 21t-21 51t21 51t51 21q31 0 51.5 -21t20.5 -51t-20.5 -51t-51.5 -21z" />
    <glyph glyph-name="quotedbl" unicode="&#x22;" horiz-adv-x="416" 
d="M160 464h-96v240h96v-240zM352 464h-96v240h96v-240z" />
    <glyph glyph-name="numbersign" unicode="#" horiz-adv-x="688" 
d="M624 416h-129l-14 -128h127v-80h-136l-24 -208h-80l24 208h-128l-24 -208h-80l24 208h-120v80h129l14 128h-127v80h136l24 208h80l-24 -208h128l24 208h80l-24 -208h120v-80zM401 288l14 128h-128l-14 -128h128z" />
    <glyph glyph-name="dollar" unicode="$" 
d="M496 211q0 -75 -49 -138.5t-131 -77.5v-91h-64v89q-42 4 -78.5 20t-61.5 39t-39.5 40.5t-24.5 35.5l56 73q65 -107 148 -119v274q-89 42 -122.5 86t-33.5 110q0 57 44.5 102.5t111.5 55.5v90h64v-90q73 -7 132 -70l-56 -71q-37 41 -76 51v-188q89 -41 134.5 -90.5
t45.5 -130.5zM192 550q0 -53 60 -88v158q-26 -8 -43 -27.5t-17 -42.5zM316 86q38 13 61 46.5t23 74.5q0 73 -84 119v-240z" />
    <glyph glyph-name="percent" unicode="%" horiz-adv-x="800" 
d="M209 424q-61 0 -103 41.5t-42 102.5q0 60 42 102t103 42q60 0 101.5 -42t41.5 -102q0 -61 -41.5 -102.5t-101.5 -41.5zM220 0h-88l448 704h88zM208 504q26 0 45 19t19 45t-19 45t-45 19t-45 -19t-19 -45t19 -45t45 -19zM593 -8q-61 0 -103 41.5t-42 102.5q0 60 42 102
t103 42q60 0 101.5 -42t41.5 -102q0 -61 -41.5 -102.5t-101.5 -41.5zM592 72q26 0 45 19t19 45t-19 45t-45 19t-45 -19t-19 -45t19 -45t45 -19z" />
    <glyph glyph-name="ampersand" unicode="&#x26;" horiz-adv-x="609" 
d="M561 316v-88h-62q13 -98 -48 -167t-163 -69q-99 0 -161.5 62.5t-62.5 161.5q0 58 26 108t66 76q-60 52 -60 136q0 72 56 124t144 52q92 0 160 -68l-56 -69q-42 49 -101 49q-46 0 -76.5 -25.5t-30.5 -64.5q0 -31 25 -62t87 -36v-88q-66 -2 -105 -38t-39 -98
q0 -51 35.5 -91.5t92.5 -40.5q68 0 96.5 52.5t14.5 95.5h-63v88h225z" />
    <glyph glyph-name="quotesingle" unicode="'" horiz-adv-x="224" 
d="M160 464h-96v240h96v-240z" />
    <glyph glyph-name="parenleft" unicode="(" horiz-adv-x="320" 
d="M272 748q-57 -94 -84.5 -208.5t-27.5 -219.5t27.5 -219.5t84.5 -208.5l-88 -52q-120 211 -120 480t120 480z" />
    <glyph glyph-name="parenright" unicode=")" horiz-adv-x="320" 
d="M48 748l88 52q120 -211 120 -480t-120 -480l-88 52q57 94 84.5 208.5t27.5 219.5t-27.5 219.5t-84.5 208.5z" />
    <glyph glyph-name="asterisk" unicode="*" horiz-adv-x="460" 
d="M261 584l107 48l28 -69l-114 -38l77 -96l-58 -42l-71 100l-68 -100l-60 42l76 96l-114 38l28 69l107 -48l-5 120h72z" />
    <glyph glyph-name="plus" unicode="+" horiz-adv-x="480" 
d="M416 384v-80h-136v-136h-80v136h-136v80h136v136h80v-136h136z" />
    <glyph glyph-name="comma" unicode="," horiz-adv-x="256" 
d="M80 -112v224h112l-40 -224h-72z" />
    <glyph glyph-name="hyphen" unicode="-" horiz-adv-x="400" 
d="M336 216h-272v80h272v-80z" />
    <glyph glyph-name="period" unicode="." horiz-adv-x="272" 
d="M136 -8q-30 0 -51 21t-21 51q0 31 21 51.5t51 20.5q31 0 51.5 -20.5t20.5 -51.5q0 -30 -20.5 -51t-51.5 -21z" />
    <glyph glyph-name="slash" unicode="/" horiz-adv-x="560" 
d="M160 -80h-96l336 864h96z" />
    <glyph glyph-name="zero" unicode="0" horiz-adv-x="656" 
d="M328 712q120 0 192 -103t72 -257t-72 -257t-192 -103q-122 0 -193 102.5t-71 257.5q0 154 72 257t192 103zM328 80q72 0 120 79t48 193t-48 193t-120 79t-120 -79t-48 -193t48 -193t120 -79z" />
    <glyph glyph-name="one" unicode="1" horiz-adv-x="384" 
d="M192 704h80v-704h-96v589l-104 -57l-40 72z" />
    <glyph glyph-name="two" unicode="2" horiz-adv-x="576" 
d="M388 248l-158 -160h282v-88h-432v64l182 180q89 88 121.5 146.5t32.5 108.5q0 54 -35.5 89.5t-92.5 35.5q-58 0 -93 -36t-35 -91q0 -21 7 -39l-89 -32q-14 33 -14 71q0 91 63.5 153t160.5 62t160.5 -60.5t63.5 -154.5q0 -66 -36 -131.5t-88 -117.5z" />
    <glyph glyph-name="three" unicode="3" horiz-adv-x="608" 
d="M340 450q83 -2 143.5 -59.5t60.5 -158.5q0 -98 -67.5 -169t-172.5 -71q-57 0 -103.5 20.5t-74.5 52.5t-44 67t-18 68l89 27q9 -68 50.5 -107.5t100.5 -39.5q60 0 102 42t42 109q0 41 -21 72.5t-53 46t-70.5 14t-72.5 -18.5l-51 63l186 208h-270v88h416v-64z" />
    <glyph glyph-name="four" unicode="4" horiz-adv-x="592" 
d="M64 148v64l212 492h102l-201 -468h159v164h96v-164h96v-88h-96v-148h-96v148h-272z" />
    <glyph glyph-name="five" unicode="5" horiz-adv-x="592" 
d="M194 426q53 29 112 29.5t108 -23.5t81.5 -77t32.5 -125q0 -98 -65 -168t-167 -70q-55 0 -100 20.5t-72 52.5t-42.5 67t-17.5 68l89 27q9 -69 48 -108t95 -39q57 0 96.5 41t39.5 108q0 64 -40 102.5t-101.5 36.5t-117.5 -47l-83 31l54 352h305v-88h-226z" />
    <glyph glyph-name="six" unicode="6" horiz-adv-x="592" 
d="M528 224q0 -96 -68 -164t-164 -68t-164 68t-68 164q0 32 3 58t15.5 58.5t20.5 51t36 62.5t43 65t61 85.5t70 99.5h115l-188 -260q33 12 72 12q87 0 151.5 -65t64.5 -167zM296 80q55 0 95.5 42.5t40.5 101.5t-40.5 101.5t-95.5 42.5t-95.5 -42.5t-40.5 -101.5t40.5 -101.5
t95.5 -42.5z" />
    <glyph glyph-name="seven" unicode="7" 
d="M64 704h432v-64l-240 -640h-104l233 616h-321v88z" />
    <glyph glyph-name="eight" unicode="8" horiz-adv-x="592" 
d="M431 384q97 -61 97 -172q0 -92 -67 -156t-165 -64q-102 0 -167 63.5t-65 156.5q0 114 93 172q-61 50 -61 136q0 81 56 136.5t144 55.5q84 0 142 -56t58 -136q0 -84 -65 -136zM296 624q-43 0 -73.5 -29.5t-30.5 -70.5q0 -42 30 -72t74 -30t74 30t30 72q0 41 -30.5 70.5
t-73.5 29.5zM296 80q56 0 96 37.5t40 90.5q0 54 -39.5 92t-96.5 38t-96.5 -38t-39.5 -92q0 -53 39.5 -90.5t96.5 -37.5z" />
    <glyph glyph-name="nine" unicode="9" horiz-adv-x="592" 
d="M64 480q0 96 68 164t164 68t164 -68t68 -164q0 -32 -3 -58t-15.5 -58.5t-20.5 -51t-36 -62.5t-43 -65t-61 -85.5t-70 -99.5h-115l188 260q-33 -12 -72 -12q-87 0 -151.5 65t-64.5 167zM296 624q-55 0 -95.5 -42.5t-40.5 -101.5t40.5 -101.5t95.5 -42.5t95.5 42.5
t40.5 101.5t-40.5 101.5t-95.5 42.5z" />
    <glyph glyph-name="colon" unicode=":" horiz-adv-x="272" 
d="M136 328q-30 0 -51 21t-21 51q0 31 21 51.5t51 20.5q31 0 51.5 -20.5t20.5 -51.5q0 -30 -20.5 -51t-51.5 -21zM136 -8q-30 0 -51 21t-21 51t21 51t51 21q31 0 51.5 -21t20.5 -51t-20.5 -51t-51.5 -21z" />
    <glyph glyph-name="semicolon" unicode=";" horiz-adv-x="272" 
d="M136 328q-30 0 -51 21t-21 51q0 31 21 51.5t51 20.5q31 0 51.5 -20.5t20.5 -51.5q0 -30 -20.5 -51t-51.5 -21zM88 -112v224h112l-40 -224h-72z" />
    <glyph glyph-name="less" unicode="&#x3c;" horiz-adv-x="496" 
d="M432 128l-368 184v64l368 184v-88l-278 -128l278 -128v-88z" />
    <glyph glyph-name="equal" unicode="=" horiz-adv-x="480" 
d="M64 464h352v-80h-352v80zM64 304h352v-80h-352v80z" />
    <glyph glyph-name="greater" unicode="&#x3e;" horiz-adv-x="496" 
d="M64 128v88l278 128l-278 128v88l368 -184v-64z" />
    <glyph glyph-name="question" unicode="?" horiz-adv-x="496" 
d="M232 712q88 0 144 -52t56 -132q0 -31 -7.5 -57.5t-23 -49t-28 -37t-34.5 -35t-29 -28.5q-34 -36 -34 -113h-88q-12 85 30 147q12 18 34.5 39.5t39.5 36.5t30.5 39t13.5 52q0 47 -28.5 74.5t-74.5 27.5q-70 0 -107 -52l-62 62q62 78 168 78zM232 136q31 0 51.5 -21
t20.5 -51t-20.5 -51t-51.5 -21q-30 0 -51 21t-21 51t21 51t51 21z" />
    <glyph glyph-name="at" unicode="@" horiz-adv-x="1024" 
d="M520 784q121 0 222.5 -61.5t159.5 -166t58 -226.5q0 -112 -59 -189t-162 -77q-55 0 -90 25t-49 58q-56 -67 -138 -67q-81 0 -129.5 62.5t-33.5 159.5q15 98 72 154t137 56q75 0 111 -63l7 47h82l-37 -271q-12 -81 76 -81q52 0 92.5 47.5t40.5 138.5q0 157 -102.5 265.5
t-258.5 108.5q-163 0 -269 -120.5t-106 -295.5q0 -172 106.5 -293t268.5 -123q91 -1 152 30l26 -76q-72 -34 -177 -34q-196 0 -326 144t-130 352t130 352t326 144zM595 295q6 57 -16 97t-70 40q-56 0 -89 -37.5t-41 -97.5q-9 -58 17 -97.5t80 -39.5q50 0 81.5 38.5
t37.5 96.5z" />
    <glyph glyph-name="A" unicode="A" horiz-adv-x="608" 
d="M484 0l-44 132h-272l-44 -132h-108l248 704h80l248 -704h-108zM197 220h214l-107 320z" />
    <glyph glyph-name="B" unicode="B" horiz-adv-x="576" 
d="M395 378q54 -16 85.5 -65.5t31.5 -109.5q0 -91 -64.5 -147t-169.5 -56h-198v704h157q115 0 179 -47t64 -137q0 -47 -24 -84t-61 -58zM176 616v-204h74q62 0 98 29.5t36 76.5t-35.5 72.5t-98.5 25.5h-74zM264 88q70 0 110 28.5t40 85.5q0 59 -40.5 90.5t-109.5 31.5h-88
v-236h88z" />
    <glyph glyph-name="C" unicode="C" horiz-adv-x="624" 
d="M352 80q107 0 168 118l72 -55q-37 -71 -99 -111t-141 -40q-136 0 -220 103.5t-84 256.5t84 256.5t220 103.5q79 0 141 -40t99 -111l-72 -55q-61 118 -168 118q-90 0 -149 -78.5t-59 -193.5t59 -193.5t149 -78.5z" />
    <glyph glyph-name="D" unicode="D" horiz-adv-x="624" 
d="M217 704q169 0 264 -99.5t95 -252.5q0 -152 -96 -252t-263 -100h-137v704h137zM232 88q106 0 177 77t71 187t-71 187t-177 77h-56v-528h56z" />
    <glyph glyph-name="E" unicode="E" horiz-adv-x="512" 
d="M448 616h-272v-220h208v-88h-208v-220h272v-88h-368v704h368v-88z" />
    <glyph glyph-name="F" unicode="F" horiz-adv-x="496" 
d="M448 616h-272v-220h208v-88h-208v-308h-96v704h368v-88z" />
    <glyph glyph-name="G" unicode="G" horiz-adv-x="672" 
d="M624 352v-352h-88l-6 87q-64 -95 -178 -95q-136 0 -220 103.5t-84 256.5t84 256.5t220 103.5q79 0 141 -40t99 -111l-72 -55q-61 118 -168 118q-90 0 -149 -78.5t-59 -193.5t59 -193.5t149 -78.5q80 0 124 53.5t51 130.5h-191v88h288z" />
    <glyph glyph-name="H" unicode="H" horiz-adv-x="608" 
d="M432 704h96v-704h-96v308h-256v-308h-96v704h96v-308h256v308z" />
    <glyph glyph-name="I" unicode="I" horiz-adv-x="256" 
d="M176 0h-96v704h96v-704z" />
    <glyph glyph-name="J" unicode="J" horiz-adv-x="448" 
d="M288 704h96v-496q0 -111 -55 -163.5t-137 -52.5q-47 0 -85 17.5t-59 44.5l60 64q36 -38 84 -38q37 0 66.5 30t29.5 90v504z" />
    <glyph glyph-name="K" unicode="K" horiz-adv-x="560" 
d="M528 0h-120l-179 300l-53 -76v-224h-96v704h96v-332l224 332h112l-223 -318z" />
    <glyph glyph-name="L" unicode="L" horiz-adv-x="480" 
d="M176 88h256v-88h-352v704h96v-616z" />
    <glyph glyph-name="M" unicode="M" horiz-adv-x="768" 
d="M384 356l224 348h80v-704h-96v514l-208 -314l-208 314v-514h-96v704h80z" />
    <glyph glyph-name="N" unicode="N" horiz-adv-x="656" 
d="M576 0h-80l-320 510v-510h-96v704h80l320 -510v510h96v-704z" />
    <glyph glyph-name="O" unicode="O" horiz-adv-x="704" 
d="M352 712q136 0 220 -103.5t84 -256.5t-84 -256.5t-220 -103.5t-220 103.5t-84 256.5t84 256.5t220 103.5zM352 80q90 0 149 78.5t59 193.5t-59 193.5t-149 78.5t-149 -78.5t-59 -193.5t59 -193.5t149 -78.5z" />
    <glyph glyph-name="P" unicode="P" 
d="M240 704q125 0 190.5 -65.5t65.5 -166.5q0 -98 -66.5 -165t-175.5 -67h-78v-240h-96v704h160zM257 328q56 0 99.5 39.5t43.5 104.5q0 71 -45 107.5t-104 36.5h-75v-288h81z" />
    <glyph glyph-name="Q" unicode="Q" horiz-adv-x="704" 
d="M656 352q0 -151 -79 -250l79 -72l-57 -62l-84 75q-70 -51 -163 -51q-136 0 -220 103.5t-84 256.5t84 256.5t220 103.5t220 -103.5t84 -256.5zM352 80q51 0 92 26l-84 75l58 64l88 -79q54 76 54 186q0 115 -59 193.5t-149 78.5t-149 -78.5t-59 -193.5t59 -193.5t149 -78.5
z" />
    <glyph glyph-name="R" unicode="R" horiz-adv-x="560" 
d="M512 0h-112l-123 241q-8 -1 -23 -1h-78v-240h-96v704h160q125 0 190.5 -65.5t65.5 -166.5q0 -67 -33.5 -122.5t-92.5 -84.5zM176 328h81q56 0 99.5 39.5t43.5 104.5q0 71 -45 107.5t-104 36.5h-75v-288z" />
    <glyph glyph-name="S" unicode="S" 
d="M289 444q103 -44 155 -94.5t52 -138.5q0 -85 -60.5 -152t-159.5 -67q-48 0 -89 15t-68.5 39.5t-43.5 43.5t-27 38l56 73q75 -121 174 -121q53 0 87.5 37.5t34.5 89.5q0 50 -32 80.5t-89 56.5q-105 46 -144 92t-39 116q0 64 54.5 112t132.5 48q57 0 93 -17t72 -55l-56 -71
q-49 55 -111 55q-35 0 -62 -22t-27 -52q0 -65 97 -106z" />
    <glyph glyph-name="T" unicode="T" horiz-adv-x="512" 
d="M48 704h416v-88h-160v-616h-96v616h-160v88z" />
    <glyph glyph-name="U" unicode="U" horiz-adv-x="656" 
d="M480 704h96v-424q0 -133 -66.5 -210.5t-181.5 -77.5q-117 0 -182.5 77t-65.5 211v424h96v-440q0 -82 40 -133t112 -51q71 0 111.5 51t40.5 133v440z" />
    <glyph glyph-name="V" unicode="V" horiz-adv-x="608" 
d="M484 704h108l-248 -704h-80l-248 704h108l180 -540z" />
    <glyph glyph-name="W" unicode="W" horiz-adv-x="896" 
d="M772 704h108l-248 -704h-80l-103 303l-105 -303h-80l-248 704h108l180 -540l95 285l-87 255h100l180 -540z" />
    <glyph glyph-name="X" unicode="X" horiz-adv-x="592" 
d="M32 0l208 366l-192 338h107l141 -254l141 254h107l-192 -338l208 -366h-108l-156 280l-156 -280h-108z" />
    <glyph glyph-name="Y" unicode="Y" 
d="M420 704h108l-208 -419v-285h-96v285l-208 419h108l148 -315z" />
    <glyph glyph-name="Z" unicode="Z" 
d="M480 0h-416v64l296 552h-296v88h416v-64l-296 -552h296v-88z" />
    <glyph glyph-name="bracketleft" unicode="[" horiz-adv-x="352" 
d="M176 760v-880h96v-88h-192v1056h192v-88h-96z" />
    <glyph glyph-name="backslash" unicode="\" horiz-adv-x="560" 
d="M400 -80l-336 864h96l336 -864h-96z" />
    <glyph glyph-name="bracketright" unicode="]" horiz-adv-x="352" 
d="M176 760h-96v88h192v-1056h-192v88h96v880z" />
    <glyph glyph-name="asciicircum" unicode="^" horiz-adv-x="512" 
d="M64 480l154 224h76l154 -224h-96l-96 146l-96 -146h-96z" />
    <glyph glyph-name="underscore" unicode="_" horiz-adv-x="576" 
d="M528 -112h-480v80h480v-80z" />
    <glyph glyph-name="a" unicode="a" horiz-adv-x="512" 
d="M448 0h-80l-8 62q-58 -70 -147 -70q-71 0 -118 46t-47 113q0 50 27 85.5t70 50.5t97 11t107 -28q-6 114 -101 114q-56 0 -104 -30l-40 70q63 48 148 48q94 0 145 -56t51 -190v-226zM352 191q-37 19 -85 24t-85.5 -11.5t-37.5 -55.5q0 -27 22 -47.5t56 -20.5
q45 0 84.5 33.5t45.5 77.5z" />
    <glyph glyph-name="b" unicode="b" horiz-adv-x="576" 
d="M176 720v-318q21 31 59 50.5t83 19.5q90 0 150 -70t60 -170t-60 -170t-150 -70q-45 0 -83 19.5t-59 50.5v-62h-96v720h96zM304 80q56 0 92 44t36 108t-36 108t-92 44t-92 -44t-36 -108t36 -108t92 -44z" />
    <glyph glyph-name="c" unicode="c" horiz-adv-x="496" 
d="M280 80q62 0 100 42l68 -56q-62 -74 -168 -74q-98 0 -165 70t-67 170t67 170t165 70q106 0 168 -74l-68 -56q-38 42 -100 42q-58 0 -97 -45t-39 -107t39 -107t97 -45z" />
    <glyph glyph-name="d" unicode="d" horiz-adv-x="576" 
d="M400 720h96v-720h-96v62q-21 -31 -59 -50.5t-83 -19.5q-90 0 -150 70t-60 170t60 170t150 70q45 0 83 -19.5t59 -50.5v318zM272 80q56 0 92 44t36 108t-36 108t-92 44t-92 -44t-36 -108t36 -108t92 -44z" />
    <glyph glyph-name="e" unicode="e" horiz-adv-x="528" 
d="M480 238q0 -27 -4 -46h-328q12 -49 47 -80.5t85 -31.5q62 0 100 42l68 -56q-61 -74 -168 -74q-101 0 -166.5 69.5t-65.5 170.5q0 102 60.5 171t161.5 69q90 0 150 -64.5t60 -169.5zM270 384q-46 0 -77.5 -28.5t-42.5 -75.5h230q-3 45 -33 74.5t-77 29.5z" />
    <glyph glyph-name="f" unicode="f" horiz-adv-x="400" 
d="M48 464h64v90q0 85 39 129.5t105 44.5q51 0 96 -32l-44 -72q-21 16 -45 16q-55 0 -55 -86v-90h144v-88h-144v-376h-96v376h-64v88z" />
    <glyph glyph-name="g" unicode="g" horiz-adv-x="520" 
d="M264 70q102 -4 159 -38t57 -118q0 -71 -61 -116.5t-163 -45.5q-106 0 -165 45t-59 117q0 94 75 145q-8 10 -12.5 30.5t0 50.5t22.5 53q-45 45 -45 112q0 70 51.5 118.5t132.5 48.5q64 0 111 -33l64 57l57 -62l-64 -59q16 -34 16 -70q0 -70 -53.5 -117.5t-130.5 -47.5
q-34 0 -63 9q-9 -18 -9 -34.5t21 -29.5t59 -15zM256 384q-36 0 -62 -23t-26 -54q0 -33 25.5 -56t62.5 -23t62.5 23t25.5 56q0 31 -26 54t-62 23zM256 -160q60 0 94 20.5t34 50.5q0 69 -112 71q-62 2 -99 17q-23 -15 -34 -31t-11 -43q0 -85 128 -85z" />
    <glyph glyph-name="h" unicode="h" 
d="M302 472q86 0 132 -57t46 -163v-252h-96v252q0 66 -23 99t-77 33q-45 0 -76.5 -38t-31.5 -98v-248h-96v720h96v-312q13 25 46.5 44.5t79.5 19.5z" />
    <glyph glyph-name="i" unicode="i" horiz-adv-x="256" 
d="M128 560q-30 0 -51 21t-21 51t21 51t51 21t51 -21t21 -51t-21 -51t-51 -21zM80 0v464h96v-464h-96z" />
    <glyph glyph-name="j" unicode="j" horiz-adv-x="256" 
d="M128 704q30 0 51 -21t21 -51t-21 -51t-51 -21t-51 21t-21 51t21 51t51 21zM80 -20v484h96v-492q0 -65 -18.5 -111.5t-48 -68.5t-56.5 -31t-53 -9l-16 88q41 3 68.5 37t27.5 103z" />
    <glyph glyph-name="k" unicode="k" horiz-adv-x="496" 
d="M480 0h-120l-150 195l-34 -36v-159h-96v720h96v-444l168 188h120l-192 -204z" />
    <glyph glyph-name="l" unicode="l" horiz-adv-x="256" 
d="M80 720h96v-720h-96v720z" />
    <glyph glyph-name="m" unicode="m" horiz-adv-x="816" 
d="M582 472q80 0 125 -57t45 -163v-252h-96v252q0 132 -92 132q-44 0 -72 -37.5t-28 -98.5v-248h-96v252q0 132 -92 132q-44 0 -72 -39t-28 -105v-240h-96v464h96v-64q38 72 118 72q94 0 138 -76q33 42 66.5 59t83.5 17z" />
    <glyph glyph-name="n" unicode="n" 
d="M302 472q86 0 132 -57t46 -163v-252h-96v252q0 66 -23 99t-77 33q-45 0 -76.5 -39.5t-31.5 -104.5v-240h-96v464h96v-64q41 72 126 72z" />
    <glyph glyph-name="o" unicode="o" 
d="M272 472q100 0 162 -69.5t62 -170.5t-62 -170.5t-162 -69.5t-162 69.5t-62 170.5t62 170.5t162 69.5zM272 80q57 0 92.5 44.5t35.5 107.5t-35.5 107.5t-92.5 44.5t-92.5 -44.5t-35.5 -107.5t35.5 -107.5t92.5 -44.5z" />
    <glyph glyph-name="p" unicode="p" horiz-adv-x="576" 
d="M176 464v-62q21 31 59 50.5t83 19.5q90 0 150 -70t60 -170t-60 -170t-150 -70q-45 0 -83 19.5t-59 50.5v-302h-96v704h96zM304 80q56 0 92 44t36 108t-36 108t-92 44t-92 -44t-36 -108t36 -108t92 -44z" />
    <glyph glyph-name="q" unicode="q" horiz-adv-x="576" 
d="M400 464h96v-704h-96v302q-21 -31 -59 -50.5t-83 -19.5q-90 0 -150 70t-60 170t60 170t150 70q45 0 83 -19.5t59 -50.5v62zM272 80q56 0 92 44t36 108t-36 108t-92 44t-92 -44t-36 -108t36 -108t92 -44z" />
    <glyph glyph-name="r" unicode="r" horiz-adv-x="384" 
d="M176 393q45 79 160 79v-102q-43 9 -80 -4q-80 -28 -80 -149v-217h-96v464h96v-71z" />
    <glyph glyph-name="s" unicode="s" horiz-adv-x="432" 
d="M241 288q143 -33 143 -150q0 -63 -47.5 -104.5t-111.5 -41.5q-101 0 -177 76l48 70q59 -57 123 -58q33 -1 51 16.5t18 36.5q0 42 -62 59q-85 24 -119.5 57.5t-34.5 89.5q0 57 39.5 95t112.5 38q71 0 129 -46l-45 -70q-38 28 -84 28q-56 0 -56 -42q0 -19 16 -32t57 -22z
" />
    <glyph glyph-name="t" unicode="t" horiz-adv-x="416" 
d="M352 376h-128v-214q0 -82 47 -82q19 0 37 16l44 -72q-40 -32 -92 -32q-132 0 -132 174v210h-80v88h80v208l96 32v-240h128v-88z" />
    <glyph glyph-name="u" unicode="u" 
d="M242 -8q-86 0 -132 57t-46 163v252h96v-260q0 -124 100 -124q46 0 77 40.5t31 111.5v232h96v-464h-96v64q-41 -72 -126 -72z" />
    <glyph glyph-name="v" unicode="v" horiz-adv-x="464" 
d="M272 0h-80l-176 464h104l112 -322l112 322h104z" />
    <glyph glyph-name="w" unicode="w" horiz-adv-x="688" 
d="M568 464h104l-176 -464h-80l-73 200l-71 -200h-80l-176 464h104l112 -322l62 194l-46 128h96l112 -322z" />
    <glyph glyph-name="x" unicode="x" horiz-adv-x="496" 
d="M464 0h-112l-104 167l-104 -167h-112l160 244l-144 220h112l88 -143l88 143h112l-144 -220z" />
    <glyph glyph-name="y" unicode="y" horiz-adv-x="464" 
d="M344 464h104l-263 -704h-102l100 263l-167 441h104l112 -314z" />
    <glyph glyph-name="z" unicode="z" horiz-adv-x="464" 
d="M400 0h-336v64l208 312h-208v88h336v-64l-210 -312h210v-88z" />
    <glyph glyph-name="braceleft" unicode="{" horiz-adv-x="344" 
d="M64 280v80q30 1 47 22.5t17 49.5v250q0 156 112 182l40 -80q-32 -9 -44 -34.5t-12 -71.5v-212q0 -117 -67 -146q67 -29 67 -146v-212q0 -46 12 -71.5t44 -34.5l-40 -80q-112 26 -112 182v250q0 28 -17 49.5t-47 22.5z" />
    <glyph glyph-name="bar" unicode="|" horiz-adv-x="240" 
d="M160 -240h-80v976h80v-976z" />
    <glyph glyph-name="braceright" unicode="}" horiz-adv-x="344" 
d="M280 280q-30 -1 -47 -22.5t-17 -49.5v-250q0 -156 -112 -182l-40 80q32 9 44 34.5t12 71.5v212q0 117 67 146q-67 29 -67 146v212q0 46 -12 71.5t-44 34.5l40 80q112 -26 112 -182v-250q0 -28 17 -49.5t47 -22.5v-80z" />
    <glyph glyph-name="asciitilde" unicode="~" horiz-adv-x="528" 
d="M411 392l53 -56q-43 -56 -115 -56q-29 0 -66.5 11.5t-62 20.5t-53 3t-50.5 -35l-53 56q43 56 115 56q34 0 84 -19t84.5 -19t63.5 38z" />
    <glyph glyph-name="exclamdown" unicode="&#xa1;" horiz-adv-x="304" 
d="M152 456q31 0 51.5 -21t20.5 -51t-20.5 -51t-51.5 -21q-30 0 -51 21t-21 51t21 51t51 21zM112 240h80l16 -496h-112z" />
    <glyph glyph-name="cent" unicode="&#xa2;" horiz-adv-x="496" 
d="M304 81q43 6 76 41l68 -56q-55 -66 -144 -73v-89h-64v91q-84 15 -138 81.5t-54 155.5t54 155.5t138 81.5v91h64v-89q89 -7 144 -73l-68 -56q-33 35 -76 41v-302zM144 232q0 -50 26.5 -90.5t69.5 -55.5v292q-43 -15 -69.5 -55.5t-26.5 -90.5z" />
    <glyph glyph-name="sterling" unicode="&#xa3;" horiz-adv-x="512" 
d="M204 312q21 -145 -32 -224h292v-88h-416v64q37 38 54.5 82t15.5 83.5t-8 82.5h-62v64h50q-18 90 -18 130q0 85 55.5 145.5t153.5 60.5q112 0 175 -80l-58 -64q-49 56 -116 56q-48 0 -80 -32.5t-34 -91.5q-1 -36 16 -124h144v-64h-132z" />
    <glyph glyph-name="currency" unicode="&#xa4;" horiz-adv-x="526" 
d="M407 312q0 -45 -24 -80l79 -78l-39 -41l-80 78q-35 -23 -79 -23q-46 0 -82 25l-79 -80l-39 40l78 80q-23 35 -23 79t24 79l-79 81l41 39l78 -79q37 24 81 24q45 0 81 -25l76 80l41 -39l-79 -80q24 -37 24 -80zM263 376q-25 0 -44.5 -19t-19.5 -45t19.5 -45t44.5 -19
t44.5 19t19.5 45t-19.5 45t-44.5 19z" />
    <glyph glyph-name="yen" unicode="&#xa5;" horiz-adv-x="608" 
d="M352 285v-13h80v-48h-80v-64h80v-48h-80v-112h-96v112h-80v48h80v64h-80v48h80v13l-208 419h108l148 -315l148 315h108z" />
    <glyph glyph-name="brokenbar" unicode="&#xa6;" horiz-adv-x="240" 
d="M160 408h-80v328h80v-328zM160 -240h-80v328h80v-328z" />
    <glyph glyph-name="section" unicode="&#xa7;" horiz-adv-x="576" 
d="M431 39q49 -48 49 -127q0 -64 -54.5 -112t-132.5 -48q-57 0 -93 17t-72 55l56 71q49 -55 111 -55q35 0 62 22t27 52q0 65 -97 106q-103 44 -155 94.5t-52 138.5q0 48 21.5 94t59.5 78q-49 48 -49 127q0 64 54.5 112t132.5 48q57 0 93 -17t72 -55l-56 -71q-49 55 -111 55
q-35 0 -62 -22t-27 -52q0 -65 97 -106q103 -44 155 -94.5t52 -138.5q0 -48 -21.5 -94t-59.5 -78zM176 257q0 -50 32 -80.5t89 -56.5q39 -17 54 -26q30 16 47.5 47t17.5 66q0 50 -32 80.5t-89 56.5q-39 17 -54 26q-30 -16 -47.5 -47t-17.5 -66z" />
    <glyph glyph-name="copyright" unicode="&#xa9;" horiz-adv-x="848" 
d="M424 -8q-152 0 -256 104.5t-104 255.5q0 152 104 256t256 104t256 -104t104 -256t-104 -256t-256 -104zM424 72q117 0 198.5 81.5t81.5 198.5t-81.5 198.5t-198.5 81.5t-198.5 -81.5t-81.5 -198.5t81.5 -198.5t198.5 -81.5zM425 218q53 0 88 54l60 -42q-46 -88 -148 -88
q-82 0 -134 60.5t-52 149.5t52 149.5t134 60.5q102 0 148 -88l-60 -42q-36 54 -88 54q-46 0 -76 -36t-30 -98t30 -98t76 -36z" />
    <glyph glyph-name="ordfeminine" unicode="&#xaa;" horiz-adv-x="284" 
d="M252 464h-43l-6 30q-30 -38 -80 -38q-40 0 -65.5 23.5t-25.5 60.5q0 53 53.5 72.5t112.5 -7.5q-4 58 -56 58q-32 0 -57 -15l-22 38q35 26 81 26q108 0 108 -136v-112zM199 562q-29 17 -71.5 11t-42.5 -35q0 -14 12 -23.5t31 -9.5q25 0 46.5 16.5t24.5 40.5z" />
    <glyph glyph-name="guillemotleft" unicode="&#xab;" horiz-adv-x="560" 
d="M240 408l-88 -144l88 -144l-64 -40l-112 184l112 184zM464 408l-88 -144l88 -144l-64 -40l-112 184l112 184z" />
    <glyph glyph-name="logicalnot" unicode="&#xac;" horiz-adv-x="608" 
d="M544 384v-192h-80v112h-400v80h480z" />
    <glyph glyph-name="registered" unicode="&#xae;" horiz-adv-x="848" 
d="M424 712q152 0 256 -104t104 -256t-104 -256t-256 -104t-256 104.5t-104 255.5q0 152 104 256t256 104zM424 72q117 0 198.5 81.5t81.5 198.5t-81.5 198.5t-198.5 81.5t-198.5 -81.5t-81.5 -198.5t81.5 -198.5t198.5 -81.5zM566 411q0 -38 -18 -71t-50 -52l77 -136h-90
l-62 116h-49v-116h-80v400h120q74 0 113 -40.5t39 -100.5zM374 478v-136h33q34 0 56.5 18t22.5 51t-23.5 50t-56.5 17h-32z" />
    <glyph glyph-name="degree" unicode="&#xb0;" horiz-adv-x="416" 
d="M209 424q-61 0 -103 41.5t-42 102.5q0 60 42 102t103 42q60 0 101.5 -42t41.5 -102q0 -61 -41.5 -102.5t-101.5 -41.5zM208 504q26 0 45 19t19 45t-19 45t-45 19t-45 -19t-19 -45t19 -45t45 -19z" />
    <glyph glyph-name="plusminus" unicode="&#xb1;" horiz-adv-x="480" 
d="M416 472v-80h-136v-136h-80v136h-136v80h136v136h80v-136h136zM64 144h352v-80h-352v80z" />
    <glyph glyph-name="uni00B2" unicode="&#xb2;" horiz-adv-x="331" 
d="M229 592l-42 -40h96v-72h-231v52l67 56q85 70 85 105q0 14 -11.5 24.5t-26.5 10.5q-16 0 -27.5 -10.5t-11.5 -24.5q0 -9 3 -16l-74 -19q-8 15 -8 35q0 43 33.5 75t84.5 32q48 0 82.5 -31t34.5 -76q0 -51 -54 -101z" />
    <glyph glyph-name="uni00B3" unicode="&#xb3;" horiz-adv-x="332" 
d="M210 679q29 -4 51.5 -28.5t22.5 -68.5q0 -48 -33.5 -79t-87.5 -31q-49 0 -81 29t-34 63l72 15q2 -14 14 -24.5t29 -10.5q18 0 30 12t12 29q0 27 -21.5 37.5t-47.5 -1.5l-30 39l57 60h-97v72h202v-60z" />
    <glyph glyph-name="paragraph" unicode="&#xb6;" horiz-adv-x="704" 
d="M640 624h-96v-864h-80v864h-144v-864h-80v577q-76 0 -126 53.5t-50 130.5q0 76 50.5 129.5t125.5 53.5h400v-80z" />
    <glyph glyph-name="periodcentered" unicode="&#xb7;" horiz-adv-x="272" 
d="M136 264q-30 0 -51 21t-21 51q0 31 21 51.5t51 20.5q31 0 51.5 -20.5t20.5 -51.5q0 -30 -20.5 -51t-51.5 -21z" />
    <glyph glyph-name="uni00B9" unicode="&#xb9;" horiz-adv-x="288" 
d="M132 792h60v-312h-79v221l-48 -26l-33 57z" />
    <glyph glyph-name="ordmasculine" unicode="&#xba;" horiz-adv-x="304" 
d="M152 712q52 0 86 -37t34 -91t-34 -91t-86 -37t-86 37t-34 91t34 91t86 37zM152 505q29 0 48 23t19 56t-19 56t-48 23t-48 -23t-19 -56t19 -56t48 -23z" />
    <glyph glyph-name="guillemotright" unicode="&#xbb;" horiz-adv-x="560" 
d="M96 408l64 40l112 -184l-112 -184l-64 40l88 144zM320 408l64 40l112 -184l-112 -184l-64 40l88 144z" />
    <glyph glyph-name="onequarter" unicode="&#xbc;" horiz-adv-x="753" 
d="M113 392v221l-48 -26l-33 57l100 60h60v-312h-79zM532 704h88l-448 -704h-88zM670 125h35v-72h-35v-53h-79v53h-127v60l86 199h78l-77 -187h40v52h79v-52z" />
    <glyph glyph-name="onehalf" unicode="&#xbd;" horiz-adv-x="747" 
d="M113 392v221l-48 -26l-33 57l100 60h60v-312h-79zM532 704h88l-448 -704h-88zM645 112l-42 -40h96v-72h-231v52l67 56q85 70 85 105q0 14 -11.5 24.5t-26.5 10.5q-16 0 -27.5 -10.5t-11.5 -24.5q0 -8 3 -16l-74 -19q-8 15 -8 35q0 43 33.5 75t84.5 32q48 0 82.5 -31
t34.5 -76q0 -51 -54 -101z" />
    <glyph glyph-name="threequarters" unicode="&#xbe;" horiz-adv-x="797" 
d="M210 591q29 -4 51.5 -28.5t22.5 -68.5q0 -48 -33.5 -79t-87.5 -31q-49 0 -81 29t-34 63l72 15q2 -14 14 -24.5t29 -10.5q18 0 30 12t12 29q0 27 -21.5 37.5t-47.5 -1.5l-30 39l57 60h-97v72h202v-60zM216 0h-88l448 704h88zM508 53v60l86 199h78l-77 -187h40v52h79v-52
h35v-72h-35v-53h-79v53h-127z" />
    <glyph glyph-name="questiondown" unicode="&#xbf;" horiz-adv-x="496" 
d="M264 312q-31 0 -51.5 21t-20.5 51t20.5 51t51.5 21q30 0 51 -21t21 -51t-21 -51t-51 -21zM264 -264q-88 0 -144 52t-56 132q0 31 7.5 57.5t23 49t28 37t34.5 35t29 28.5q34 36 34 113h88q12 -85 -30 -147q-12 -18 -34.5 -39.5t-39.5 -36.5t-30.5 -39t-13.5 -52
q0 -47 28.5 -74.5t74.5 -27.5q70 0 107 52l62 -62q-62 -78 -168 -78z" />
    <glyph glyph-name="Agrave" unicode="&#xc0;" horiz-adv-x="608" 
d="M344 784h-64l-96 160h96zM484 0l-44 132h-272l-44 -132h-108l248 704h80l248 -704h-108zM197 220h214l-107 320z" />
    <glyph glyph-name="Aacute" unicode="&#xc1;" horiz-adv-x="608" 
d="M424 944l-96 -160h-64l64 160h96zM484 0l-44 132h-272l-44 -132h-108l248 704h80l248 -704h-108zM197 220h214l-107 320z" />
    <glyph glyph-name="Acircumflex" unicode="&#xc2;" horiz-adv-x="608" 
d="M304 872l-56 -88h-72l96 144h64l96 -144h-72zM484 0l-44 132h-272l-44 -132h-108l248 704h80l248 -704h-108zM197 220h214l-107 320z" />
    <glyph glyph-name="Atilde" unicode="&#xc3;" horiz-adv-x="608" 
d="M310 798q-49 23 -80.5 20.5t-48.5 -34.5l-45 40q36 56 94 56q38 0 68 -13q47 -23 79 -22t50 35l45 -40q-36 -56 -94 -56q-36 0 -68 14zM484 0l-44 132h-272l-44 -132h-108l248 704h80l248 -704h-108zM197 220h214l-107 320z" />
    <glyph glyph-name="Adieresis" unicode="&#xc4;" horiz-adv-x="608" 
d="M216 784q-23 0 -39.5 16.5t-16.5 39.5q0 24 16.5 40t39.5 16q24 0 40 -16t16 -40q0 -23 -16 -39.5t-40 -16.5zM392 784q-23 0 -39.5 16.5t-16.5 39.5q0 24 16.5 40t39.5 16q24 0 40 -16t16 -40q0 -23 -16 -39.5t-40 -16.5zM484 0l-44 132h-272l-44 -132h-108l248 704h80
l248 -704h-108zM197 220h214l-107 320z" />
    <glyph glyph-name="Aring" unicode="&#xc5;" horiz-adv-x="608" 
d="M484 0l-44 132h-272l-44 -132h-108l222 630q-46 33 -46 90q0 46 33 79t79 33t79 -33t33 -79q0 -56 -46 -91l222 -629h-108zM304 776q-23 0 -39.5 -16.5t-16.5 -39.5t16.5 -39.5t39.5 -16.5t39.5 16.5t16.5 39.5t-16.5 39.5t-39.5 16.5zM197 220h214l-107 320z" />
    <glyph glyph-name="AE" unicode="&#xc6;" horiz-adv-x="800" 
d="M736 616h-272v-220h208v-88h-208v-220h272v-88h-368v132h-184l-64 -132h-104l352 704h368v-88zM227 220h141v292z" />
    <glyph glyph-name="Ccedilla" unicode="&#xc7;" horiz-adv-x="624" 
d="M352 80q107 0 168 118l72 -55q-35 -68 -93.5 -107.5t-133.5 -43.5v-40q15 -2 31.5 -8.5t34.5 -20t29.5 -37t11.5 -54.5q0 -60 -40 -98t-96 -38q-43 0 -74 18t-46 45l48 45q18 -44 72 -44q35 0 57.5 20t22.5 53q0 45 -34.5 65.5t-80.5 13.5v84q-115 20 -184 119.5
t-69 236.5q0 153 84 256.5t220 103.5q79 0 141 -40t99 -111l-72 -55q-61 118 -168 118q-90 0 -149 -78.5t-59 -193.5t59 -193.5t149 -78.5z" />
    <glyph glyph-name="Egrave" unicode="&#xc8;" horiz-adv-x="512" 
d="M320 784h-64l-96 160h96zM448 616h-272v-220h208v-88h-208v-220h272v-88h-368v704h368v-88z" />
    <glyph glyph-name="Eacute" unicode="&#xc9;" horiz-adv-x="512" 
d="M200 784l64 160h96l-96 -160h-64zM448 616h-272v-220h208v-88h-208v-220h272v-88h-368v704h368v-88z" />
    <glyph glyph-name="Ecircumflex" unicode="&#xca;" horiz-adv-x="512" 
d="M312 784l-56 88l-56 -88h-72l96 144h64l96 -144h-72zM448 616h-272v-220h208v-88h-208v-220h272v-88h-368v704h368v-88z" />
    <glyph glyph-name="Edieresis" unicode="&#xcb;" horiz-adv-x="512" 
d="M168 784q-23 0 -39.5 16.5t-16.5 39.5q0 24 16.5 40t39.5 16q24 0 40 -16t16 -40q0 -23 -16 -39.5t-40 -16.5zM344 784q-23 0 -39.5 16.5t-16.5 39.5q0 24 16.5 40t39.5 16q24 0 40 -16t16 -40q0 -23 -16 -39.5t-40 -16.5zM448 616h-272v-220h208v-88h-208v-220h272v-88
h-368v704h368v-88z" />
    <glyph glyph-name="Igrave" unicode="&#xcc;" horiz-adv-x="256" 
d="M176 784h-64l-96 160h96zM176 0h-96v704h96v-704z" />
    <glyph glyph-name="Iacute" unicode="&#xcd;" horiz-adv-x="256" 
d="M80 784l64 160h96l-96 -160h-64zM176 0h-96v704h96v-704z" />
    <glyph glyph-name="Icircumflex" unicode="&#xce;" horiz-adv-x="256" 
d="M184 784l-56 88l-56 -88h-72l96 144h64l96 -144h-72zM176 0h-96v704h96v-704z" />
    <glyph glyph-name="Idieresis" unicode="&#xcf;" horiz-adv-x="256" 
d="M40 784q-23 0 -39.5 16.5t-16.5 39.5q0 24 16.5 40t39.5 16q24 0 40 -16t16 -40q0 -23 -16 -39.5t-40 -16.5zM216 784q-23 0 -39.5 16.5t-16.5 39.5q0 24 16.5 40t39.5 16q24 0 40 -16t16 -40q0 -23 -16 -39.5t-40 -16.5zM176 0h-96v704h96v-704z" />
    <glyph glyph-name="Eth" unicode="&#xd0;" horiz-adv-x="624" 
d="M217 704q169 0 264 -99.5t95 -252.5q0 -152 -96 -252t-263 -100h-137v320h-48v64h48v320h137zM232 88q106 0 177 77t71 187t-71 187t-177 77h-56v-232h96v-64h-96v-232h56z" />
    <glyph glyph-name="Ntilde" unicode="&#xd1;" horiz-adv-x="656" 
d="M451 880l45 -40q-36 -56 -94 -56q-36 0 -68 14q-49 23 -80.5 20.5t-48.5 -34.5l-45 40q36 56 94 56q38 0 68 -13q47 -23 79 -22t50 35zM576 0h-80l-320 510v-510h-96v704h80l320 -510v510h96v-704z" />
    <glyph glyph-name="Ograve" unicode="&#xd2;" horiz-adv-x="704" 
d="M408 784h-64l-96 160h96zM352 712q136 0 220 -103.5t84 -256.5t-84 -256.5t-220 -103.5t-220 103.5t-84 256.5t84 256.5t220 103.5zM352 80q90 0 149 78.5t59 193.5t-59 193.5t-149 78.5t-149 -78.5t-59 -193.5t59 -193.5t149 -78.5z" />
    <glyph glyph-name="Oacute" unicode="&#xd3;" horiz-adv-x="704" 
d="M296 784l64 160h96l-96 -160h-64zM352 712q136 0 220 -103.5t84 -256.5t-84 -256.5t-220 -103.5t-220 103.5t-84 256.5t84 256.5t220 103.5zM352 80q90 0 149 78.5t59 193.5t-59 193.5t-149 78.5t-149 -78.5t-59 -193.5t59 -193.5t149 -78.5z" />
    <glyph glyph-name="Ocircumflex" unicode="&#xd4;" horiz-adv-x="704" 
d="M408 784l-56 88l-56 -88h-72l96 144h64l96 -144h-72zM352 712q136 0 220 -103.5t84 -256.5t-84 -256.5t-220 -103.5t-220 103.5t-84 256.5t84 256.5t220 103.5zM352 80q90 0 149 78.5t59 193.5t-59 193.5t-149 78.5t-149 -78.5t-59 -193.5t59 -193.5t149 -78.5z" />
    <glyph glyph-name="Otilde" unicode="&#xd5;" horiz-adv-x="704" 
d="M475 880l45 -40q-36 -56 -94 -56q-36 0 -68 14q-49 23 -80.5 20.5t-48.5 -34.5l-45 40q36 56 94 56q38 0 68 -13q47 -23 79 -22t50 35zM352 712q136 0 220 -103.5t84 -256.5t-84 -256.5t-220 -103.5t-220 103.5t-84 256.5t84 256.5t220 103.5zM352 80q90 0 149 78.5
t59 193.5t-59 193.5t-149 78.5t-149 -78.5t-59 -193.5t59 -193.5t149 -78.5z" />
    <glyph glyph-name="Odieresis" unicode="&#xd6;" horiz-adv-x="704" 
d="M264 784q-23 0 -39.5 16.5t-16.5 39.5q0 24 16.5 40t39.5 16q24 0 40 -16t16 -40q0 -23 -16 -39.5t-40 -16.5zM440 784q-23 0 -39.5 16.5t-16.5 39.5q0 24 16.5 40t39.5 16q24 0 40 -16t16 -40q0 -23 -16 -39.5t-40 -16.5zM352 712q136 0 220 -103.5t84 -256.5
t-84 -256.5t-220 -103.5t-220 103.5t-84 256.5t84 256.5t220 103.5zM352 80q90 0 149 78.5t59 193.5t-59 193.5t-149 78.5t-149 -78.5t-59 -193.5t59 -193.5t149 -78.5z" />
    <glyph glyph-name="multiply" unicode="&#xd7;" horiz-adv-x="480" 
d="M359 520l57 -57l-119 -119l119 -119l-57 -57l-119 119l-119 -119l-57 57l119 119l-119 119l57 57l119 -119z" />
    <glyph glyph-name="Oslash" unicode="&#xd8;" horiz-adv-x="704" 
d="M672 672l-79 -93q63 -95 63 -227q0 -153 -84 -256.5t-220 -103.5q-113 0 -193 75l-71 -83l-56 48l79 93q-63 95 -63 227q0 153 84 256.5t220 103.5q113 0 193 -75l71 83zM144 352q0 -82 33 -150l307 363q-56 59 -132 59q-90 0 -149 -78.5t-59 -193.5zM560 352
q0 82 -33 150l-307 -363q56 -59 132 -59q90 0 149 78.5t59 193.5z" />
    <glyph glyph-name="Ugrave" unicode="&#xd9;" horiz-adv-x="656" 
d="M376 784h-64l-96 160h96zM480 704h96v-424q0 -133 -66.5 -210.5t-181.5 -77.5q-117 0 -182.5 77t-65.5 211v424h96v-440q0 -82 40 -133t112 -51q71 0 111.5 51t40.5 133v440z" />
    <glyph glyph-name="Uacute" unicode="&#xda;" horiz-adv-x="656" 
d="M280 784l64 160h96l-96 -160h-64zM480 704h96v-424q0 -133 -66.5 -210.5t-181.5 -77.5q-117 0 -182.5 77t-65.5 211v424h96v-440q0 -82 40 -133t112 -51q71 0 111.5 51t40.5 133v440z" />
    <glyph glyph-name="Ucircumflex" unicode="&#xdb;" horiz-adv-x="656" 
d="M384 784l-56 88l-56 -88h-72l96 144h64l96 -144h-72zM480 704h96v-424q0 -133 -66.5 -210.5t-181.5 -77.5q-117 0 -182.5 77t-65.5 211v424h96v-440q0 -82 40 -133t112 -51q71 0 111.5 51t40.5 133v440z" />
    <glyph glyph-name="Udieresis" unicode="&#xdc;" horiz-adv-x="656" 
d="M240 784q-23 0 -39.5 16.5t-16.5 39.5q0 24 16.5 40t39.5 16q24 0 40 -16t16 -40q0 -23 -16 -39.5t-40 -16.5zM416 784q-23 0 -39.5 16.5t-16.5 39.5q0 24 16.5 40t39.5 16q24 0 40 -16t16 -40q0 -23 -16 -39.5t-40 -16.5zM480 704h96v-424q0 -133 -66.5 -210.5
t-181.5 -77.5q-117 0 -182.5 77t-65.5 211v424h96v-440q0 -82 40 -133t112 -51q71 0 111.5 51t40.5 133v440z" />
    <glyph glyph-name="Yacute" unicode="&#xdd;" 
d="M232 784l64 160h96l-96 -160h-64zM420 704h108l-208 -419v-285h-96v285l-208 419h108l148 -315z" />
    <glyph glyph-name="Thorn" unicode="&#xde;" 
d="M240 584q125 0 190.5 -65.5t65.5 -166.5q0 -98 -66.5 -165t-175.5 -67h-78v-120h-96v704h96v-120h64zM263 208q56 0 96.5 39t40.5 105q0 71 -42 107.5t-101 36.5h-81v-288h87z" />
    <glyph glyph-name="germandbls" unicode="&#xdf;" 
d="M160 0v524q0 51 25.5 83.5t70.5 32.5q40 0 68 -26.5t28 -69.5q0 -61 -46.5 -90.5t-113.5 -29.5v-80q93 0 150.5 -35t57.5 -103q0 -57 -30.5 -90t-72 -35t-83.5 11l-22 -84q37 -16 88 -16q104 0 160 63.5t56 146.5q0 72 -39 120.5t-99 65.5q40 22 66.5 62t26.5 94
q0 77 -54.5 130.5t-138.5 53.5q-12 0 -29 -2.5t-48.5 -15.5t-55.5 -34.5t-42.5 -66.5t-18.5 -105v-504h96z" />
    <glyph glyph-name="agrave" unicode="&#xe0;" horiz-adv-x="512" 
d="M320 544h-64l-96 160h96zM448 0h-80l-8 62q-58 -70 -147 -70q-71 0 -118 46t-47 113q0 50 27 85.5t70 50.5t97 11t107 -28q-6 114 -101 114q-56 0 -104 -30l-40 70q63 48 148 48q94 0 145 -56t51 -190v-226zM352 191q-37 19 -85 24t-85.5 -11.5t-37.5 -55.5
q0 -27 22 -47.5t56 -20.5q45 0 84.5 33.5t45.5 77.5z" />
    <glyph glyph-name="aacute" unicode="&#xe1;" horiz-adv-x="512" 
d="M208 544l64 160h96l-96 -160h-64zM448 0h-80l-8 62q-58 -70 -147 -70q-71 0 -118 46t-47 113q0 50 27 85.5t70 50.5t97 11t107 -28q-6 114 -101 114q-56 0 -104 -30l-40 70q63 48 148 48q94 0 145 -56t51 -190v-226zM352 191q-37 19 -85 24t-85.5 -11.5t-37.5 -55.5
q0 -27 22 -47.5t56 -20.5q45 0 84.5 33.5t45.5 77.5z" />
    <glyph glyph-name="acircumflex" unicode="&#xe2;" horiz-adv-x="512" 
d="M312 544l-56 88l-56 -88h-72l96 144h64l96 -144h-72zM448 0h-80l-8 62q-58 -70 -147 -70q-71 0 -118 46t-47 113q0 50 27 85.5t70 50.5t97 11t107 -28q-6 114 -101 114q-56 0 -104 -30l-40 70q63 48 148 48q94 0 145 -56t51 -190v-226zM352 191q-37 19 -85 24
t-85.5 -11.5t-37.5 -55.5q0 -27 22 -47.5t56 -20.5q45 0 84.5 33.5t45.5 77.5z" />
    <glyph glyph-name="atilde" unicode="&#xe3;" horiz-adv-x="512" 
d="M379 640l45 -40q-36 -56 -94 -56q-36 0 -68 14q-49 23 -80.5 20.5t-48.5 -34.5l-45 40q36 56 94 56q38 0 68 -13q47 -23 79 -22t50 35zM448 0h-80l-8 62q-58 -70 -147 -70q-71 0 -118 46t-47 113q0 50 27 85.5t70 50.5t97 11t107 -28q-6 114 -101 114q-56 0 -104 -30
l-40 70q63 48 148 48q94 0 145 -56t51 -190v-226zM352 191q-37 19 -85 24t-85.5 -11.5t-37.5 -55.5q0 -27 22 -47.5t56 -20.5q45 0 84.5 33.5t45.5 77.5z" />
    <glyph glyph-name="adieresis" unicode="&#xe4;" horiz-adv-x="512" 
d="M168 544q-23 0 -39.5 16.5t-16.5 39.5q0 24 16.5 40t39.5 16q24 0 40 -16t16 -40q0 -23 -16 -39.5t-40 -16.5zM344 544q-23 0 -39.5 16.5t-16.5 39.5q0 24 16.5 40t39.5 16q24 0 40 -16t16 -40q0 -23 -16 -39.5t-40 -16.5zM448 0h-80l-8 62q-58 -70 -147 -70
q-71 0 -118 46t-47 113q0 50 27 85.5t70 50.5t97 11t107 -28q-6 114 -101 114q-56 0 -104 -30l-40 70q63 48 148 48q94 0 145 -56t51 -190v-226zM352 191q-37 19 -85 24t-85.5 -11.5t-37.5 -55.5q0 -27 22 -47.5t56 -20.5q45 0 84.5 33.5t45.5 77.5z" />
    <glyph glyph-name="aring" unicode="&#xe5;" horiz-adv-x="512" 
d="M256 736q46 0 79 -33t33 -79t-33 -79t-79 -33t-79 33t-33 79t33 79t79 33zM256 568q23 0 39.5 16.5t16.5 39.5t-16.5 39.5t-39.5 16.5t-39.5 -16.5t-16.5 -39.5t16.5 -39.5t39.5 -16.5zM448 0h-80l-8 62q-58 -70 -147 -70q-71 0 -118 46t-47 113q0 50 27 85.5t70 50.5
t97 11t107 -28q-6 114 -101 114q-56 0 -104 -30l-40 70q63 48 148 48q94 0 145 -56t51 -190v-226zM352 191q-37 19 -85 24t-85.5 -11.5t-37.5 -55.5q0 -27 22 -47.5t56 -20.5q45 0 84.5 33.5t45.5 77.5z" />
    <glyph glyph-name="ae" unicode="&#xe6;" horiz-adv-x="832" 
d="M784 238q0 -27 -4 -46h-328q12 -49 47 -80.5t85 -31.5q62 0 100 42l68 -56q-61 -74 -168 -74q-118 0 -185 92q-68 -92 -178 -92q-76 0 -124.5 45.5t-48.5 113.5q0 50 27 85.5t70 50.5t97 11t107 -28q-6 114 -101 114q-56 0 -104 -30l-40 70q63 48 148 48q110 0 157 -73
q63 73 165 73q90 0 150 -64.5t60 -169.5zM574 384q-46 0 -77.5 -28.5t-42.5 -75.5h230q-3 45 -33 74.5t-77 29.5zM222 80q47 0 85.5 31t44.5 80q-37 19 -85 24t-85.5 -11.5t-37.5 -55.5q0 -27 22 -47.5t56 -20.5z" />
    <glyph glyph-name="ccedilla" unicode="&#xe7;" horiz-adv-x="496" 
d="M280 80q62 0 100 42l68 -56q-56 -67 -147 -73v-41q15 -2 31.5 -8.5t34.5 -20t29.5 -37t11.5 -54.5q0 -60 -40 -98t-96 -38q-43 0 -74 18t-46 45l48 45q18 -44 72 -44q35 0 57.5 20t22.5 53q0 45 -34.5 65.5t-80.5 13.5v84q-82 15 -135.5 81.5t-53.5 154.5q0 100 67 170
t165 70q106 0 168 -74l-68 -56q-38 42 -100 42q-58 0 -97 -45t-39 -107t39 -107t97 -45z" />
    <glyph glyph-name="egrave" unicode="&#xe8;" horiz-adv-x="528" 
d="M320 544h-64l-96 160h96zM480 238q0 -27 -4 -46h-328q12 -49 47 -80.5t85 -31.5q62 0 100 42l68 -56q-61 -74 -168 -74q-101 0 -166.5 69.5t-65.5 170.5q0 102 60.5 171t161.5 69q90 0 150 -64.5t60 -169.5zM270 384q-46 0 -77.5 -28.5t-42.5 -75.5h230q-3 45 -33 74.5
t-77 29.5z" />
    <glyph glyph-name="eacute" unicode="&#xe9;" horiz-adv-x="528" 
d="M376 704l-96 -160h-64l64 160h96zM480 238q0 -27 -4 -46h-328q12 -49 47 -80.5t85 -31.5q62 0 100 42l68 -56q-61 -74 -168 -74q-101 0 -166.5 69.5t-65.5 170.5q0 102 60.5 171t161.5 69q90 0 150 -64.5t60 -169.5zM270 384q-46 0 -77.5 -28.5t-42.5 -75.5h230
q-3 45 -33 74.5t-77 29.5z" />
    <glyph glyph-name="ecircumflex" unicode="&#xea;" horiz-adv-x="528" 
d="M264 632l-56 -88h-72l96 144h64l96 -144h-72zM480 238q0 -27 -4 -46h-328q12 -49 47 -80.5t85 -31.5q62 0 100 42l68 -56q-61 -74 -168 -74q-101 0 -166.5 69.5t-65.5 170.5q0 102 60.5 171t161.5 69q90 0 150 -64.5t60 -169.5zM270 384q-46 0 -77.5 -28.5t-42.5 -75.5
h230q-3 45 -33 74.5t-77 29.5z" />
    <glyph glyph-name="edieresis" unicode="&#xeb;" horiz-adv-x="528" 
d="M176 544q-23 0 -39.5 16.5t-16.5 39.5q0 24 16.5 40t39.5 16q24 0 40 -16t16 -40q0 -23 -16 -39.5t-40 -16.5zM352 544q-23 0 -39.5 16.5t-16.5 39.5q0 24 16.5 40t39.5 16q24 0 40 -16t16 -40q0 -23 -16 -39.5t-40 -16.5zM480 238q0 -27 -4 -46h-328q12 -49 47 -80.5
t85 -31.5q62 0 100 42l68 -56q-61 -74 -168 -74q-101 0 -166.5 69.5t-65.5 170.5q0 102 60.5 171t161.5 69q90 0 150 -64.5t60 -169.5zM270 384q-46 0 -77.5 -28.5t-42.5 -75.5h230q-3 45 -33 74.5t-77 29.5z" />
    <glyph glyph-name="igrave" unicode="&#xec;" horiz-adv-x="256" 
d="M176 544h-64l-96 160h96zM80 0v464h96v-464h-96z" />
    <glyph glyph-name="iacute" unicode="&#xed;" horiz-adv-x="256" 
d="M80 544l64 160h96l-96 -160h-64zM80 0v464h96v-464h-96z" />
    <glyph glyph-name="icircumflex" unicode="&#xee;" horiz-adv-x="256" 
d="M184 544l-56 88l-56 -88h-72l96 144h64l96 -144h-72zM80 0v464h96v-464h-96z" />
    <glyph glyph-name="idieresis" unicode="&#xef;" horiz-adv-x="256" 
d="M40 544q-23 0 -39.5 16.5t-16.5 39.5q0 24 16.5 40t39.5 16q24 0 40 -16t16 -40q0 -23 -16 -39.5t-40 -16.5zM216 544q-23 0 -39.5 16.5t-16.5 39.5q0 24 16.5 40t39.5 16q24 0 40 -16t16 -40q0 -23 -16 -39.5t-40 -16.5zM80 0v464h96v-464h-96z" />
    <glyph glyph-name="eth" unicode="&#xf0;" 
d="M429 414q67 -81 67 -182t-62 -170.5t-162 -69.5t-162 69.5t-62 170.5q0 99 60 167t160 73l-74 84l-61 -52l-31 37l61 52l-60 68l70 59l58 -69l62 53l31 -37l-62 -53zM272 80q57 0 92.5 44.5t35.5 107.5t-35.5 107.5t-92.5 44.5t-92.5 -44.5t-35.5 -107.5t35.5 -107.5
t92.5 -44.5z" />
    <glyph glyph-name="ntilde" unicode="&#xf1;" 
d="M395 640l45 -40q-36 -56 -94 -56q-36 0 -68 14q-49 23 -80.5 20.5t-48.5 -34.5l-45 40q36 56 94 56q38 0 68 -13q47 -23 79 -22t50 35zM302 472q86 0 132 -57t46 -163v-252h-96v252q0 66 -23 99t-77 33q-45 0 -76.5 -39.5t-31.5 -104.5v-240h-96v464h96v-64q41 72 126 72
z" />
    <glyph glyph-name="ograve" unicode="&#xf2;" 
d="M320 544h-64l-96 160h96zM272 472q100 0 162 -69.5t62 -170.5t-62 -170.5t-162 -69.5t-162 69.5t-62 170.5t62 170.5t162 69.5zM272 80q57 0 92.5 44.5t35.5 107.5t-35.5 107.5t-92.5 44.5t-92.5 -44.5t-35.5 -107.5t35.5 -107.5t92.5 -44.5z" />
    <glyph glyph-name="oacute" unicode="&#xf3;" 
d="M224 544l64 160h96l-96 -160h-64zM272 472q100 0 162 -69.5t62 -170.5t-62 -170.5t-162 -69.5t-162 69.5t-62 170.5t62 170.5t162 69.5zM272 80q57 0 92.5 44.5t35.5 107.5t-35.5 107.5t-92.5 44.5t-92.5 -44.5t-35.5 -107.5t35.5 -107.5t92.5 -44.5z" />
    <glyph glyph-name="ocircumflex" unicode="&#xf4;" 
d="M328 544l-56 88l-56 -88h-72l96 144h64l96 -144h-72zM272 472q100 0 162 -69.5t62 -170.5t-62 -170.5t-162 -69.5t-162 69.5t-62 170.5t62 170.5t162 69.5zM272 80q57 0 92.5 44.5t35.5 107.5t-35.5 107.5t-92.5 44.5t-92.5 -44.5t-35.5 -107.5t35.5 -107.5t92.5 -44.5z
" />
    <glyph glyph-name="otilde" unicode="&#xf5;" 
d="M395 640l45 -40q-36 -56 -94 -56q-36 0 -68 14q-49 23 -80.5 20.5t-48.5 -34.5l-45 40q36 56 94 56q38 0 68 -13q47 -23 79 -22t50 35zM272 472q100 0 162 -69.5t62 -170.5t-62 -170.5t-162 -69.5t-162 69.5t-62 170.5t62 170.5t162 69.5zM272 80q57 0 92.5 44.5
t35.5 107.5t-35.5 107.5t-92.5 44.5t-92.5 -44.5t-35.5 -107.5t35.5 -107.5t92.5 -44.5z" />
    <glyph glyph-name="odieresis" unicode="&#xf6;" 
d="M184 544q-23 0 -39.5 16.5t-16.5 39.5q0 24 16.5 40t39.5 16q24 0 40 -16t16 -40q0 -23 -16 -39.5t-40 -16.5zM360 544q-23 0 -39.5 16.5t-16.5 39.5q0 24 16.5 40t39.5 16q24 0 40 -16t16 -40q0 -23 -16 -39.5t-40 -16.5zM272 472q100 0 162 -69.5t62 -170.5t-62 -170.5
t-162 -69.5t-162 69.5t-62 170.5t62 170.5t162 69.5zM272 80q57 0 92.5 44.5t35.5 107.5t-35.5 107.5t-92.5 44.5t-92.5 -44.5t-35.5 -107.5t35.5 -107.5t92.5 -44.5z" />
    <glyph glyph-name="divide" unicode="&#xf7;" horiz-adv-x="480" 
d="M240 480q-30 0 -51 21t-21 51q0 31 21 51.5t51 20.5q31 0 51.5 -20.5t20.5 -51.5q0 -30 -20.5 -51t-51.5 -21zM64 384h352v-80h-352v80zM240 64q-30 0 -51 21t-21 51q0 31 21 51.5t51 20.5q31 0 51.5 -20.5t20.5 -51.5q0 -30 -20.5 -51t-51.5 -21z" />
    <glyph glyph-name="oslash" unicode="&#xf8;" 
d="M496 432l-45 -51q45 -64 45 -149q0 -101 -62 -170.5t-162 -69.5q-72 0 -127 39l-41 -47l-56 48l45 51q-45 64 -45 149q0 101 62 170.5t162 69.5q72 0 127 -39l41 47zM144 232q0 -40 15 -73l179 205q-28 20 -66 20q-57 0 -92.5 -44.5t-35.5 -107.5zM400 232q0 40 -15 73
l-179 -205q28 -20 66 -20q57 0 92.5 44.5t35.5 107.5z" />
    <glyph glyph-name="ugrave" unicode="&#xf9;" 
d="M318 544h-64l-96 160h96zM242 -8q-86 0 -132 57t-46 163v252h96v-260q0 -124 100 -124q46 0 77 40.5t31 111.5v232h96v-464h-96v64q-41 -72 -126 -72z" />
    <glyph glyph-name="uacute" unicode="&#xfa;" 
d="M222 544l64 160h96l-96 -160h-64zM242 -8q-86 0 -132 57t-46 163v252h96v-260q0 -124 100 -124q46 0 77 40.5t31 111.5v232h96v-464h-96v64q-41 -72 -126 -72z" />
    <glyph glyph-name="ucircumflex" unicode="&#xfb;" 
d="M320 544l-56 88l-56 -88h-72l96 144h64l96 -144h-72zM242 -8q-86 0 -132 57t-46 163v252h96v-260q0 -124 100 -124q46 0 77 40.5t31 111.5v232h96v-464h-96v64q-41 -72 -126 -72z" />
    <glyph glyph-name="udieresis" unicode="&#xfc;" 
d="M176 544q-23 0 -39.5 16.5t-16.5 39.5q0 24 16.5 40t39.5 16q24 0 40 -16t16 -40q0 -23 -16 -39.5t-40 -16.5zM352 544q-23 0 -39.5 16.5t-16.5 39.5q0 24 16.5 40t39.5 16q24 0 40 -16t16 -40q0 -23 -16 -39.5t-40 -16.5zM242 -8q-86 0 -132 57t-46 163v252h96v-260
q0 -124 100 -124q46 0 77 40.5t31 111.5v232h96v-464h-96v64q-41 -72 -126 -72z" />
    <glyph glyph-name="yacute" unicode="&#xfd;" horiz-adv-x="464" 
d="M182 544l64 160h96l-96 -160h-64zM344 464h104l-263 -704h-102l100 263l-167 441h104l112 -314z" />
    <glyph glyph-name="thorn" unicode="&#xfe;" horiz-adv-x="576" 
d="M176 720v-318q21 31 59 50.5t83 19.5q90 0 150 -70t60 -170t-60 -170t-150 -70q-45 0 -83 19.5t-59 50.5v-302h-96v960h96zM304 80q56 0 92 44t36 108t-36 108t-92 44t-92 -44t-36 -108t36 -108t92 -44z" />
    <glyph glyph-name="ydieresis" unicode="&#xff;" horiz-adv-x="464" 
d="M144 544q-23 0 -39.5 16.5t-16.5 39.5q0 24 16.5 40t39.5 16q24 0 40 -16t16 -40q0 -23 -16 -39.5t-40 -16.5zM320 544q-23 0 -39.5 16.5t-16.5 39.5q0 24 16.5 40t39.5 16q24 0 40 -16t16 -40q0 -23 -16 -39.5t-40 -16.5zM344 464h104l-263 -704h-102l100 263l-167 441
h104l112 -314z" />
    <glyph glyph-name="Amacron" unicode="&#x100;" horiz-adv-x="608" 
d="M416 864v-64h-224v64h224zM484 0l-44 132h-272l-44 -132h-108l248 704h80l248 -704h-108zM197 220h214l-107 320z" />
    <glyph glyph-name="amacron" unicode="&#x101;" horiz-adv-x="512" 
d="M368 560h-224v64h224v-64zM448 0h-80l-8 62q-58 -70 -147 -70q-71 0 -118 46t-47 113q0 50 27 85.5t70 50.5t97 11t107 -28q-6 114 -101 114q-56 0 -104 -30l-40 70q63 48 148 48q94 0 145 -56t51 -190v-226zM352 191q-37 19 -85 24t-85.5 -11.5t-37.5 -55.5
q0 -27 22 -47.5t56 -20.5q45 0 84.5 33.5t45.5 77.5z" />
    <glyph glyph-name="Abreve" unicode="&#x102;" horiz-adv-x="608" 
d="M304 784q-53 0 -90.5 37.5t-37.5 90.5h56q0 -30 21 -51t51 -21t51 21t21 51h56q0 -53 -37.5 -90.5t-90.5 -37.5zM484 0l-44 132h-272l-44 -132h-108l248 704h80l248 -704h-108zM197 220h214l-107 320z" />
    <glyph glyph-name="abreve" unicode="&#x103;" horiz-adv-x="512" 
d="M328 672h56q0 -53 -37.5 -90.5t-90.5 -37.5t-90.5 37.5t-37.5 90.5h56q0 -30 21 -51t51 -21t51 21t21 51zM448 0h-80l-8 62q-58 -70 -147 -70q-71 0 -118 46t-47 113q0 50 27 85.5t70 50.5t97 11t107 -28q-6 114 -101 114q-56 0 -104 -30l-40 70q63 48 148 48
q94 0 145 -56t51 -190v-226zM352 191q-37 19 -85 24t-85.5 -11.5t-37.5 -55.5q0 -27 22 -47.5t56 -20.5q45 0 84.5 33.5t45.5 77.5z" />
    <glyph glyph-name="Aogonek" unicode="&#x104;" horiz-adv-x="608" 
d="M632 -126l24 -50q-12 -13 -37 -22.5t-45 -9.5q-53 0 -85.5 35t-32.5 89q0 51 28 84l-44 132h-272l-44 -132h-108l248 704h80l248 -704h-4q-26 0 -51 -22.5t-25 -61.5q0 -34 21.5 -53t50 -15.5t48.5 26.5zM197 220h214l-107 320z" />
    <glyph glyph-name="aogonek" unicode="&#x105;" horiz-adv-x="512" 
d="M488 -126l24 -50q-12 -13 -37 -22.5t-45 -9.5q-53 0 -85.5 35t-32.5 89q0 69 53 106l-5 40q-58 -70 -147 -70q-71 0 -118 46t-47 113q0 50 27 85.5t70 50.5t97 11t107 -28q-6 114 -101 114q-56 0 -104 -30l-40 70q63 48 148 48q94 0 145 -56t51 -190v-226
q-30 0 -55 -22.5t-25 -61.5q0 -34 21.5 -53t50 -15.5t48.5 26.5zM222 80q45 0 84.5 33.5t45.5 77.5q-37 19 -85 24t-85.5 -11.5t-37.5 -55.5q0 -27 22 -47.5t56 -20.5z" />
    <glyph glyph-name="Cacute" unicode="&#x106;" horiz-adv-x="624" 
d="M288 784l64 160h96l-96 -160h-64zM352 80q107 0 168 118l72 -55q-37 -71 -99 -111t-141 -40q-136 0 -220 103.5t-84 256.5t84 256.5t220 103.5q79 0 141 -40t99 -111l-72 -55q-61 118 -168 118q-90 0 -149 -78.5t-59 -193.5t59 -193.5t149 -78.5z" />
    <glyph glyph-name="cacute" unicode="&#x107;" horiz-adv-x="496" 
d="M224 544l64 160h96l-96 -160h-64zM280 80q62 0 100 42l68 -56q-62 -74 -168 -74q-98 0 -165 70t-67 170t67 170t165 70q106 0 168 -74l-68 -56q-38 42 -100 42q-58 0 -97 -45t-39 -107t39 -107t97 -45z" />
    <glyph glyph-name="Cdotaccent" unicode="&#x10a;" horiz-adv-x="624" 
d="M344 768q-30 0 -51 21t-21 51t21 51t51 21t51 -21t21 -51t-21 -51t-51 -21zM352 80q107 0 168 118l72 -55q-37 -71 -99 -111t-141 -40q-136 0 -220 103.5t-84 256.5t84 256.5t220 103.5q79 0 141 -40t99 -111l-72 -55q-61 118 -168 118q-90 0 -149 -78.5t-59 -193.5
t59 -193.5t149 -78.5z" />
    <glyph glyph-name="cdotaccent" unicode="&#x10b;" horiz-adv-x="496" 
d="M272 528q-30 0 -51 21t-21 51t21 51t51 21t51 -21t21 -51t-21 -51t-51 -21zM280 80q62 0 100 42l68 -56q-62 -74 -168 -74q-98 0 -165 70t-67 170t67 170t165 70q106 0 168 -74l-68 -56q-38 42 -100 42q-58 0 -97 -45t-39 -107t39 -107t97 -45z" />
    <glyph glyph-name="Ccaron" unicode="&#x10c;" horiz-adv-x="624" 
d="M400 928h72l-96 -144h-64l-96 144h72l56 -88zM352 80q107 0 168 118l72 -55q-37 -71 -99 -111t-141 -40q-136 0 -220 103.5t-84 256.5t84 256.5t220 103.5q79 0 141 -40t99 -111l-72 -55q-61 118 -168 118q-90 0 -149 -78.5t-59 -193.5t59 -193.5t149 -78.5z" />
    <glyph glyph-name="ccaron" unicode="&#x10d;" horiz-adv-x="496" 
d="M328 688h72l-96 -144h-64l-96 144h72l56 -88zM280 80q62 0 100 42l68 -56q-62 -74 -168 -74q-98 0 -165 70t-67 170t67 170t165 70q106 0 168 -74l-68 -56q-38 42 -100 42q-58 0 -97 -45t-39 -107t39 -107t97 -45z" />
    <glyph glyph-name="Dcaron" unicode="&#x10e;" horiz-adv-x="624" 
d="M344 928h72l-96 -144h-64l-96 144h72l56 -88zM217 704q169 0 264 -99.5t95 -252.5q0 -152 -96 -252t-263 -100h-137v704h137zM232 88q106 0 177 77t71 187t-71 187t-177 77h-56v-528h56z" />
    <glyph glyph-name="dcaron" unicode="&#x10f;" horiz-adv-x="688" 
d="M400 720h96v-720h-96v62q-21 -31 -59 -50.5t-83 -19.5q-90 0 -150 70t-60 170t60 170t150 70q45 0 83 -19.5t59 -50.5v318zM560 560v144h96l-32 -144h-64zM272 80q56 0 92 44t36 108t-36 108t-92 44t-92 -44t-36 -108t36 -108t92 -44z" />
    <glyph glyph-name="Dcroat" unicode="&#x110;" horiz-adv-x="624" 
d="M217 704q169 0 264 -99.5t95 -252.5q0 -152 -96 -252t-263 -100h-137v320h-48v64h48v320h137zM232 88q106 0 177 77t71 187t-71 187t-177 77h-56v-232h96v-64h-96v-232h56z" />
    <glyph glyph-name="dcroat" unicode="&#x111;" horiz-adv-x="576" 
d="M560 608v-48h-64v-560h-96v62q-21 -31 -59 -50.5t-83 -19.5q-90 0 -150 70t-60 170t60 170t150 70q45 0 83 -19.5t59 -50.5v158h-80v48h80v112h96v-112h64zM272 80q56 0 92 44t36 108t-36 108t-92 44t-92 -44t-36 -108t36 -108t92 -44z" />
    <glyph glyph-name="Emacron" unicode="&#x112;" horiz-adv-x="512" 
d="M368 800h-224v64h224v-64zM448 616h-272v-220h208v-88h-208v-220h272v-88h-368v704h368v-88z" />
    <glyph glyph-name="emacron" unicode="&#x113;" horiz-adv-x="528" 
d="M376 624v-64h-224v64h224zM480 238q0 -27 -4 -46h-328q12 -49 47 -80.5t85 -31.5q62 0 100 42l68 -56q-61 -74 -168 -74q-101 0 -166.5 69.5t-65.5 170.5q0 102 60.5 171t161.5 69q90 0 150 -64.5t60 -169.5zM270 384q-46 0 -77.5 -28.5t-42.5 -75.5h230q-3 45 -33 74.5
t-77 29.5z" />
    <glyph glyph-name="Edotaccent" unicode="&#x116;" horiz-adv-x="512" 
d="M256 768q-30 0 -51 21t-21 51t21 51t51 21t51 -21t21 -51t-21 -51t-51 -21zM448 616h-272v-220h208v-88h-208v-220h272v-88h-368v704h368v-88z" />
    <glyph glyph-name="edotaccent" unicode="&#x117;" horiz-adv-x="528" 
d="M264 528q-30 0 -51 21t-21 51t21 51t51 21t51 -21t21 -51t-21 -51t-51 -21zM480 238q0 -27 -4 -46h-328q12 -49 47 -80.5t85 -31.5q62 0 100 42l68 -56q-61 -74 -168 -74q-101 0 -166.5 69.5t-65.5 170.5q0 102 60.5 171t161.5 69q90 0 150 -64.5t60 -169.5zM270 384
q-46 0 -77.5 -28.5t-42.5 -75.5h230q-3 45 -33 74.5t-77 29.5z" />
    <glyph glyph-name="Eogonek" unicode="&#x118;" horiz-adv-x="512" 
d="M488 -126l24 -50q-12 -13 -37 -22.5t-45 -9.5q-53 0 -85.5 35t-32.5 89q0 52 32 84h-264v704h368v-88h-272v-220h208v-88h-208v-220h272v-88q-30 0 -55 -22.5t-25 -61.5q0 -34 21.5 -53t50 -15.5t48.5 26.5z" />
    <glyph glyph-name="eogonek" unicode="&#x119;" horiz-adv-x="528" 
d="M480 238q0 -27 -4 -46h-328q12 -49 47 -80.5t85 -31.5q62 0 100 42l68 -56q-51 -63 -141 -73q-19 -8 -31 -28.5t-12 -48.5q0 -34 21.5 -53t50 -15.5t48.5 26.5l24 -50q-12 -13 -37 -22.5t-45 -9.5q-53 0 -85.5 35t-32.5 89q0 45 28 80q-83 15 -135.5 81.5t-52.5 154.5
q0 102 60.5 171t161.5 69q90 0 150 -64.5t60 -169.5zM270 384q-46 0 -77.5 -28.5t-42.5 -75.5h230q-3 45 -33 74.5t-77 29.5z" />
    <glyph glyph-name="Ecaron" unicode="&#x11a;" horiz-adv-x="512" 
d="M312 928h72l-96 -144h-64l-96 144h72l56 -88zM448 616h-272v-220h208v-88h-208v-220h272v-88h-368v704h368v-88z" />
    <glyph glyph-name="ecaron" unicode="&#x11b;" horiz-adv-x="528" 
d="M296 544h-64l-96 144h72l56 -88l56 88h72zM480 238q0 -27 -4 -46h-328q12 -49 47 -80.5t85 -31.5q62 0 100 42l68 -56q-61 -74 -168 -74q-101 0 -166.5 69.5t-65.5 170.5q0 102 60.5 171t161.5 69q90 0 150 -64.5t60 -169.5zM270 384q-46 0 -77.5 -28.5t-42.5 -75.5h230
q-3 45 -33 74.5t-77 29.5z" />
    <glyph glyph-name="Gbreve" unicode="&#x11e;" horiz-adv-x="672" 
d="M424 912h56q0 -53 -37.5 -90.5t-90.5 -37.5t-90.5 37.5t-37.5 90.5h56q0 -30 21 -51t51 -21t51 21t21 51zM624 352v-352h-88l-6 87q-64 -95 -178 -95q-136 0 -220 103.5t-84 256.5t84 256.5t220 103.5q79 0 141 -40t99 -111l-72 -55q-61 118 -168 118q-90 0 -149 -78.5
t-59 -193.5t59 -193.5t149 -78.5q80 0 124 53.5t51 130.5h-191v88h288z" />
    <glyph glyph-name="gbreve" unicode="&#x11f;" horiz-adv-x="520" 
d="M256 544q-53 0 -90.5 37.5t-37.5 90.5h56q0 -30 21 -51t51 -21t51 21t21 51h56q0 -53 -37.5 -90.5t-90.5 -37.5zM264 70q102 -4 159 -38t57 -118q0 -71 -61 -116.5t-163 -45.5q-106 0 -165 45t-59 117q0 94 75 145q-8 10 -12.5 30.5t0 50.5t22.5 53q-45 45 -45 112
q0 70 51.5 118.5t132.5 48.5q64 0 111 -33l64 57l57 -62l-64 -59q16 -34 16 -70q0 -70 -53.5 -117.5t-130.5 -47.5q-34 0 -63 9q-9 -18 -9 -34.5t21 -29.5t59 -15zM256 384q-36 0 -62 -23t-26 -54q0 -33 25.5 -56t62.5 -23t62.5 23t25.5 56q0 31 -26 54t-62 23zM256 -160
q60 0 94 20.5t34 50.5q0 69 -112 71q-62 2 -99 17q-23 -15 -34 -31t-11 -43q0 -85 128 -85z" />
    <glyph glyph-name="Gdotaccent" unicode="&#x120;" horiz-adv-x="672" 
d="M352 768q-30 0 -51 21t-21 51t21 51t51 21t51 -21t21 -51t-21 -51t-51 -21zM624 352v-352h-88l-6 87q-64 -95 -178 -95q-136 0 -220 103.5t-84 256.5t84 256.5t220 103.5q79 0 141 -40t99 -111l-72 -55q-61 118 -168 118q-90 0 -149 -78.5t-59 -193.5t59 -193.5
t149 -78.5q80 0 124 53.5t51 130.5h-191v88h288z" />
    <glyph glyph-name="gdotaccent" unicode="&#x121;" horiz-adv-x="520" 
d="M254 528q-30 0 -51 21t-21 51t21 51t51 21t51 -21t21 -51t-21 -51t-51 -21zM264 70q102 -4 159 -38t57 -118q0 -71 -61 -116.5t-163 -45.5q-106 0 -165 45t-59 117q0 94 75 145q-8 10 -12.5 30.5t0 50.5t22.5 53q-45 45 -45 112q0 70 51.5 118.5t132.5 48.5q64 0 111 -33
l64 57l57 -62l-64 -59q16 -34 16 -70q0 -70 -53.5 -117.5t-130.5 -47.5q-34 0 -63 9q-9 -18 -9 -34.5t21 -29.5t59 -15zM256 384q-36 0 -62 -23t-26 -54q0 -33 25.5 -56t62.5 -23t62.5 23t25.5 56q0 31 -26 54t-62 23zM256 -160q60 0 94 20.5t34 50.5q0 69 -112 71
q-62 2 -99 17q-23 -15 -34 -31t-11 -43q0 -85 128 -85z" />
    <glyph glyph-name="Gcommaaccent" unicode="&#x122;" horiz-adv-x="672" 
d="M624 352v-352h-88l-6 87q-64 -95 -178 -95q-136 0 -220 103.5t-84 256.5t84 256.5t220 103.5q79 0 141 -40t99 -111l-72 -55q-61 118 -168 118q-90 0 -149 -78.5t-59 -193.5t59 -193.5t149 -78.5q80 0 124 53.5t51 130.5h-191v88h288zM304 -208v144h96l-32 -144h-64z" />
    <glyph glyph-name="gcommaaccent" unicode="&#x123;" horiz-adv-x="520" 
d="M304 688v-144h-96l32 144h64zM264 70q102 -4 159 -38t57 -118q0 -71 -61 -116.5t-163 -45.5q-106 0 -165 45t-59 117q0 94 75 145q-8 10 -12.5 30.5t0 50.5t22.5 53q-45 45 -45 112q0 70 51.5 118.5t132.5 48.5q64 0 111 -33l64 57l57 -62l-64 -59q16 -34 16 -70
q0 -70 -53.5 -117.5t-130.5 -47.5q-34 0 -63 9q-9 -18 -9 -34.5t21 -29.5t59 -15zM256 384q-36 0 -62 -23t-26 -54q0 -33 25.5 -56t62.5 -23t62.5 23t25.5 56q0 31 -26 54t-62 23zM256 -160q60 0 94 20.5t34 50.5q0 69 -112 71q-62 2 -99 17q-23 -15 -34 -31t-11 -43
q0 -85 128 -85z" />
    <glyph glyph-name="Hbar" unicode="&#x126;" horiz-adv-x="608" 
d="M576 560v-48h-48v-512h-96v308h-256v-308h-96v512h-48v48h48v144h96v-144h256v144h96v-144h48zM432 396v116h-256v-116h256z" />
    <glyph glyph-name="hbar" unicode="&#x127;" 
d="M302 472q86 0 132 -57t46 -163v-252h-96v252q0 66 -23 99t-77 33q-45 0 -76.5 -38t-31.5 -98v-248h-96v560h-64v48h64v112h96v-112h96v-48h-96v-152q13 25 46.5 44.5t79.5 19.5z" />
    <glyph glyph-name="Imacron" unicode="&#x12a;" horiz-adv-x="256" 
d="M240 800h-224v64h224v-64zM176 0h-96v704h96v-704z" />
    <glyph glyph-name="imacron" unicode="&#x12b;" horiz-adv-x="256" 
d="M240 560h-224v64h224v-64zM80 0v464h96v-464h-96z" />
    <glyph glyph-name="Iogonek" unicode="&#x12e;" horiz-adv-x="256" 
d="M216 -126l24 -50q-12 -13 -37 -22.5t-45 -9.5q-53 0 -85.5 35t-32.5 89q0 55 40 92v696h96v-704q-30 0 -55 -22.5t-25 -61.5q0 -34 21.5 -53t50 -15.5t48.5 26.5z" />
    <glyph glyph-name="iogonek" unicode="&#x12f;" horiz-adv-x="256" 
d="M128 560q-30 0 -51 21t-21 51t21 51t51 21t51 -21t21 -51t-21 -51t-51 -21zM192 -142l16 -50q-22 -16 -54 -16q-52 0 -83 35t-31 89t40 92v456h96v-464q-28 0 -54 -26t-26 -58q0 -45 31 -61t65 3z" />
    <glyph glyph-name="Idotaccent" unicode="&#x130;" horiz-adv-x="256" 
d="M128 768q-30 0 -51 21t-21 51t21 51t51 21t51 -21t21 -51t-21 -51t-51 -21zM176 0h-96v704h96v-704z" />
    <glyph glyph-name="dotlessi" unicode="&#x131;" horiz-adv-x="256" 
d="M80 0v464h96v-464h-96z" />
    <glyph glyph-name="IJ" unicode="&#x132;" horiz-adv-x="704" 
d="M176 0h-96v704h96v-704zM544 704h96v-496q0 -111 -55 -163.5t-137 -52.5q-47 0 -85 17.5t-59 44.5l60 64q36 -38 84 -38q37 0 66.5 30t29.5 90v504z" />
    <glyph glyph-name="ij" unicode="&#x133;" horiz-adv-x="504" 
d="M128 704q30 0 51 -21t21 -51t-21 -51t-51 -21t-51 21t-21 51t21 51t51 21zM376 704q30 0 51 -21t21 -51t-21 -51t-51 -21t-51 21t-21 51t21 51t51 21zM80 0v464h96v-464h-96zM328 -20v484h96v-492q0 -65 -18.5 -111.5t-48 -68.5t-56.5 -31t-53 -9l-16 88q41 3 68.5 37
t27.5 103z" />
    <glyph glyph-name="Kcommaaccent" unicode="&#x136;" horiz-adv-x="560" 
d="M289 386l239 -386h-120l-179 300l-53 -76v-224h-96v704h96v-332l224 332h112zM224 -208v144h96l-32 -144h-64z" />
    <glyph glyph-name="kcommaaccent" unicode="&#x137;" horiz-adv-x="496" 
d="M272 260l208 -260h-120l-150 195l-34 -36v-159h-96v720h96v-444l168 188h120zM208 -208v144h96l-32 -144h-64z" />
    <glyph glyph-name="Lacute" unicode="&#x139;" horiz-adv-x="480" 
d="M80 784l64 160h96l-96 -160h-64zM176 88h256v-88h-352v704h96v-616z" />
    <glyph glyph-name="lacute" unicode="&#x13a;" horiz-adv-x="256" 
d="M80 800l64 160h96l-96 -160h-64zM80 720h96v-720h-96v720z" />
    <glyph glyph-name="Lcommaaccent" unicode="&#x13b;" horiz-adv-x="480" 
d="M176 88h256v-88h-352v704h96v-616zM208 -208v144h96l-32 -144h-64z" />
    <glyph glyph-name="lcommaaccent" unicode="&#x13c;" horiz-adv-x="256" 
d="M80 720h96v-720h-96v720zM80 -208v144h96l-32 -144h-64z" />
    <glyph glyph-name="Lcaron" unicode="&#x13d;" horiz-adv-x="480" 
d="M176 88h256v-88h-352v704h96v-616zM336 560v144h96l-32 -144h-64z" />
    <glyph glyph-name="lcaron" unicode="&#x13e;" horiz-adv-x="352" 
d="M80 720h96v-720h-96v720zM224 560v144h96l-32 -144h-64z" />
    <glyph glyph-name="Ldot" unicode="&#x13f;" horiz-adv-x="480" 
d="M176 88h256v-88h-352v704h96v-616zM376 304q-30 0 -51 21t-21 51q0 31 21 51.5t51 20.5q31 0 51.5 -20.5t20.5 -51.5q0 -30 -20.5 -51t-51.5 -21z" />
    <glyph glyph-name="ldot" unicode="&#x140;" horiz-adv-x="400" 
d="M80 720h96v-720h-96v720zM296 304q-31 0 -51.5 21t-20.5 51q0 31 20.5 51.5t51.5 20.5t51.5 -20.5t20.5 -51.5q0 -30 -20.5 -51t-51.5 -21z" />
    <glyph glyph-name="Lslash" unicode="&#x141;" horiz-adv-x="480" 
d="M176 88h256v-88h-352v318l-64 -16v48l64 16v338h96v-314l65 16v-48l-65 -16v-254z" />
    <glyph glyph-name="lslash" unicode="&#x142;" horiz-adv-x="256" 
d="M241 420v-48l-65 -16v-356h-96v332l-64 -16v48l64 16v340h96v-316z" />
    <glyph glyph-name="Nacute" unicode="&#x143;" horiz-adv-x="656" 
d="M272 784l64 160h96l-96 -160h-64zM576 0h-80l-320 510v-510h-96v704h80l320 -510v510h96v-704z" />
    <glyph glyph-name="nacute" unicode="&#x144;" 
d="M224 544l64 160h96l-96 -160h-64zM302 472q86 0 132 -57t46 -163v-252h-96v252q0 66 -23 99t-77 33q-45 0 -76.5 -39.5t-31.5 -104.5v-240h-96v464h96v-64q41 72 126 72z" />
    <glyph glyph-name="Ncommaaccent" unicode="&#x145;" horiz-adv-x="656" 
d="M576 0h-80l-320 510v-510h-96v704h80l320 -510v510h96v-704zM280 -208v144h96l-32 -144h-64z" />
    <glyph glyph-name="ncommaaccent" unicode="&#x146;" 
d="M302 472q86 0 132 -57t46 -163v-252h-96v252q0 66 -23 99t-77 33q-45 0 -76.5 -39.5t-31.5 -104.5v-240h-96v464h96v-64q41 72 126 72zM224 -208v144h96l-32 -144h-64z" />
    <glyph glyph-name="Ncaron" unicode="&#x147;" horiz-adv-x="656" 
d="M384 928h72l-96 -144h-64l-96 144h72l56 -88zM576 0h-80l-320 510v-510h-96v704h80l320 -510v510h96v-704z" />
    <glyph glyph-name="ncaron" unicode="&#x148;" 
d="M320 688h72l-96 -144h-64l-96 144h72l56 -88zM302 472q86 0 132 -57t46 -163v-252h-96v252q0 66 -23 99t-77 33q-45 0 -76.5 -39.5t-31.5 -104.5v-240h-96v464h96v-64q41 72 126 72z" />
    <glyph glyph-name="Eng" unicode="&#x14a;" horiz-adv-x="656" 
d="M480 704h96v-706q0 -45 -7 -81.5t-17 -60.5t-27 -43t-30.5 -29t-34 -17.5t-32 -9.5t-28.5 -5l-24 88q49 10 76.5 42t27.5 102v42l-304 484v-510h-96v704h80l320 -510v510z" />
    <glyph glyph-name="eng" unicode="&#x14b;" 
d="M302 472q86 0 132 -57t46 -163v-254q0 -45 -7 -81.5t-17 -60.5t-27 -43t-30.5 -29t-34 -17.5t-32 -9.5t-28.5 -5l-24 88q49 10 76.5 42t27.5 102v268q0 66 -23 99t-77 33q-45 0 -76.5 -39.5t-31.5 -104.5v-240h-96v464h96v-64q41 72 126 72z" />
    <glyph glyph-name="Omacron" unicode="&#x14c;" horiz-adv-x="704" 
d="M464 800h-224v64h224v-64zM352 712q136 0 220 -103.5t84 -256.5t-84 -256.5t-220 -103.5t-220 103.5t-84 256.5t84 256.5t220 103.5zM352 80q90 0 149 78.5t59 193.5t-59 193.5t-149 78.5t-149 -78.5t-59 -193.5t59 -193.5t149 -78.5z" />
    <glyph glyph-name="omacron" unicode="&#x14d;" 
d="M384 560h-224v64h224v-64zM272 472q100 0 162 -69.5t62 -170.5t-62 -170.5t-162 -69.5t-162 69.5t-62 170.5t62 170.5t162 69.5zM272 80q57 0 92.5 44.5t35.5 107.5t-35.5 107.5t-92.5 44.5t-92.5 -44.5t-35.5 -107.5t35.5 -107.5t92.5 -44.5z" />
    <glyph glyph-name="Ohungarumlaut" unicode="&#x150;" horiz-adv-x="704" 
d="M200 784v128h88l-24 -128h-64zM424 784v128h88l-24 -128h-64zM352 712q136 0 220 -103.5t84 -256.5t-84 -256.5t-220 -103.5t-220 103.5t-84 256.5t84 256.5t220 103.5zM352 80q90 0 149 78.5t59 193.5t-59 193.5t-149 78.5t-149 -78.5t-59 -193.5t59 -193.5t149 -78.5z
" />
    <glyph glyph-name="ohungarumlaut" unicode="&#x151;" 
d="M128 544v128h88l-24 -128h-64zM352 544v128h88l-24 -128h-64zM272 472q100 0 162 -69.5t62 -170.5t-62 -170.5t-162 -69.5t-162 69.5t-62 170.5t62 170.5t162 69.5zM272 80q57 0 92.5 44.5t35.5 107.5t-35.5 107.5t-92.5 44.5t-92.5 -44.5t-35.5 -107.5t35.5 -107.5
t92.5 -44.5z" />
    <glyph glyph-name="OE" unicode="&#x152;" horiz-adv-x="992" 
d="M928 616h-272v-220h208v-88h-208v-220h272v-88h-368v95q-76 -103 -208 -103q-136 0 -220 103.5t-84 256.5t84 256.5t220 103.5q132 0 208 -103v95h368v-88zM352 80q90 0 149 78.5t59 193.5t-59 193.5t-149 78.5t-149 -78.5t-59 -193.5t59 -193.5t149 -78.5z" />
    <glyph glyph-name="oe" unicode="&#x153;" horiz-adv-x="880" 
d="M832 238q0 -27 -4 -46h-328q12 -49 47 -80.5t85 -31.5q62 0 100 42l68 -56q-61 -74 -168 -74q-118 0 -183 96q-60 -96 -177 -96q-100 0 -162 69.5t-62 170.5t62 170.5t162 69.5q116 0 175 -92q59 92 175 92q90 0 150 -64.5t60 -169.5zM272 80q57 0 92.5 44.5t35.5 107.5
t-35.5 107.5t-92.5 44.5t-92.5 -44.5t-35.5 -107.5t35.5 -107.5t92.5 -44.5zM622 384q-46 0 -77.5 -28.5t-42.5 -75.5h230q-3 45 -33 74.5t-77 29.5z" />
    <glyph glyph-name="Racute" unicode="&#x154;" horiz-adv-x="560" 
d="M376 944l-96 -160h-64l64 160h96zM512 0h-112l-123 241q-8 -1 -23 -1h-78v-240h-96v704h160q125 0 190.5 -65.5t65.5 -166.5q0 -67 -33.5 -122.5t-92.5 -84.5zM176 328h81q56 0 99.5 39.5t43.5 104.5q0 71 -45 107.5t-104 36.5h-75v-288z" />
    <glyph glyph-name="racute" unicode="&#x155;" horiz-adv-x="384" 
d="M128 544l64 160h96l-96 -160h-64zM176 393q45 79 160 79v-102q-43 9 -80 -4q-80 -28 -80 -149v-217h-96v464h96v-71z" />
    <glyph glyph-name="Rcommaaccent" unicode="&#x156;" horiz-adv-x="560" 
d="M370 265l142 -265h-112l-123 241q-8 -1 -23 -1h-78v-240h-96v704h160q125 0 190.5 -65.5t65.5 -166.5q0 -67 -33.5 -122.5t-92.5 -84.5zM176 328h81q56 0 99.5 39.5t43.5 104.5q0 71 -45 107.5t-104 36.5h-75v-288zM232 -208v144h96l-32 -144h-64z" />
    <glyph glyph-name="rcommaaccent" unicode="&#x157;" horiz-adv-x="384" 
d="M176 393q45 79 160 79v-102q-43 9 -80 -4q-80 -28 -80 -149v-217h-96v464h96v-71zM112 -208v144h96l-32 -144h-64z" />
    <glyph glyph-name="Rcaron" unicode="&#x158;" horiz-adv-x="560" 
d="M296 784h-64l-96 144h72l56 -88l56 88h72zM512 0h-112l-123 241q-8 -1 -23 -1h-78v-240h-96v704h160q125 0 190.5 -65.5t65.5 -166.5q0 -67 -33.5 -122.5t-92.5 -84.5zM176 328h81q56 0 99.5 39.5t43.5 104.5q0 71 -45 107.5t-104 36.5h-75v-288z" />
    <glyph glyph-name="rcaron" unicode="&#x159;" horiz-adv-x="384" 
d="M256 688h72l-96 -144h-64l-96 144h72l56 -88zM176 393q45 79 160 79v-102q-43 9 -80 -4q-80 -28 -80 -149v-217h-96v464h96v-71z" />
    <glyph glyph-name="Sacute" unicode="&#x15a;" 
d="M224 784l64 160h96l-96 -160h-64zM289 444q103 -44 155 -94.5t52 -138.5q0 -85 -60.5 -152t-159.5 -67q-48 0 -89 15t-68.5 39.5t-43.5 43.5t-27 38l56 73q75 -121 174 -121q53 0 87.5 37.5t34.5 89.5q0 50 -32 80.5t-89 56.5q-105 46 -144 92t-39 116q0 64 54.5 112
t132.5 48q57 0 93 -17t72 -55l-56 -71q-49 55 -111 55q-35 0 -62 -22t-27 -52q0 -65 97 -106z" />
    <glyph glyph-name="sacute" unicode="&#x15b;" horiz-adv-x="432" 
d="M160 544l64 160h96l-96 -160h-64zM241 288q143 -33 143 -150q0 -63 -47.5 -104.5t-111.5 -41.5q-101 0 -177 76l48 70q59 -57 123 -58q33 -1 51 16.5t18 36.5q0 42 -62 59q-85 24 -119.5 57.5t-34.5 89.5q0 57 39.5 95t112.5 38q71 0 129 -46l-45 -70q-38 28 -84 28
q-56 0 -56 -42q0 -19 16 -32t57 -22z" />
    <glyph glyph-name="Scedilla" unicode="&#x15e;" 
d="M496 211q0 -79 -53 -144t-142 -74v-41q15 -2 31.5 -8.5t34.5 -20t29.5 -37t11.5 -54.5q0 -60 -40 -98t-96 -38q-43 0 -74 18t-46 45l48 45q18 -44 72 -44q35 0 57.5 20t22.5 53q0 45 -34.5 65.5t-80.5 13.5v83q-39 6 -72.5 22t-57 38.5t-36.5 39t-23 33.5l56 73
q75 -121 174 -121q53 0 87.5 37.5t34.5 89.5q0 50 -32 80.5t-89 56.5q-105 46 -144 92t-39 116q0 64 54.5 112t132.5 48q57 0 93 -17t72 -55l-56 -71q-49 55 -111 55q-35 0 -62 -22t-27 -52q0 -65 97 -106q103 -44 155 -94.5t52 -138.5z" />
    <glyph glyph-name="scedilla" unicode="&#x15f;" horiz-adv-x="432" 
d="M245 -48q15 -2 31.5 -8.5t34.5 -20t29.5 -37t11.5 -54.5q0 -60 -40 -98t-96 -38q-43 0 -74 18t-46 45l48 45q18 -44 72 -44q35 0 57.5 20t22.5 53q0 45 -34.5 65.5t-80.5 13.5v84q-74 13 -133 72l48 70q59 -57 123 -58q33 -1 51 16.5t18 36.5q0 42 -62 59
q-85 24 -119.5 57.5t-34.5 89.5q0 57 39.5 95t112.5 38q71 0 129 -46l-45 -70q-38 28 -84 28q-56 0 -56 -42q0 -19 16 -32t57 -22q143 -33 143 -150q0 -58 -40.5 -98t-98.5 -47v-41z" />
    <glyph glyph-name="Scaron" unicode="&#x160;" 
d="M328 928h72l-96 -144h-64l-96 144h72l56 -88zM289 444q103 -44 155 -94.5t52 -138.5q0 -85 -60.5 -152t-159.5 -67q-48 0 -89 15t-68.5 39.5t-43.5 43.5t-27 38l56 73q75 -121 174 -121q53 0 87.5 37.5t34.5 89.5q0 50 -32 80.5t-89 56.5q-105 46 -144 92t-39 116
q0 64 54.5 112t132.5 48q57 0 93 -17t72 -55l-56 -71q-49 55 -111 55q-35 0 -62 -22t-27 -52q0 -65 97 -106z" />
    <glyph glyph-name="scaron" unicode="&#x161;" horiz-adv-x="432" 
d="M272 688h72l-96 -144h-64l-96 144h72l56 -88zM241 288q143 -33 143 -150q0 -63 -47.5 -104.5t-111.5 -41.5q-101 0 -177 76l48 70q59 -57 123 -58q33 -1 51 16.5t18 36.5q0 42 -62 59q-85 24 -119.5 57.5t-34.5 89.5q0 57 39.5 95t112.5 38q71 0 129 -46l-45 -70
q-38 28 -84 28q-56 0 -56 -42q0 -19 16 -32t57 -22z" />
    <glyph glyph-name="uni0162" unicode="&#x162;" horiz-adv-x="512" 
d="M304 0h-15v-48q15 -2 31.5 -8.5t34.5 -20t29.5 -37t11.5 -54.5q0 -60 -40 -98t-96 -38q-43 0 -74 18t-46 45l48 45q18 -44 72 -44q35 0 57.5 20t22.5 53q0 45 -34.5 65.5t-80.5 13.5v88h-17v616h-160v88h416v-88h-160v-616z" />
    <glyph glyph-name="uni0163" unicode="&#x163;" horiz-adv-x="416" 
d="M261 -48q15 -2 31.5 -8.5t34.5 -20t29.5 -37t11.5 -54.5q0 -60 -40 -98t-96 -38q-43 0 -74 18t-46 45l48 45q18 -44 72 -44q35 0 57.5 20t22.5 53q0 45 -34.5 65.5t-80.5 13.5v93q-69 35 -69 161v210h-80v88h80v208l96 32v-240h128v-88h-128v-214q0 -82 47 -82
q19 0 37 16l44 -72q-40 -32 -91 -32v-40z" />
    <glyph glyph-name="Tcaron" unicode="&#x164;" horiz-adv-x="512" 
d="M312 928h72l-96 -144h-64l-96 144h72l56 -88zM48 704h416v-88h-160v-616h-96v616h-160v88z" />
    <glyph glyph-name="tcaron" unicode="&#x165;" horiz-adv-x="464" 
d="M352 376h-128v-214q0 -82 47 -82q19 0 37 16l44 -72q-40 -32 -92 -32q-132 0 -132 174v210h-80v88h80v208l96 32v-240h128v-88zM352 560v144h96l-32 -144h-64z" />
    <glyph glyph-name="Tbar" unicode="&#x166;" horiz-adv-x="512" 
d="M464 616h-160v-264h64v-48h-64v-304h-96v304h-64v48h64v264h-160v88h416v-88z" />
    <glyph glyph-name="tbar" unicode="&#x167;" horiz-adv-x="416" 
d="M352 376h-128v-112h96v-48h-96v-54q0 -82 47 -82q19 0 37 16l44 -72q-40 -32 -92 -32q-132 0 -132 174v50h-64v48h64v112h-80v88h80v208l96 32v-240h128v-88z" />
    <glyph glyph-name="Umacron" unicode="&#x16a;" horiz-adv-x="656" 
d="M440 800h-224v64h224v-64zM480 704h96v-424q0 -133 -66.5 -210.5t-181.5 -77.5q-117 0 -182.5 77t-65.5 211v424h96v-440q0 -82 40 -133t112 -51q71 0 111.5 51t40.5 133v440z" />
    <glyph glyph-name="umacron" unicode="&#x16b;" 
d="M376 560h-224v64h224v-64zM242 -8q-86 0 -132 57t-46 163v252h96v-260q0 -124 100 -124q46 0 77 40.5t31 111.5v232h96v-464h-96v64q-41 -72 -126 -72z" />
    <glyph glyph-name="Uring" unicode="&#x16e;" horiz-adv-x="656" 
d="M328 832q46 0 79 -33t33 -79t-33 -79t-79 -33t-79 33t-33 79t33 79t79 33zM328 664q23 0 39.5 16.5t16.5 39.5t-16.5 39.5t-39.5 16.5t-39.5 -16.5t-16.5 -39.5t16.5 -39.5t39.5 -16.5zM480 704h96v-424q0 -133 -66.5 -210.5t-181.5 -77.5q-117 0 -182.5 77t-65.5 211
v424h96v-440q0 -82 40 -133t112 -51q71 0 111.5 51t40.5 133v440z" />
    <glyph glyph-name="uring" unicode="&#x16f;" 
d="M272 736q46 0 79 -33t33 -79t-33 -79t-79 -33t-79 33t-33 79t33 79t79 33zM272 568q23 0 39.5 16.5t16.5 39.5t-16.5 39.5t-39.5 16.5t-39.5 -16.5t-16.5 -39.5t16.5 -39.5t39.5 -16.5zM242 -8q-86 0 -132 57t-46 163v252h96v-260q0 -124 100 -124q46 0 77 40.5t31 111.5
v232h96v-464h-96v64q-41 -72 -126 -72z" />
    <glyph glyph-name="Uhungarumlaut" unicode="&#x170;" horiz-adv-x="656" 
d="M176 784v128h88l-24 -128h-64zM400 784v128h88l-24 -128h-64zM480 704h96v-424q0 -133 -66.5 -210.5t-181.5 -77.5q-117 0 -182.5 77t-65.5 211v424h96v-440q0 -82 40 -133t112 -51q71 0 111.5 51t40.5 133v440z" />
    <glyph glyph-name="uhungarumlaut" unicode="&#x171;" 
d="M112 544v128h88l-24 -128h-64zM336 544v128h88l-24 -128h-64zM242 -8q-86 0 -132 57t-46 163v252h96v-260q0 -124 100 -124q46 0 77 40.5t31 111.5v232h96v-464h-96v64q-41 -72 -126 -72z" />
    <glyph glyph-name="Uogonek" unicode="&#x172;" horiz-adv-x="656" 
d="M480 704h96v-424q0 -123 -57 -199t-158 -87q-20 -5 -34.5 -26.5t-14.5 -51.5q0 -34 21.5 -53t50 -15.5t48.5 26.5l24 -50q-12 -13 -37 -22.5t-45 -9.5q-53 0 -85.5 35t-32.5 89q0 47 27 79q-97 15 -150 90t-53 195v424h96v-440q0 -82 40 -133t112 -51q71 0 111.5 51
t40.5 133v440z" />
    <glyph glyph-name="uogonek" unicode="&#x173;" 
d="M504 -126l24 -50q-12 -13 -37 -22.5t-45 -9.5q-53 0 -85.5 35t-32.5 89q0 55 40 92v56q-41 -72 -126 -72q-86 0 -132 57t-46 163v252h96v-260q0 -124 100 -124q46 0 77 40.5t31 111.5v232h96v-464q-30 0 -55 -22.5t-25 -61.5q0 -34 21.5 -53t50 -15.5t48.5 26.5z" />
    <glyph glyph-name="Wcircumflex" unicode="&#x174;" horiz-adv-x="896" 
d="M448 872l-56 -88h-72l96 144h64l96 -144h-72zM772 704h108l-248 -704h-80l-103 303l-105 -303h-80l-248 704h108l180 -540l95 285l-87 255h100l180 -540z" />
    <glyph glyph-name="wcircumflex" unicode="&#x175;" horiz-adv-x="688" 
d="M344 632l-56 -88h-72l96 144h64l96 -144h-72zM568 464h104l-176 -464h-80l-73 200l-71 -200h-80l-176 464h104l112 -322l62 194l-46 128h96l112 -322z" />
    <glyph glyph-name="Ycircumflex" unicode="&#x176;" 
d="M328 784l-56 88l-56 -88h-72l96 144h64l96 -144h-72zM420 704h108l-208 -419v-285h-96v285l-208 419h108l148 -315z" />
    <glyph glyph-name="ycircumflex" unicode="&#x177;" horiz-adv-x="464" 
d="M288 544l-56 88l-56 -88h-72l96 144h64l96 -144h-72zM344 464h104l-263 -704h-102l100 263l-167 441h104l112 -314z" />
    <glyph glyph-name="Ydieresis" unicode="&#x178;" 
d="M184 784q-23 0 -39.5 16.5t-16.5 39.5q0 24 16.5 40t39.5 16q24 0 40 -16t16 -40q0 -23 -16 -39.5t-40 -16.5zM360 784q-23 0 -39.5 16.5t-16.5 39.5q0 24 16.5 40t39.5 16q24 0 40 -16t16 -40q0 -23 -16 -39.5t-40 -16.5zM420 704h108l-208 -419v-285h-96v285l-208 419
h108l148 -315z" />
    <glyph glyph-name="Zacute" unicode="&#x179;" 
d="M224 784l64 160h96l-96 -160h-64zM480 0h-416v64l296 552h-296v88h416v-64l-296 -552h296v-88z" />
    <glyph glyph-name="zacute" unicode="&#x17a;" horiz-adv-x="464" 
d="M182 544l64 160h96l-96 -160h-64zM400 0h-336v64l208 312h-208v88h336v-64l-210 -312h210v-88z" />
    <glyph glyph-name="Zdotaccent" unicode="&#x17b;" 
d="M272 768q-30 0 -51 21t-21 51t21 51t51 21t51 -21t21 -51t-21 -51t-51 -21zM480 0h-416v64l296 552h-296v88h416v-64l-296 -552h296v-88z" />
    <glyph glyph-name="zdotaccent" unicode="&#x17c;" horiz-adv-x="464" 
d="M232 528q-30 0 -51 21t-21 51t21 51t51 21t51 -21t21 -51t-21 -51t-51 -21zM400 0h-336v64l208 312h-208v88h336v-64l-210 -312h210v-88z" />
    <glyph glyph-name="Zcaron" unicode="&#x17d;" 
d="M328 928h72l-96 -144h-64l-96 144h72l56 -88zM480 0h-416v64l296 552h-296v88h416v-64l-296 -552h296v-88z" />
    <glyph glyph-name="zcaron" unicode="&#x17e;" horiz-adv-x="464" 
d="M288 688h72l-96 -144h-64l-96 144h72l56 -88zM400 0h-336v64l208 312h-208v88h336v-64l-210 -312h210v-88z" />
    <glyph glyph-name="Aringacute" unicode="&#x1fa;" horiz-adv-x="608" 
d="M424 1040l-96 -160h-64l64 160h96zM484 0l-44 132h-272l-44 -132h-108l222 630q-46 33 -46 90q0 46 33 79t79 33t79 -33t33 -79q0 -56 -46 -91l222 -629h-108zM304 776q-23 0 -39.5 -16.5t-16.5 -39.5t16.5 -39.5t39.5 -16.5t39.5 16.5t16.5 39.5t-16.5 39.5t-39.5 16.5z
M197 220h214l-107 320z" />
    <glyph glyph-name="aringacute" unicode="&#x1fb;" horiz-adv-x="512" 
d="M208 784l64 160h96l-96 -160h-64zM256 736q46 0 79 -33t33 -79t-33 -79t-79 -33t-79 33t-33 79t33 79t79 33zM256 568q23 0 39.5 16.5t16.5 39.5t-16.5 39.5t-39.5 16.5t-39.5 -16.5t-16.5 -39.5t16.5 -39.5t39.5 -16.5zM448 0h-80l-8 62q-58 -70 -147 -70q-71 0 -118 46
t-47 113q0 50 27 85.5t70 50.5t97 11t107 -28q-6 114 -101 114q-56 0 -104 -30l-40 70q63 48 148 48q94 0 145 -56t51 -190v-226zM352 191q-37 19 -85 24t-85.5 -11.5t-37.5 -55.5q0 -27 22 -47.5t56 -20.5q45 0 84.5 33.5t45.5 77.5z" />
    <glyph glyph-name="AEacute" unicode="&#x1fc;" horiz-adv-x="800" 
d="M544 944l-96 -160h-64l64 160h96zM736 616h-272v-220h208v-88h-208v-220h272v-88h-368v132h-184l-64 -132h-104l352 704h368v-88zM227 220h141v292z" />
    <glyph glyph-name="aeacute" unicode="&#x1fd;" horiz-adv-x="832" 
d="M512 704l-96 -160h-64l64 160h96zM784 238q0 -27 -4 -46h-328q12 -49 47 -80.5t85 -31.5q62 0 100 42l68 -56q-61 -74 -168 -74q-118 0 -185 92q-68 -92 -178 -92q-76 0 -124.5 45.5t-48.5 113.5q0 50 27 85.5t70 50.5t97 11t107 -28q-6 114 -101 114q-56 0 -104 -30
l-40 70q63 48 148 48q110 0 157 -73q63 73 165 73q90 0 150 -64.5t60 -169.5zM574 384q-46 0 -77.5 -28.5t-42.5 -75.5h230q-3 45 -33 74.5t-77 29.5zM222 80q47 0 85.5 31t44.5 80q-37 19 -85 24t-85.5 -11.5t-37.5 -55.5q0 -27 22 -47.5t56 -20.5z" />
    <glyph glyph-name="Scommaaccent" unicode="&#x218;" 
d="M289 444q103 -44 155 -94.5t52 -138.5q0 -85 -60.5 -152t-159.5 -67q-48 0 -89 15t-68.5 39.5t-43.5 43.5t-27 38l56 73q75 -121 174 -121q53 0 87.5 37.5t34.5 89.5q0 50 -32 80.5t-89 56.5q-105 46 -144 92t-39 116q0 64 54.5 112t132.5 48q57 0 93 -17t72 -55l-56 -71
q-49 55 -111 55q-35 0 -62 -22t-27 -52q0 -65 97 -106zM232 -208v144h96l-32 -144h-64z" />
    <glyph glyph-name="scommaaccent" unicode="&#x219;" horiz-adv-x="432" 
d="M241 288q143 -33 143 -150q0 -63 -47.5 -104.5t-111.5 -41.5q-101 0 -177 76l48 70q59 -57 123 -58q33 -1 51 16.5t18 36.5q0 42 -62 59q-85 24 -119.5 57.5t-34.5 89.5q0 57 39.5 95t112.5 38q71 0 129 -46l-45 -70q-38 28 -84 28q-56 0 -56 -42q0 -19 16 -32t57 -22z
M176 -208v144h96l-32 -144h-64z" />
    <glyph glyph-name="uni021A" unicode="&#x21a;" horiz-adv-x="512" 
d="M48 704h416v-88h-160v-616h-96v616h-160v88zM208 -208v144h96l-32 -144h-64z" />
    <glyph glyph-name="uni021B" unicode="&#x21b;" horiz-adv-x="416" 
d="M352 376h-128v-214q0 -82 47 -82q19 0 37 16l44 -72q-40 -32 -92 -32q-132 0 -132 174v210h-80v88h80v208l96 32v-240h128v-88zM160 -208v144h96l-32 -144h-64z" />
    <glyph glyph-name="Alphatonos" unicode="&#x386;" horiz-adv-x="608" 
d="M484 0l-44 132h-272l-44 -132h-108l248 704h80l248 -704h-108zM144 704l-32 -144h-64v144h96zM197 220h214l-107 320z" />
    <glyph glyph-name="Epsilontonos" unicode="&#x388;" horiz-adv-x="640" 
d="M48 560v144h96l-32 -144h-64zM576 616h-272v-220h208v-88h-208v-220h272v-88h-368v704h368v-88z" />
    <glyph glyph-name="Etatonos" unicode="&#x389;" horiz-adv-x="736" 
d="M48 560v144h96l-32 -144h-64zM560 704h96v-704h-96v308h-256v-308h-96v704h96v-308h256v308z" />
    <glyph glyph-name="Iotatonos" unicode="&#x38a;" horiz-adv-x="384" 
d="M48 560v144h96l-32 -144h-64zM304 0h-96v704h96v-704z" />
    <glyph glyph-name="Omicrontonos" unicode="&#x38c;" horiz-adv-x="768" 
d="M416 712q136 0 220 -103.5t84 -256.5t-84 -256.5t-220 -103.5t-220 103.5t-84 256.5t84 256.5t220 103.5zM48 560v144h96l-32 -144h-64zM416 80q90 0 149 78.5t59 193.5t-59 193.5t-149 78.5t-149 -78.5t-59 -193.5t59 -193.5t149 -78.5z" />
    <glyph glyph-name="Upsilontonos" unicode="&#x38e;" horiz-adv-x="704" 
d="M48 560v144h96l-32 -144h-64zM580 704h108l-208 -419v-285h-96v285l-208 419h108l148 -315z" />
    <glyph glyph-name="Omegatonos" unicode="&#x38f;" horiz-adv-x="816" 
d="M752 392q0 -140 -132 -296h132v-96h-264v64q69 64 118.5 150.5t49.5 177.5q0 98 -58.5 165t-149.5 67t-149.5 -67t-58.5 -165q0 -91 49.5 -177.5t118.5 -150.5v-64h-264v96h132q-132 156 -132 296q0 55 17 109t51.5 102.5t95.5 78.5t140 30t140 -30t95.5 -78.5
t51.5 -102.5t17 -109zM48 560v144h96l-32 -144h-64z" />
    <glyph glyph-name="iotadieresistonos" unicode="&#x390;" horiz-adv-x="256" 
d="M88 544v144h96l-32 -144h-64zM-8 544q-23 0 -39.5 16.5t-16.5 39.5q0 24 16.5 40t39.5 16q24 0 40 -16t16 -40q0 -23 -16 -39.5t-40 -16.5zM264 544q-23 0 -39.5 16.5t-16.5 39.5q0 24 16.5 40t39.5 16q24 0 40 -16t16 -40q0 -23 -16 -39.5t-40 -16.5zM80 0v464h96v-464
h-96z" />
    <glyph glyph-name="Alpha" unicode="&#x391;" horiz-adv-x="608" 
d="M484 0l-44 132h-272l-44 -132h-108l248 704h80l248 -704h-108zM197 220h214l-107 320z" />
    <glyph glyph-name="Beta" unicode="&#x392;" horiz-adv-x="576" 
d="M395 378q54 -16 85.5 -65.5t31.5 -109.5q0 -91 -64.5 -147t-169.5 -56h-198v704h157q115 0 179 -47t64 -137q0 -47 -24 -84t-61 -58zM176 616v-204h74q62 0 98 29.5t36 76.5t-35.5 72.5t-98.5 25.5h-74zM264 88q70 0 110 28.5t40 85.5q0 59 -40.5 90.5t-109.5 31.5h-88
v-236h88z" />
    <glyph glyph-name="Gamma" unicode="&#x393;" horiz-adv-x="480" 
d="M176 616v-616h-96v704h352v-88h-256z" />
    <glyph glyph-name="uni0394" unicode="&#x394;" horiz-adv-x="608" 
d="M344 704l248 -704h-576l248 704h80zM153 88h302l-151 452z" />
    <glyph glyph-name="Epsilon" unicode="&#x395;" horiz-adv-x="512" 
d="M448 616h-272v-220h208v-88h-208v-220h272v-88h-368v704h368v-88z" />
    <glyph glyph-name="Zeta" unicode="&#x396;" 
d="M480 0h-416v64l296 552h-296v88h416v-64l-296 -552h296v-88z" />
    <glyph glyph-name="Eta" unicode="&#x397;" horiz-adv-x="608" 
d="M432 704h96v-704h-96v308h-256v-308h-96v704h96v-308h256v308z" />
    <glyph glyph-name="Theta" unicode="&#x398;" horiz-adv-x="704" 
d="M352 712q136 0 220 -103.5t84 -256.5t-84 -256.5t-220 -103.5t-220 103.5t-84 256.5t84 256.5t220 103.5zM352 80q90 0 149 78.5t59 193.5t-59 193.5t-149 78.5t-149 -78.5t-59 -193.5t59 -193.5t149 -78.5zM224 320v64h256v-64h-256z" />
    <glyph glyph-name="Iota" unicode="&#x399;" horiz-adv-x="256" 
d="M176 0h-96v704h96v-704z" />
    <glyph glyph-name="Kappa" unicode="&#x39a;" horiz-adv-x="560" 
d="M528 0h-120l-179 300l-53 -76v-224h-96v704h96v-332l224 332h112l-223 -318z" />
    <glyph glyph-name="Lambda" unicode="&#x39b;" horiz-adv-x="608" 
d="M484 0l-180 540l-180 -540h-108l248 704h80l248 -704h-108z" />
    <glyph glyph-name="Mu" unicode="&#x39c;" horiz-adv-x="768" 
d="M384 356l224 348h80v-704h-96v514l-208 -314l-208 314v-514h-96v704h80z" />
    <glyph glyph-name="Nu" unicode="&#x39d;" horiz-adv-x="656" 
d="M576 0h-80l-320 510v-510h-96v704h80l320 -510v510h96v-704z" />
    <glyph glyph-name="Xi" unicode="&#x39e;" horiz-adv-x="528" 
d="M64 616v88h400v-88h-400zM112 308v88h304v-88h-304zM64 0v88h400v-88h-400z" />
    <glyph glyph-name="Omicron" unicode="&#x39f;" horiz-adv-x="704" 
d="M352 712q136 0 220 -103.5t84 -256.5t-84 -256.5t-220 -103.5t-220 103.5t-84 256.5t84 256.5t220 103.5zM352 80q90 0 149 78.5t59 193.5t-59 193.5t-149 78.5t-149 -78.5t-59 -193.5t59 -193.5t149 -78.5z" />
    <glyph glyph-name="Pi" unicode="&#x3a0;" horiz-adv-x="608" 
d="M528 704v-704h-96v616h-256v-616h-96v704h448z" />
    <glyph glyph-name="Rho" unicode="&#x3a1;" 
d="M240 704q125 0 190.5 -65.5t65.5 -166.5q0 -98 -66.5 -165t-175.5 -67h-78v-240h-96v704h160zM257 328q56 0 99.5 39.5t43.5 104.5q0 71 -45 107.5t-104 36.5h-75v-288h81z" />
    <glyph glyph-name="Sigma" unicode="&#x3a3;" horiz-adv-x="560" 
d="M200 616l200 -264l-200 -264h280v-88h-416v64l220 288l-220 288v64h416v-88h-280z" />
    <glyph glyph-name="Tau" unicode="&#x3a4;" horiz-adv-x="512" 
d="M48 704h416v-88h-160v-616h-96v616h-160v88z" />
    <glyph glyph-name="Upsilon" unicode="&#x3a5;" 
d="M420 704h108l-208 -419v-285h-96v285l-208 419h108l148 -315z" />
    <glyph glyph-name="Phi" unicode="&#x3a6;" horiz-adv-x="800" 
d="M448 672q56 -3 108 -22t97 -54t72 -94t27 -134q0 -68 -26.5 -125.5t-70.5 -95t-97.5 -59t-109.5 -24.5v-64h-96v64q-56 3 -109.5 24.5t-97.5 59t-70.5 95t-26.5 125.5q0 75 27 134t72 94t97 54t108 22v64h96v-64zM352 152v432q-31 0 -64.5 -11.5t-67 -35.5t-55 -68
t-21.5 -101q0 -52 21.5 -95t54.5 -68.5t67.5 -39t64.5 -13.5zM448 152q30 0 64.5 13.5t67.5 39t54.5 68.5t21.5 95q0 57 -21.5 101t-55 68t-67 35.5t-64.5 11.5v-432z" />
    <glyph glyph-name="Chi" unicode="&#x3a7;" horiz-adv-x="592" 
d="M32 0l208 366l-192 338h107l141 -254l141 254h107l-192 -338l208 -366h-108l-156 280l-156 -280h-108z" />
    <glyph glyph-name="Psi" unicode="&#x3a8;" horiz-adv-x="768" 
d="M592 704h96v-254q0 -143 -66 -210.5t-190 -83.5v-156h-96v156q-124 16 -190 83.5t-66 210.5v254h96v-268q0 -93 44.5 -141t115.5 -51v460h96v-460q71 3 115.5 51t44.5 141v268z" />
    <glyph glyph-name="uni03A9" unicode="&#x3a9;" horiz-adv-x="736" 
d="M672 392q0 -140 -132 -296h132v-96h-264v64q69 64 118.5 150.5t49.5 177.5q0 98 -58.5 165t-149.5 67t-149.5 -67t-58.5 -165q0 -91 49.5 -177.5t118.5 -150.5v-64h-264v96h132q-132 156 -132 296q0 55 17 109t51.5 102.5t95.5 78.5t140 30t140 -30t95.5 -78.5
t51.5 -102.5t17 -109z" />
    <glyph glyph-name="Iotadieresis" unicode="&#x3aa;" horiz-adv-x="256" 
d="M40 784q-23 0 -39.5 16.5t-16.5 39.5q0 24 16.5 40t39.5 16q24 0 40 -16t16 -40q0 -23 -16 -39.5t-40 -16.5zM216 784q-23 0 -39.5 16.5t-16.5 39.5q0 24 16.5 40t39.5 16q24 0 40 -16t16 -40q0 -23 -16 -39.5t-40 -16.5zM176 0h-96v704h96v-704z" />
    <glyph glyph-name="Upsilondieresis" unicode="&#x3ab;" 
d="M184 784q-23 0 -39.5 16.5t-16.5 39.5q0 24 16.5 40t39.5 16q24 0 40 -16t16 -40q0 -23 -16 -39.5t-40 -16.5zM360 784q-23 0 -39.5 16.5t-16.5 39.5q0 24 16.5 40t39.5 16q24 0 40 -16t16 -40q0 -23 -16 -39.5t-40 -16.5zM420 704h108l-208 -419v-285h-96v285l-208 419
h108l148 -315z" />
    <glyph glyph-name="alphatonos" unicode="&#x3ac;" horiz-adv-x="576" 
d="M256 544v144h96l-32 -144h-64zM400 464h96v-464h-96v62q-21 -31 -59 -50.5t-83 -19.5q-90 0 -150 70t-60 170t60 170t150 70q45 0 83 -19.5t59 -50.5v62zM272 80q56 0 92 44t36 108t-36 108t-92 44t-92 -44t-36 -108t36 -108t92 -44z" />
    <glyph glyph-name="epsilontonos" unicode="&#x3ad;" horiz-adv-x="464" 
d="M208 544v144h96l-32 -144h-64zM268 80q59 3 108 39l40 -68q-63 -59 -166 -59q-83 0 -134.5 35t-51.5 104q0 36 20.5 65.5t56.5 43.5q-34 14 -51.5 42t-17.5 62q0 61 48.5 94.5t120.5 33.5q103 0 171 -60l-44 -68q-55 40 -114 40q-42 0 -64 -13.5t-22 -35.5
q0 -30 39 -50.5t97 -20.5v-64q-58 0 -101 -17.5t-43 -50.5q0 -26 30.5 -40t77.5 -12z" />
    <glyph glyph-name="etatonos" unicode="&#x3ae;" 
d="M232 544v144h96l-32 -144h-64zM302 472q86 0 132 -57t46 -163v-492h-96v492q0 66 -23 99t-77 33q-45 0 -76.5 -39.5t-31.5 -104.5v-240h-96v464h96v-64q41 72 126 72z" />
    <glyph glyph-name="iotatonos" unicode="&#x3af;" horiz-adv-x="256" 
d="M88 544v144h96l-32 -144h-64zM80 0v464h96v-464h-96z" />
    <glyph glyph-name="upsilondieresistonos" unicode="&#x3b0;" 
d="M232 544v144h96l-32 -144h-64zM136 544q-23 0 -39.5 16.5t-16.5 39.5q0 24 16.5 40t39.5 16q24 0 40 -16t16 -40q0 -23 -16 -39.5t-40 -16.5zM408 544q-23 0 -39.5 16.5t-16.5 39.5q0 24 16.5 40t39.5 16q24 0 40 -16t16 -40q0 -23 -16 -39.5t-40 -16.5zM384 464h96v-240
q0 -111 -55.5 -171.5t-152.5 -60.5t-152.5 60.5t-55.5 171.5v240h96v-250q0 -66 31 -100t81 -34t81 34t31 100v250z" />
    <glyph glyph-name="alpha" unicode="&#x3b1;" horiz-adv-x="576" 
d="M400 464h96v-464h-96v62q-21 -31 -59 -50.5t-83 -19.5q-90 0 -150 70t-60 170t60 170t150 70q45 0 83 -19.5t59 -50.5v62zM272 80q56 0 92 44t36 108t-36 108t-92 44t-92 -44t-36 -108t36 -108t92 -44z" />
    <glyph glyph-name="beta" unicode="&#x3b2;" 
d="M358 388q60 -17 99 -65.5t39 -120.5q0 -83 -58.5 -146.5t-165.5 -63.5q-58 0 -112 32v-264h-96v744q0 60 18.5 105t42.5 66.5t55.5 34.5t48.5 15.5t29 2.5q84 0 138.5 -53.5t54.5 -130.5q0 -54 -26.5 -94t-66.5 -62zM160 121q44 -37 100.5 -39t98 32t41.5 92
q0 68 -57.5 103t-150.5 35v80q67 0 113.5 29.5t46.5 90.5q0 43 -28 69.5t-68 26.5q-45 0 -70.5 -32.5t-25.5 -83.5v-403z" />
    <glyph glyph-name="gamma" unicode="&#x3b3;" horiz-adv-x="512" 
d="M496 464l-192 -409v-295h-96v295l-192 409h104l136 -296l136 296h104z" />
    <glyph glyph-name="delta" unicode="&#x3b4;" 
d="M496 232q0 -101 -62 -170.5t-162 -69.5t-162 69.5t-62 170.5q0 98 58.5 167t154.5 73q-78 90 -181 168v64h368v-88h-200q43 -41 63.5 -61t56 -57.5t53 -64t38 -61.5t29 -69.5t8.5 -70.5zM272 80q57 0 92.5 44.5t35.5 107.5t-35.5 107.5t-92.5 44.5t-92.5 -44.5
t-35.5 -107.5t35.5 -107.5t92.5 -44.5z" />
    <glyph glyph-name="epsilon" unicode="&#x3b5;" horiz-adv-x="464" 
d="M268 80q59 3 108 39l40 -68q-63 -59 -166 -59q-83 0 -134.5 35t-51.5 104q0 36 20.5 65.5t56.5 43.5q-34 14 -51.5 42t-17.5 62q0 61 48.5 94.5t120.5 33.5q103 0 171 -60l-44 -68q-55 40 -114 40q-42 0 -64 -13.5t-22 -35.5q0 -30 39 -50.5t97 -20.5v-64
q-58 0 -101 -17.5t-43 -50.5q0 -26 30.5 -40t77.5 -12z" />
    <glyph glyph-name="zeta" unicode="&#x3b6;" horiz-adv-x="480" 
d="M296 80q152 0 152 -144v-32h-96v37q0 51 -56 51q-111 0 -171.5 54t-60.5 162q0 97 55 192t171 216h-194v88h352v-64q-288 -259 -288 -412q0 -69 35 -107.5t101 -40.5z" />
    <glyph glyph-name="eta" unicode="&#x3b7;" 
d="M302 472q86 0 132 -57t46 -163v-492h-96v492q0 66 -23 99t-77 33q-45 0 -76.5 -39.5t-31.5 -104.5v-240h-96v464h96v-64q41 72 126 72z" />
    <glyph glyph-name="theta" unicode="&#x3b8;" horiz-adv-x="560" 
d="M280 712q112 0 172 -102t60 -258t-60 -258t-172 -102q-76 0 -129.5 49.5t-78 129t-24.5 181.5q0 157 60 258.5t172 101.5zM280 624q-59 0 -94.5 -66.5t-40.5 -173.5h270q-5 107 -40.5 173.5t-94.5 66.5zM280 80q59 0 94.5 66.5t40.5 173.5h-270q5 -107 40.5 -173.5
t94.5 -66.5z" />
    <glyph glyph-name="iota" unicode="&#x3b9;" horiz-adv-x="256" 
d="M80 0v464h96v-464h-96z" />
    <glyph glyph-name="kappa" unicode="&#x3ba;" horiz-adv-x="496" 
d="M480 0h-120l-150 195l-34 -36v-159h-96v464h96v-188l168 188h120l-192 -204z" />
    <glyph glyph-name="lambda" unicode="&#x3bb;" horiz-adv-x="512" 
d="M480 0h-105l-129 328l-125 -328h-105l179 448l-101 256h104z" />
    <glyph glyph-name="uni03BC" unicode="&#x3bc;" horiz-adv-x="576" 
d="M400 464h96v-464h-96v56q-13 -26 -42.5 -45t-69.5 -19t-69.5 19t-42.5 45v-296h-96v704h96v-240q0 -65 33 -104.5t79 -39.5t79 39.5t33 104.5v240z" />
    <glyph glyph-name="nu" unicode="&#x3bd;" horiz-adv-x="464" 
d="M272 0h-80l-176 464h104l112 -322l112 322h104z" />
    <glyph glyph-name="xi" unicode="&#x3be;" horiz-adv-x="512" 
d="M464 -64v-32h-96v37q0 32 -17 41.5t-64 9.5q-98 0 -160.5 59t-62.5 149q0 68 30.5 111.5t78.5 62.5q-41 18 -67 58.5t-26 87.5q0 93 59.5 142.5t147.5 49.5q112 0 177 -88l-50 -68q-48 68 -124 68q-45 0 -79.5 -26.5t-34.5 -77.5q0 -53 45 -85t99 -35v-64
q-67 -3 -113.5 -37.5t-46.5 -98.5q0 -50 38 -85t90 -35q94 0 135 -33t41 -111z" />
    <glyph glyph-name="omicron" unicode="&#x3bf;" 
d="M272 472q100 0 162 -69.5t62 -170.5t-62 -170.5t-162 -69.5t-162 69.5t-62 170.5t62 170.5t162 69.5zM272 80q57 0 92.5 44.5t35.5 107.5t-35.5 107.5t-92.5 44.5t-92.5 -44.5t-35.5 -107.5t35.5 -107.5t92.5 -44.5z" />
    <glyph glyph-name="pi" unicode="&#x3c0;" horiz-adv-x="592" 
d="M544 376h-64v-376h-96v376h-176v-376h-96v376h-64v88h496v-88z" />
    <glyph glyph-name="rho" unicode="&#x3c1;" horiz-adv-x="576" 
d="M304 472q100 0 162 -69.5t62 -170.5t-62 -170.5t-162 -69.5q-79 0 -128 49v-281h-96v472q0 101 62 170.5t162 69.5zM304 80q57 0 92.5 44.5t35.5 107.5t-35.5 107.5t-92.5 44.5t-92.5 -44.5t-35.5 -107.5t35.5 -107.5t92.5 -44.5z" />
    <glyph glyph-name="uni03C2" unicode="&#x3c2;" horiz-adv-x="496" 
d="M280 80q152 0 152 -144v-32h-96v37q0 51 -56 51q-98 0 -165 70t-67 170t67 170t165 70q106 0 168 -74l-68 -56q-38 42 -100 42q-58 0 -97 -45t-39 -107t39 -107t97 -45z" />
    <glyph glyph-name="sigma" unicode="&#x3c3;" horiz-adv-x="592" 
d="M544 464v-88h-94q46 -61 46 -144q0 -101 -62 -170.5t-162 -69.5t-162 69.5t-62 170.5t62 170.5t162 69.5q17 0 24 -1q105 -7 248 -7zM272 80q57 0 92.5 44.5t35.5 107.5t-35.5 107.5t-92.5 44.5t-92.5 -44.5t-35.5 -107.5t35.5 -107.5t92.5 -44.5z" />
    <glyph glyph-name="tau" unicode="&#x3c4;" horiz-adv-x="480" 
d="M48 464h384v-88h-144v-376h-96v376h-144v88z" />
    <glyph glyph-name="upsilon" unicode="&#x3c5;" 
d="M384 464h96v-240q0 -111 -55.5 -171.5t-152.5 -60.5t-152.5 60.5t-55.5 171.5v240h96v-250q0 -66 31 -100t81 -34t81 34t31 100v250z" />
    <glyph glyph-name="phi" unicode="&#x3c6;" horiz-adv-x="672" 
d="M48 232q0 84 50 144.5t133 84.5l17 -83q-45 -13 -74.5 -53t-29.5 -93q0 -63 41 -103.5t103 -48.5v391q18 3 41 3q130 0 212.5 -64.5t82.5 -177.5q0 -97 -67.5 -163t-172.5 -77v-232h-96v232q-106 11 -173 76.5t-67 163.5zM384 80q63 9 103.5 48t40.5 104t-40.5 104
t-103.5 48v-304z" />
    <glyph glyph-name="chi" unicode="&#x3c7;" horiz-adv-x="496" 
d="M464 0h-112l-104 167l-104 -167h-112l160 244l-144 220h112l88 -143l88 143h112l-144 -220z" />
    <glyph glyph-name="psi" unicode="&#x3c8;" horiz-adv-x="704" 
d="M544 464h96v-202q0 -245 -240 -270v-232h-96v232q-240 25 -240 270v202h96v-206q0 -89 41.5 -130t102.5 -48v384h96v-384q61 7 102.5 48t41.5 130v206z" />
    <glyph glyph-name="omega" unicode="&#x3c9;" horiz-adv-x="752" 
d="M631 464q57 -99 57 -236q0 -118 -52.5 -177t-135.5 -59q-81 0 -124 61q-43 -61 -124 -61q-84 0 -136 58.5t-52 177.5q0 137 57 236l90 -24q-51 -108 -51 -212q0 -74 25.5 -111t66.5 -37q30 0 53 25t23 77v218h96v-218q0 -52 23 -77t53 -25q41 0 66.5 37t25.5 111
q0 104 -51 212z" />
    <glyph glyph-name="iotadieresis" unicode="&#x3ca;" horiz-adv-x="256" 
d="M40 544q-23 0 -39.5 16.5t-16.5 39.5q0 24 16.5 40t39.5 16q24 0 40 -16t16 -40q0 -23 -16 -39.5t-40 -16.5zM216 544q-23 0 -39.5 16.5t-16.5 39.5q0 24 16.5 40t39.5 16q24 0 40 -16t16 -40q0 -23 -16 -39.5t-40 -16.5zM80 0v464h96v-464h-96z" />
    <glyph glyph-name="upsilondieresis" unicode="&#x3cb;" 
d="M184 544q-23 0 -39.5 16.5t-16.5 39.5q0 24 16.5 40t39.5 16q24 0 40 -16t16 -40q0 -23 -16 -39.5t-40 -16.5zM360 544q-23 0 -39.5 16.5t-16.5 39.5q0 24 16.5 40t39.5 16q24 0 40 -16t16 -40q0 -23 -16 -39.5t-40 -16.5zM384 464h96v-240q0 -111 -55.5 -171.5
t-152.5 -60.5t-152.5 60.5t-55.5 171.5v240h96v-250q0 -66 31 -100t81 -34t81 34t31 100v250z" />
    <glyph glyph-name="omicrontonos" unicode="&#x3cc;" 
d="M232 544v144h96l-32 -144h-64zM272 472q100 0 162 -69.5t62 -170.5t-62 -170.5t-162 -69.5t-162 69.5t-62 170.5t62 170.5t162 69.5zM272 80q57 0 92.5 44.5t35.5 107.5t-35.5 107.5t-92.5 44.5t-92.5 -44.5t-35.5 -107.5t35.5 -107.5t92.5 -44.5z" />
    <glyph glyph-name="upsilontonos" unicode="&#x3cd;" 
d="M232 544v144h96l-32 -144h-64zM384 464h96v-240q0 -111 -55.5 -171.5t-152.5 -60.5t-152.5 60.5t-55.5 171.5v240h96v-250q0 -66 31 -100t81 -34t81 34t31 100v250z" />
    <glyph glyph-name="omegatonos" unicode="&#x3ce;" horiz-adv-x="752" 
d="M336 544v144h96l-32 -144h-64zM631 464q57 -99 57 -236q0 -118 -52.5 -177t-135.5 -59q-81 0 -124 61q-43 -61 -124 -61q-84 0 -136 58.5t-52 177.5q0 137 57 236l90 -24q-51 -108 -51 -212q0 -74 25.5 -111t66.5 -37q30 0 53 25t23 77v218h96v-218q0 -52 23 -77t53 -25
q41 0 66.5 37t25.5 111q0 104 -51 212z" />
    <glyph glyph-name="uni0401" unicode="&#x401;" horiz-adv-x="512" 
d="M168 784q-23 0 -39.5 16.5t-16.5 39.5q0 24 16.5 40t39.5 16q24 0 40 -16t16 -40q0 -23 -16 -39.5t-40 -16.5zM344 784q-23 0 -39.5 16.5t-16.5 39.5q0 24 16.5 40t39.5 16q24 0 40 -16t16 -40q0 -23 -16 -39.5t-40 -16.5zM448 616h-272v-220h208v-88h-208v-220h272v-88
h-368v704h368v-88z" />
    <glyph glyph-name="uni0402" unicode="&#x402;" horiz-adv-x="656" 
d="M392 456q200 0 200 -240v-218q0 -45 -7 -81.5t-17 -60.5t-27 -43t-30.5 -29t-34 -17.5t-32 -9.5t-28.5 -5l-24 88q49 10 76.5 42t27.5 102v230q0 80 -26 117t-94 37q-78 0 -136 -30v-338h-96v616h-96v88h288v-88h-96v-192q72 32 152 32z" />
    <glyph glyph-name="uni0403" unicode="&#x403;" horiz-adv-x="480" 
d="M192 784l64 160h96l-96 -160h-64zM176 616v-616h-96v704h352v-88h-256z" />
    <glyph glyph-name="uni0404" unicode="&#x404;" horiz-adv-x="624" 
d="M352 80q107 0 168 118l72 -55q-37 -71 -99 -111t-141 -40q-136 0 -220 103.5t-84 256.5t84 256.5t220 103.5q79 0 141 -40t99 -111l-72 -55q-61 118 -168 118q-81 0 -138 -65.5t-68 -166.5h238v-80h-238q11 -101 68 -166.5t138 -65.5z" />
    <glyph glyph-name="uni0405" unicode="&#x405;" 
d="M289 444q103 -44 155 -94.5t52 -138.5q0 -85 -60.5 -152t-159.5 -67q-48 0 -89 15t-68.5 39.5t-43.5 43.5t-27 38l56 73q75 -121 174 -121q53 0 87.5 37.5t34.5 89.5q0 50 -32 80.5t-89 56.5q-105 46 -144 92t-39 116q0 64 54.5 112t132.5 48q57 0 93 -17t72 -55l-56 -71
q-49 55 -111 55q-35 0 -62 -22t-27 -52q0 -65 97 -106z" />
    <glyph glyph-name="uni0406" unicode="&#x406;" horiz-adv-x="256" 
d="M176 0h-96v704h96v-704z" />
    <glyph glyph-name="uni0407" unicode="&#x407;" horiz-adv-x="256" 
d="M40 784q-23 0 -39.5 16.5t-16.5 39.5q0 24 16.5 40t39.5 16q24 0 40 -16t16 -40q0 -23 -16 -39.5t-40 -16.5zM216 784q-23 0 -39.5 16.5t-16.5 39.5q0 24 16.5 40t39.5 16q24 0 40 -16t16 -40q0 -23 -16 -39.5t-40 -16.5zM176 0h-96v704h96v-704z" />
    <glyph glyph-name="uni0408" unicode="&#x408;" horiz-adv-x="448" 
d="M288 704h96v-496q0 -111 -55 -163.5t-137 -52.5q-47 0 -85 17.5t-59 44.5l60 64q36 -38 84 -38q37 0 66.5 30t29.5 90v504z" />
    <glyph glyph-name="uni0409" unicode="&#x409;" horiz-adv-x="928" 
d="M638 396q117 0 179.5 -54.5t62.5 -143.5q0 -90 -63.5 -144t-184.5 -54h-136v616h-192v-408q0 -113 -49.5 -164.5t-134.5 -51.5q-58 0 -88 25l36 75q21 -12 52 -12q36 0 62 30t26 90v504h384v-308h46zM641 88q61 0 102 27t41 83t-40 83t-106 27h-46v-220h49z" />
    <glyph glyph-name="uni040A" unicode="&#x40a;" horiz-adv-x="864" 
d="M574 396q117 0 179.5 -54.5t62.5 -143.5q0 -90 -63.5 -144t-184.5 -54h-136v308h-256v-308h-96v704h96v-308h256v308h96v-308h46zM577 88q61 0 102 27t41 83t-40 83t-106 27h-46v-220h49z" />
    <glyph glyph-name="uni040B" unicode="&#x40b;" horiz-adv-x="656" 
d="M392 456q200 0 200 -240v-216h-96v214q0 80 -26 117t-94 37q-78 0 -136 -30v-338h-96v616h-96v88h288v-88h-96v-192q72 32 152 32z" />
    <glyph glyph-name="uni040C" unicode="&#x40c;" horiz-adv-x="560" 
d="M368 928l-96 -160h-64l64 160h96zM528 0h-120l-179 300l-53 -76v-224h-96v704h96v-332l224 332h112l-223 -318z" />
    <glyph glyph-name="uni040E" unicode="&#x40e;" horiz-adv-x="576" 
d="M368 912h56q0 -53 -37.5 -90.5t-90.5 -37.5t-90.5 37.5t-37.5 90.5h56q0 -30 21 -51t51 -21t51 21t21 51zM456 704h104l-348 -704h-104l140 282l-216 422h104l164 -318z" />
    <glyph glyph-name="uni040F" unicode="&#x40f;" horiz-adv-x="608" 
d="M432 704h96v-704h-176v-96h-96v96h-176v704h96v-616h256v616z" />
    <glyph glyph-name="uni0410" unicode="&#x410;" horiz-adv-x="608" 
d="M484 0l-44 132h-272l-44 -132h-108l248 704h80l248 -704h-108zM197 220h214l-107 320z" />
    <glyph glyph-name="uni0411" unicode="&#x411;" horiz-adv-x="560" 
d="M256 464q124 0 190 -62.5t66 -163.5q0 -100 -65.5 -169t-176.5 -69h-190v704h336v-88h-240v-152h80zM279 88q55 0 96 42t41 108q0 70 -44 104t-99 34h-97v-288h103z" />
    <glyph glyph-name="uni0412" unicode="&#x412;" horiz-adv-x="576" 
d="M395 378q54 -16 85.5 -65.5t31.5 -109.5q0 -91 -64.5 -147t-169.5 -56h-198v704h157q115 0 179 -47t64 -137q0 -47 -24 -84t-61 -58zM176 616v-204h74q62 0 98 29.5t36 76.5t-35.5 72.5t-98.5 25.5h-74zM264 88q70 0 110 28.5t40 85.5q0 59 -40.5 90.5t-109.5 31.5h-88
v-236h88z" />
    <glyph glyph-name="uni0413" unicode="&#x413;" horiz-adv-x="480" 
d="M176 616v-616h-96v704h352v-88h-256z" />
    <glyph glyph-name="uni0414" unicode="&#x414;" horiz-adv-x="720" 
d="M576 88h96v-185h-96v97h-432v-97h-96v185h76q55 133 69.5 260.5t14.5 355.5h368v-616zM304 616q-2 -174 -17 -292t-59 -236h252v528h-176z" />
    <glyph glyph-name="uni0415" unicode="&#x415;" horiz-adv-x="512" 
d="M448 616h-272v-220h208v-88h-208v-220h272v-88h-368v704h368v-88z" />
    <glyph glyph-name="uni0416" unicode="&#x416;" horiz-adv-x="864" 
d="M832 0h-120l-179 300l-53 -76v-224h-96v224l-53 76l-179 -300h-120l239 386l-223 318h112l224 -332v332h96v-332l224 332h112l-223 -318z" />
    <glyph glyph-name="uni0417" unicode="&#x417;" horiz-adv-x="512" 
d="M208 328v80q54 0 99 29.5t45 82.5q0 50 -34.5 77t-79.5 27q-77 0 -128 -68l-48 68q29 39 75.5 63.5t103.5 24.5q88 0 147.5 -49.5t59.5 -142.5q0 -47 -26 -87.5t-67 -58.5q48 -19 78.5 -62.5t30.5 -111.5q0 -90 -62.5 -149t-160.5 -59q-63 0 -113.5 26t-79.5 64l54 68
q50 -70 138 -70q52 0 90 35t38 85q0 64 -46.5 96t-113.5 32z" />
    <glyph glyph-name="uni0418" unicode="&#x418;" horiz-adv-x="656" 
d="M80 0v704h96v-510l320 510h80v-704h-96v510l-320 -510h-80z" />
    <glyph glyph-name="uni0419" unicode="&#x419;" horiz-adv-x="656" 
d="M400 912h56q0 -53 -37.5 -90.5t-90.5 -37.5t-90.5 37.5t-37.5 90.5h56q0 -30 21 -51t51 -21t51 21t21 51zM80 0v704h96v-510l320 510h80v-704h-96v510l-320 -510h-80z" />
    <glyph glyph-name="uni041A" unicode="&#x41a;" horiz-adv-x="560" 
d="M528 0h-120l-179 300l-53 -76v-224h-96v704h96v-332l224 332h112l-223 -318z" />
    <glyph glyph-name="uni041B" unicode="&#x41b;" horiz-adv-x="672" 
d="M208 704h384v-704h-96v616h-192v-408q0 -113 -49.5 -164.5t-134.5 -51.5q-58 0 -88 25l36 75q21 -12 52 -12q36 0 62 30t26 90v504z" />
    <glyph glyph-name="uni041C" unicode="&#x41c;" horiz-adv-x="768" 
d="M384 356l224 348h80v-704h-96v514l-208 -314l-208 314v-514h-96v704h80z" />
    <glyph glyph-name="uni041D" unicode="&#x41d;" horiz-adv-x="608" 
d="M432 704h96v-704h-96v308h-256v-308h-96v704h96v-308h256v308z" />
    <glyph glyph-name="uni041E" unicode="&#x41e;" horiz-adv-x="704" 
d="M352 712q136 0 220 -103.5t84 -256.5t-84 -256.5t-220 -103.5t-220 103.5t-84 256.5t84 256.5t220 103.5zM352 80q90 0 149 78.5t59 193.5t-59 193.5t-149 78.5t-149 -78.5t-59 -193.5t59 -193.5t149 -78.5z" />
    <glyph glyph-name="uni041F" unicode="&#x41f;" horiz-adv-x="608" 
d="M528 704v-704h-96v616h-256v-616h-96v704h448z" />
    <glyph glyph-name="uni0420" unicode="&#x420;" 
d="M240 704q125 0 190.5 -65.5t65.5 -166.5q0 -98 -66.5 -165t-175.5 -67h-78v-240h-96v704h160zM257 328q56 0 99.5 39.5t43.5 104.5q0 71 -45 107.5t-104 36.5h-75v-288h81z" />
    <glyph glyph-name="uni0421" unicode="&#x421;" horiz-adv-x="624" 
d="M352 80q107 0 168 118l72 -55q-37 -71 -99 -111t-141 -40q-136 0 -220 103.5t-84 256.5t84 256.5t220 103.5q79 0 141 -40t99 -111l-72 -55q-61 118 -168 118q-90 0 -149 -78.5t-59 -193.5t59 -193.5t149 -78.5z" />
    <glyph glyph-name="uni0422" unicode="&#x422;" horiz-adv-x="512" 
d="M48 704h416v-88h-160v-616h-96v616h-160v88z" />
    <glyph glyph-name="uni0423" unicode="&#x423;" horiz-adv-x="576" 
d="M456 704h104l-348 -704h-104l140 282l-216 422h104l164 -318z" />
    <glyph glyph-name="uni0424" unicode="&#x424;" horiz-adv-x="800" 
d="M448 672q56 -3 108 -22t97 -54t72 -94t27 -134q0 -68 -26.5 -125.5t-70.5 -95t-97.5 -59t-109.5 -24.5v-64h-96v64q-56 3 -109.5 24.5t-97.5 59t-70.5 95t-26.5 125.5q0 75 27 134t72 94t97 54t108 22v64h96v-64zM352 152v432q-31 0 -64.5 -11.5t-67 -35.5t-55 -68
t-21.5 -101q0 -52 21.5 -95t54.5 -68.5t67.5 -39t64.5 -13.5zM448 152q30 0 64.5 13.5t67.5 39t54.5 68.5t21.5 95q0 57 -21.5 101t-55 68t-67 35.5t-64.5 11.5v-432z" />
    <glyph glyph-name="uni0425" unicode="&#x425;" horiz-adv-x="592" 
d="M32 0l208 366l-192 338h107l141 -254l141 254h107l-192 -338l208 -366h-108l-156 280l-156 -280h-108z" />
    <glyph glyph-name="uni0426" unicode="&#x426;" horiz-adv-x="688" 
d="M528 88h96v-184h-96v96h-448v704h96v-616h256v616h96v-616z" />
    <glyph glyph-name="uni0427" unicode="&#x427;" horiz-adv-x="592" 
d="M264 248q-200 0 -200 240v216h96v-214q0 -80 26 -117t94 -37q78 0 136 30v338h96v-704h-96v280q-72 -32 -152 -32z" />
    <glyph glyph-name="uni0428" unicode="&#x428;" horiz-adv-x="880" 
d="M704 704h96v-704h-720v704h96v-616h216v616h96v-616h216v616z" />
    <glyph glyph-name="uni0429" unicode="&#x429;" horiz-adv-x="960" 
d="M800 88h96v-184h-96v96h-720v704h96v-616h216v616h96v-616h216v616h96v-616z" />
    <glyph glyph-name="uni042A" unicode="&#x42a;" horiz-adv-x="624" 
d="M320 464q124 0 190 -62.5t66 -163.5q0 -100 -65.5 -169t-176.5 -69h-190v616h-96v88h192v-240h80zM343 88q55 0 96 42t41 108q0 70 -44 104t-99 34h-97v-288h103z" />
    <glyph glyph-name="uni042B" unicode="&#x42b;" horiz-adv-x="816" 
d="M256 464q124 0 190 -62.5t66 -163.5q0 -100 -65.5 -169t-176.5 -69h-190v704h96v-240h80zM736 0h-96v704h96v-704zM279 88q55 0 96 42t41 108q0 70 -44 104t-99 34h-97v-288h103z" />
    <glyph glyph-name="uni042C" unicode="&#x42c;" horiz-adv-x="560" 
d="M256 464q124 0 190 -62.5t66 -163.5q0 -100 -65.5 -169t-176.5 -69h-190v704h96v-240h80zM279 88q55 0 96 42t41 108q0 70 -44 104t-99 34h-97v-288h103z" />
    <glyph glyph-name="uni042D" unicode="&#x42d;" horiz-adv-x="640" 
d="M288 712q136 0 220 -103.5t84 -256.5t-84 -256.5t-220 -103.5q-79 0 -141 40t-99 111l72 55q61 -118 168 -118q81 0 138 65.5t68 166.5h-238v80h238q-11 101 -68 166.5t-138 65.5q-107 0 -168 -118l-72 55q37 71 99 111t141 40z" />
    <glyph glyph-name="uni042E" unicode="&#x42e;" horiz-adv-x="944" 
d="M592 712q136 0 220 -103.5t84 -256.5t-84 -256.5t-220 -103.5q-125 0 -207.5 89.5t-94.5 226.5h-114v-308h-96v704h96v-308h114q12 137 94.5 226.5t207.5 89.5zM592 80q90 0 149 78.5t59 193.5t-59 193.5t-149 78.5t-149 -78.5t-59 -193.5t59 -193.5t149 -78.5z" />
    <glyph glyph-name="uni042F" unicode="&#x42f;" horiz-adv-x="560" 
d="M320 704h160v-704h-96v240h-78q-15 0 -23 1l-123 -241h-112l142 265q-59 29 -92.5 84.5t-33.5 122.5q0 101 65.5 166.5t190.5 65.5zM384 328v288h-75q-59 0 -104 -36.5t-45 -107.5q0 -65 43.5 -104.5t99.5 -39.5h81z" />
    <glyph glyph-name="uni0430" unicode="&#x430;" horiz-adv-x="512" 
d="M448 0h-80l-8 62q-58 -70 -147 -70q-71 0 -118 46t-47 113q0 50 27 85.5t70 50.5t97 11t107 -28q-6 114 -101 114q-56 0 -104 -30l-40 70q63 48 148 48q94 0 145 -56t51 -190v-226zM352 191q-37 19 -85 24t-85.5 -11.5t-37.5 -55.5q0 -27 22 -47.5t56 -20.5
q45 0 84.5 33.5t45.5 77.5z" />
    <glyph glyph-name="uni0431" unicode="&#x431;" 
d="M272 472q100 0 162 -69.5t62 -170.5t-62 -170.5t-162 -69.5t-162 69.5t-62 170.5v1q0 101 43.5 184.5t132.5 162.5q42 37 57 59.5t31 64.5h104q-10 -101 -115 -165q-50 -30 -82 -73q25 6 53 6zM272 80q57 0 92.5 44.5t35.5 107.5t-35.5 107.5t-92.5 44.5t-92.5 -44.5
t-35.5 -107.5t35.5 -107.5t92.5 -44.5z" />
    <glyph glyph-name="uni0432" unicode="&#x432;" horiz-adv-x="512" 
d="M368 245q34 -8 57 -38t23 -63q0 -67 -47.5 -105.5t-144.5 -38.5h-176v464h158q100 0 147 -36.5t47 -93.5q0 -28 -17.5 -53t-46.5 -36zM176 376v-100h75q85 0 85 50t-79 50h-81zM273 88q34 0 56.5 13.5t22.5 40.5q0 54 -79 54h-97v-108h97z" />
    <glyph glyph-name="uni0433" unicode="&#x433;" horiz-adv-x="416" 
d="M176 376v-376h-96v464h288v-88h-192z" />
    <glyph glyph-name="uni0434" unicode="&#x434;" horiz-adv-x="624" 
d="M113 88q43 74 57 164t14 212h312v-376h80v-184h-96v96h-336v-96h-96v184h65zM215 88h185v288h-127q0 -73 -14.5 -154t-43.5 -134z" />
    <glyph glyph-name="uni0435" unicode="&#x435;" horiz-adv-x="528" 
d="M480 238q0 -27 -4 -46h-328q12 -49 47 -80.5t85 -31.5q62 0 100 42l68 -56q-61 -74 -168 -74q-101 0 -166.5 69.5t-65.5 170.5q0 102 60.5 171t161.5 69q90 0 150 -64.5t60 -169.5zM270 384q-46 0 -77.5 -28.5t-42.5 -75.5h230q-3 45 -33 74.5t-77 29.5z" />
    <glyph glyph-name="uni0436" unicode="&#x436;" horiz-adv-x="768" 
d="M736 0h-120l-150 195l-34 -36v-159h-96v159l-34 36l-150 -195h-120l208 260l-192 204h120l168 -188v188h96v-188l168 188h120l-192 -204z" />
    <glyph glyph-name="uni0437" unicode="&#x437;" horiz-adv-x="464" 
d="M196 80q47 -2 77.5 12t30.5 40q0 33 -43 50.5t-101 17.5v64q58 0 97 20.5t39 50.5q0 22 -22 35.5t-64 13.5q-59 0 -114 -40l-44 68q68 60 171 60q72 0 120.5 -33.5t48.5 -94.5q0 -34 -17.5 -62t-51.5 -42q36 -14 56.5 -43.5t20.5 -65.5q0 -69 -51.5 -104t-134.5 -35
q-103 0 -166 59l40 68q49 -36 108 -39z" />
    <glyph glyph-name="uni0438" unicode="&#x438;" horiz-adv-x="560" 
d="M176 464v-298l224 298h80v-464h-96v298l-224 -298h-80v464h96z" />
    <glyph glyph-name="uni0439" unicode="&#x439;" horiz-adv-x="560" 
d="M352 672h56q0 -53 -37.5 -90.5t-90.5 -37.5t-90.5 37.5t-37.5 90.5h56q0 -30 21 -51t51 -21t51 21t21 51zM176 464v-298l224 298h80v-464h-96v298l-224 -298h-80v464h96z" />
    <glyph glyph-name="uni043A" unicode="&#x43a;" horiz-adv-x="496" 
d="M480 0h-120l-150 195l-34 -36v-159h-96v464h96v-188l168 188h120l-192 -204z" />
    <glyph glyph-name="uni043B" unicode="&#x43b;" horiz-adv-x="576" 
d="M400 0v376h-160v-219q0 -92 -41 -128.5t-100 -36.5q-42 0 -83 24l30 74q21 -11 41.5 -12t38 17.5t17.5 59.5l1 309h352v-464h-96z" />
    <glyph glyph-name="uni043C" unicode="&#x43c;" horiz-adv-x="656" 
d="M576 464v-464h-96v290l-152 -218l-152 218v-290h-96v464h80l168 -244l168 244h80z" />
    <glyph glyph-name="uni043D" unicode="&#x43d;" horiz-adv-x="560" 
d="M384 464h96v-464h-96v188h-208v-188h-96v464h96v-188h208v188z" />
    <glyph glyph-name="uni043E" unicode="&#x43e;" 
d="M272 472q100 0 162 -69.5t62 -170.5t-62 -170.5t-162 -69.5t-162 69.5t-62 170.5t62 170.5t162 69.5zM272 80q57 0 92.5 44.5t35.5 107.5t-35.5 107.5t-92.5 44.5t-92.5 -44.5t-35.5 -107.5t35.5 -107.5t92.5 -44.5z" />
    <glyph glyph-name="uni043F" unicode="&#x43f;" horiz-adv-x="560" 
d="M480 464v-464h-96v376h-208v-376h-96v464h400z" />
    <glyph glyph-name="uni0440" unicode="&#x440;" horiz-adv-x="576" 
d="M176 464v-62q21 31 59 50.5t83 19.5q90 0 150 -70t60 -170t-60 -170t-150 -70q-45 0 -83 19.5t-59 50.5v-302h-96v704h96zM304 80q56 0 92 44t36 108t-36 108t-92 44t-92 -44t-36 -108t36 -108t92 -44z" />
    <glyph glyph-name="uni0441" unicode="&#x441;" horiz-adv-x="496" 
d="M280 80q62 0 100 42l68 -56q-62 -74 -168 -74q-98 0 -165 70t-67 170t67 170t165 70q106 0 168 -74l-68 -56q-38 42 -100 42q-58 0 -97 -45t-39 -107t39 -107t97 -45z" />
    <glyph glyph-name="uni0442" unicode="&#x442;" horiz-adv-x="480" 
d="M48 464h384v-88h-144v-376h-96v376h-144v88z" />
    <glyph glyph-name="uni0443" unicode="&#x443;" horiz-adv-x="464" 
d="M344 464h104l-263 -704h-102l100 263l-167 441h104l112 -314z" />
    <glyph glyph-name="uni0444" unicode="&#x444;" horiz-adv-x="672" 
d="M384 472q106 -11 173 -76.5t67 -163.5t-67 -163.5t-173 -76.5v-232h-96v232q-106 11 -173 76.5t-67 163.5t67 163.5t173 76.5v232h96v-232zM288 80v304q-64 -9 -104 -48t-40 -104t40 -104t104 -48zM384 80q64 9 104 48t40 104t-40 104t-104 48v-304z" />
    <glyph glyph-name="uni0445" unicode="&#x445;" horiz-adv-x="496" 
d="M464 0h-112l-104 167l-104 -167h-112l160 244l-144 220h112l88 -143l88 143h112l-144 -220z" />
    <glyph glyph-name="uni0446" unicode="&#x446;" horiz-adv-x="640" 
d="M480 88h96v-184h-96v96h-400v464h96v-376h208v376h96v-376z" />
    <glyph glyph-name="uni0447" unicode="&#x447;" horiz-adv-x="528" 
d="M238 144q-75 0 -124.5 44.5t-49.5 147.5v128h96v-126q0 -52 20.5 -77t65.5 -29q50 -4 106 27v205h96v-464h-96v176q-56 -32 -114 -32z" />
    <glyph glyph-name="uni0448" unicode="&#x448;" horiz-adv-x="784" 
d="M608 464h96v-464h-624v464h96v-376h168v376h96v-376h168v376z" />
    <glyph glyph-name="uni0449" unicode="&#x449;" horiz-adv-x="864" 
d="M704 88h96v-184h-96v96h-624v464h96v-376h168v376h96v-376h168v376h96v-376z" />
    <glyph glyph-name="uni044A" unicode="&#x44a;" horiz-adv-x="576" 
d="M320 320q100 0 154 -40.5t54 -115.5q0 -80 -53.5 -122t-154.5 -42h-176v376h-96v88h192v-144h80zM336 88q96 0 96 72q0 36 -30.5 54t-65.5 18h-96v-144h96z" />
    <glyph glyph-name="uni044B" unicode="&#x44b;" horiz-adv-x="768" 
d="M80 0v464h96v-144h80q100 0 154 -40.5t54 -115.5q0 -80 -53.5 -122t-154.5 -42h-176zM592 0v464h96v-464h-96zM272 88q96 0 96 72q0 36 -30.5 54t-65.5 18h-96v-144h96z" />
    <glyph glyph-name="uni044C" unicode="&#x44c;" horiz-adv-x="512" 
d="M80 0v464h96v-144h80q100 0 154 -40.5t54 -115.5q0 -80 -53.5 -122t-154.5 -42h-176zM272 88q96 0 96 72q0 36 -30.5 54t-65.5 18h-96v-144h96z" />
    <glyph glyph-name="uni044D" unicode="&#x44d;" horiz-adv-x="496" 
d="M216 472q98 0 165 -70t67 -170t-67 -170t-165 -70q-106 0 -168 74l68 56q38 -42 100 -42q50 0 86.5 34t46.5 86h-141v64h141q-10 52 -46.5 86t-86.5 34q-62 0 -100 -42l-68 56q62 74 168 74z" />
    <glyph glyph-name="uni044E" unicode="&#x44e;" horiz-adv-x="784" 
d="M512 472q100 0 162 -69.5t62 -170.5t-62 -170.5t-162 -69.5q-89 0 -149 56.5t-72 143.5h-115v-192h-96v464h96v-192h115q12 87 72 143.5t149 56.5zM512 80q57 0 92.5 44.5t35.5 107.5t-35.5 107.5t-92.5 44.5t-92.5 -44.5t-35.5 -107.5t35.5 -107.5t92.5 -44.5z" />
    <glyph glyph-name="uni044F" unicode="&#x44f;" horiz-adv-x="528" 
d="M280 464h168v-464h-96v137h-48l-115 -137h-125l127 141q-44 6 -85.5 47.5t-41.5 103.5q0 172 216 172zM267 376q-46 0 -76.5 -19t-30.5 -60q0 -78 111 -78h81v157h-85z" />
    <glyph glyph-name="uni0451" unicode="&#x451;" horiz-adv-x="528" 
d="M176 544q-23 0 -39.5 16.5t-16.5 39.5q0 24 16.5 40t39.5 16q24 0 40 -16t16 -40q0 -23 -16 -39.5t-40 -16.5zM352 544q-23 0 -39.5 16.5t-16.5 39.5q0 24 16.5 40t39.5 16q24 0 40 -16t16 -40q0 -23 -16 -39.5t-40 -16.5zM480 238q0 -27 -4 -46h-328q12 -49 47 -80.5
t85 -31.5q62 0 100 42l68 -56q-61 -74 -168 -74q-101 0 -166.5 69.5t-65.5 170.5q0 102 60.5 171t161.5 69q90 0 150 -64.5t60 -169.5zM270 384q-46 0 -77.5 -28.5t-42.5 -75.5h230q-3 45 -33 74.5t-77 29.5z" />
    <glyph glyph-name="uni0452" unicode="&#x452;" 
d="M302 472q86 0 132 -57t46 -163v-254q0 -45 -7 -81.5t-17 -60.5t-27 -43t-30.5 -29t-34 -17.5t-32 -9.5t-28.5 -5l-24 88q49 10 76.5 42t27.5 102v268q0 66 -23 99t-77 33q-45 0 -76.5 -38t-31.5 -98v-248h-96v560h-48v48h48v112h96v-112h96v-48h-96v-152q13 25 46.5 44.5
t79.5 19.5z" />
    <glyph glyph-name="uni0453" unicode="&#x453;" horiz-adv-x="416" 
d="M160 544l64 160h96l-96 -160h-64zM176 376v-376h-96v464h288v-88h-192z" />
    <glyph glyph-name="uni0454" unicode="&#x454;" horiz-adv-x="496" 
d="M280 80q62 0 100 42l68 -56q-62 -74 -168 -74q-98 0 -165 70t-67 170t67 170t165 70q106 0 168 -74l-68 -56q-38 42 -100 42q-50 0 -86.5 -34t-46.5 -86h141v-64h-141q10 -52 46.5 -86t86.5 -34z" />
    <glyph glyph-name="uni0455" unicode="&#x455;" horiz-adv-x="432" 
d="M241 288q143 -33 143 -150q0 -63 -47.5 -104.5t-111.5 -41.5q-101 0 -177 76l48 70q59 -57 123 -58q33 -1 51 16.5t18 36.5q0 42 -62 59q-85 24 -119.5 57.5t-34.5 89.5q0 57 39.5 95t112.5 38q71 0 129 -46l-45 -70q-38 28 -84 28q-56 0 -56 -42q0 -19 16 -32t57 -22z
" />
    <glyph glyph-name="uni0456" unicode="&#x456;" horiz-adv-x="256" 
d="M128 560q-30 0 -51 21t-21 51t21 51t51 21t51 -21t21 -51t-21 -51t-51 -21zM80 0v464h96v-464h-96z" />
    <glyph glyph-name="uni0457" unicode="&#x457;" horiz-adv-x="256" 
d="M40 544q-23 0 -39.5 16.5t-16.5 39.5q0 24 16.5 40t39.5 16q24 0 40 -16t16 -40q0 -23 -16 -39.5t-40 -16.5zM216 544q-23 0 -39.5 16.5t-16.5 39.5q0 24 16.5 40t39.5 16q24 0 40 -16t16 -40q0 -23 -16 -39.5t-40 -16.5zM80 0v464h96v-464h-96z" />
    <glyph glyph-name="uni0458" unicode="&#x458;" horiz-adv-x="256" 
d="M128 704q30 0 51 -21t21 -51t-21 -51t-51 -21t-51 21t-21 51t21 51t51 21zM80 -20v484h96v-492q0 -65 -18.5 -111.5t-48 -68.5t-56.5 -31t-53 -9l-16 88q41 3 68.5 37t27.5 103z" />
    <glyph glyph-name="uni0459" unicode="&#x459;" horiz-adv-x="800" 
d="M560 280q192 0 192 -140t-192 -140h-160v376h-160v-219q0 -92 -41 -128.5t-100 -36.5q-42 0 -83 24l30 74q21 -11 41.5 -12t38 17.5t17.5 59.5l1 309h352v-184h64zM574 88q33 0 57.5 12.5t24.5 39.5q0 52 -82 52h-78v-104h78z" />
    <glyph glyph-name="uni045A" unicode="&#x45a;" horiz-adv-x="784" 
d="M544 280q192 0 192 -140t-192 -140h-160v192h-208v-192h-96v464h96v-184h208v184h96v-184h64zM558 88q33 0 57.5 12.5t24.5 39.5q0 52 -82 52h-78v-104h78z" />
    <glyph glyph-name="uni045B" unicode="&#x45b;" 
d="M302 472q86 0 132 -57t46 -163v-252h-96v252q0 66 -23 99t-77 33q-45 0 -76.5 -38t-31.5 -98v-248h-96v560h-48v48h48v112h96v-112h96v-48h-96v-152q13 25 46.5 44.5t79.5 19.5z" />
    <glyph glyph-name="uni045C" unicode="&#x45c;" horiz-adv-x="496" 
d="M344 704l-96 -160h-64l64 160h96zM480 0h-120l-150 195l-34 -36v-159h-96v464h96v-188l168 188h120l-192 -204z" />
    <glyph glyph-name="uni045E" unicode="&#x45e;" horiz-adv-x="464" 
d="M304 672h56q0 -53 -37.5 -90.5t-90.5 -37.5t-90.5 37.5t-37.5 90.5h56q0 -30 21 -51t51 -21t51 21t21 51zM344 464h104l-263 -704h-102l100 263l-167 441h104l112 -314z" />
    <glyph glyph-name="uni045F" unicode="&#x45f;" horiz-adv-x="560" 
d="M384 464h96v-464h-152v-96h-96v96h-152v464h96v-376h208v376z" />
    <glyph glyph-name="uni0462" unicode="&#x462;" horiz-adv-x="592" 
d="M288 464q124 0 190 -62.5t66 -163.5q0 -100 -65.5 -169t-176.5 -69h-190v576h-80v64h80v80h96v-80h128v-64h-128v-112h80zM311 88q55 0 96 42t41 108q0 70 -44 104t-99 34h-97v-288h103z" />
    <glyph glyph-name="uni0463" unicode="&#x463;" horiz-adv-x="512" 
d="M256 320q100 0 154 -40.5t54 -115.5q0 -80 -53.5 -122t-154.5 -42h-176v368h-48v48h48v64h96v-64h96v-48h-96v-48h80zM272 88q96 0 96 72q0 36 -30.5 54t-65.5 18h-96v-144h96z" />
    <glyph glyph-name="uni0472" unicode="&#x472;" horiz-adv-x="704" 
d="M352 712q136 0 220 -103.5t84 -256.5t-84 -256.5t-220 -103.5t-220 103.5t-84 256.5t84 256.5t220 103.5zM352 624q-81 0 -138 -65.5t-68 -165.5q39 33 91.5 33.5t112.5 -32.5q146 -81 205 17q-15 93 -70.5 153t-132.5 60zM352 80q82 0 139 66.5t67 167.5
q-79 -72 -203 -3q-147 80 -207 -17q15 -94 71 -154t133 -60z" />
    <glyph glyph-name="uni0473" unicode="&#x473;" 
d="M272 472q100 0 162 -69.5t62 -170.5t-62 -170.5t-162 -69.5t-162 69.5t-62 170.5t62 170.5t162 69.5zM272 384q-48 0 -81.5 -32.5t-43.5 -82.5q58 25 119 -2q97 -43 130 2q-9 50 -42.5 82.5t-81.5 32.5zM272 80q48 0 81 32t43 82q-53 -24 -118 4q-96 42 -130 -3
q9 -50 42.5 -82.5t81.5 -32.5z" />
    <glyph glyph-name="uni0474" unicode="&#x474;" horiz-adv-x="672" 
d="M537 702q24 13 66.5 9.5t68.5 -23.5l-32 -72q-38 16 -61 1t-41 -66l-194 -551h-80l-248 704h108l180 -540l127 381q24 74 48.5 107t57.5 50z" />
    <glyph glyph-name="uni0475" unicode="&#x475;" 
d="M390 462q22 13 67 9.5t71 -23.5l-30 -72q-43 16 -66 0.5t-42 -65.5l-118 -311h-80l-176 464h104l112 -322l56 163q26 74 48 107.5t54 49.5z" />
    <glyph glyph-name="uni0490" unicode="&#x490;" horiz-adv-x="480" 
d="M352 784h80v-168h-256v-616h-96v704h272v80z" />
    <glyph glyph-name="uni0491" unicode="&#x491;" horiz-adv-x="416" 
d="M288 544h80v-168h-192v-376h-96v464h208v80z" />
    <glyph glyph-name="uni0492" unicode="&#x492;" horiz-adv-x="496" 
d="M448 616h-256v-264h64v-48h-64v-304h-96v304h-64v48h64v352h352v-88z" />
    <glyph glyph-name="uni0493" unicode="&#x493;" horiz-adv-x="416" 
d="M368 376h-192v-144h96v-48h-96v-184h-96v184h-48v48h48v232h288v-88z" />
    <glyph glyph-name="uni0496" unicode="&#x496;" horiz-adv-x="864" 
d="M778 88h54v-168h-80v80h-40l-179 300l-53 -76v-224h-96v224l-53 76l-179 -300h-120l239 386l-223 318h112l224 -332v332h96v-332l224 332h112l-223 -318z" />
    <glyph glyph-name="uni0497" unicode="&#x497;" horiz-adv-x="768" 
d="M666 88h70v-168h-80v80h-40l-150 195l-34 -36v-159h-96v159l-34 36l-150 -195h-120l208 260l-192 204h120l168 -188v188h96v-188l168 188h120l-192 -204z" />
    <glyph glyph-name="uni049A" unicode="&#x49a;" horiz-adv-x="560" 
d="M474 88h54v-168h-80v80h-40l-179 300l-53 -76v-224h-96v704h96v-332l224 332h112l-223 -318z" />
    <glyph glyph-name="uni049B" unicode="&#x49b;" horiz-adv-x="496" 
d="M410 88h70v-168h-80v80h-40l-150 195l-34 -36v-159h-96v464h96v-188l168 188h120l-192 -204z" />
    <glyph glyph-name="uni04A2" unicode="&#x4a2;" horiz-adv-x="624" 
d="M528 88h80v-168h-80v80h-96v308h-256v-308h-96v704h96v-308h256v308h96v-616z" />
    <glyph glyph-name="uni04A3" unicode="&#x4a3;" horiz-adv-x="576" 
d="M480 88h80v-168h-80v80h-96v188h-208v-188h-96v464h96v-188h208v188h96v-376z" />
    <glyph glyph-name="uni04AE" unicode="&#x4ae;" 
d="M420 704h108l-208 -419v-285h-96v285l-208 419h108l148 -315z" />
    <glyph glyph-name="uni04AF" unicode="&#x4af;" horiz-adv-x="512" 
d="M496 464l-192 -409v-295h-96v295l-192 409h104l136 -296l136 296h104z" />
    <glyph glyph-name="uni04B0" unicode="&#x4b0;" 
d="M320 285v-61h64v-48h-64v-176h-96v176h-64v48h64v61l-208 419h108l148 -315l148 315h108z" />
    <glyph glyph-name="uni04B1" unicode="&#x4b1;" horiz-adv-x="512" 
d="M304 55v-103h64v-48h-64v-144h-96v144h-64v48h64v103l-192 409h104l136 -296l136 296h104z" />
    <glyph glyph-name="uni04B2" unicode="&#x4b2;" horiz-adv-x="592" 
d="M510 88h50v-168h-80v80h-28l-156 280l-156 -280h-108l208 366l-192 338h107l141 -254l141 254h107l-192 -338z" />
    <glyph glyph-name="uni04B3" unicode="&#x4b3;" horiz-adv-x="496" 
d="M406 88h58v-168h-80v80h-32l-104 167l-104 -167h-112l160 244l-144 220h112l88 -143l88 143h112l-144 -220z" />
    <glyph glyph-name="uni04B6" unicode="&#x4b6;" horiz-adv-x="608" 
d="M512 88h80v-168h-80v80h-96v280q-72 -32 -152 -32q-200 0 -200 240v216h96v-214q0 -80 26 -117t94 -37q78 0 136 30v338h96v-616z" />
    <glyph glyph-name="uni04B7" unicode="&#x4b7;" 
d="M448 88h80v-168h-80v80h-96v176q-56 -32 -114 -32q-75 0 -124.5 44.5t-49.5 147.5v128h96v-126q0 -52 20.5 -77t65.5 -29q50 -4 106 27v205h96v-376z" />
    <glyph glyph-name="uni04BA" unicode="&#x4ba;" horiz-adv-x="592" 
d="M328 456q200 0 200 -240v-216h-96v214q0 80 -26 117t-94 37q-78 0 -136 -30v-338h-96v704h96v-280q72 32 152 32z" />
    <glyph glyph-name="uni04BB" unicode="&#x4bb;" 
d="M302 472q86 0 132 -57t46 -163v-252h-96v252q0 66 -23 99t-77 33q-45 0 -76.5 -38t-31.5 -98v-248h-96v720h96v-312q13 25 46.5 44.5t79.5 19.5z" />
    <glyph glyph-name="uni04C0" unicode="&#x4c0;" horiz-adv-x="256" 
d="M176 0h-96v704h96v-704z" />
    <glyph glyph-name="uni04CF" unicode="&#x4cf;" horiz-adv-x="256" 
d="M80 0v464h96v-464h-96z" />
    <glyph glyph-name="uni04D8" unicode="&#x4d8;" horiz-adv-x="704" 
d="M352 712q136 0 220 -103.5t84 -256.5t-84 -256.5t-220 -103.5t-220 103.5t-84 256.5q0 16 2 44h507q-11 99 -67.5 163.5t-137.5 64.5q-94 0 -154 -86l-68 68q85 106 222 106zM352 80q81 0 137.5 64.5t67.5 163.5h-410q11 -99 67.5 -163.5t137.5 -64.5z" />
    <glyph glyph-name="uni04D9" unicode="&#x4d9;" horiz-adv-x="528" 
d="M248 472q101 0 166.5 -69.5t65.5 -170.5q0 -102 -60.5 -171t-161.5 -69q-90 0 -150 64.5t-60 169.5q0 27 4 46h328q-12 49 -47 80.5t-85 31.5q-62 0 -100 -42l-68 56q61 74 168 74zM258 80q46 0 77.5 28.5t42.5 75.5h-230q3 -45 33 -74.5t77 -29.5z" />
    <glyph glyph-name="uni04E2" unicode="&#x4e2;" horiz-adv-x="656" 
d="M440 800h-224v64h224v-64zM80 0v704h96v-510l320 510h80v-704h-96v510l-320 -510h-80z" />
    <glyph glyph-name="uni04E3" unicode="&#x4e3;" horiz-adv-x="560" 
d="M392 560h-224v64h224v-64zM176 464v-298l224 298h80v-464h-96v298l-224 -298h-80v464h96z" />
    <glyph glyph-name="uni04E8" unicode="&#x4e8;" horiz-adv-x="704" 
d="M352 712q136 0 220 -103.5t84 -256.5t-84 -256.5t-220 -103.5t-220 103.5t-84 256.5t84 256.5t220 103.5zM352 624q-81 0 -137.5 -64.5t-67.5 -163.5h410q-11 99 -67.5 163.5t-137.5 64.5zM352 80q81 0 137.5 64.5t67.5 163.5h-410q11 -99 67.5 -163.5t137.5 -64.5z" />
    <glyph glyph-name="uni04E9" unicode="&#x4e9;" 
d="M272 472q100 0 162 -69.5t62 -170.5t-62 -170.5t-162 -69.5t-162 69.5t-62 170.5t62 170.5t162 69.5zM272 384q-49 0 -82.5 -34t-42.5 -86h250q-9 52 -42.5 86t-82.5 34zM272 80q49 0 82.5 34t42.5 86h-250q9 -52 42.5 -86t82.5 -34z" />
    <glyph glyph-name="uni04EE" unicode="&#x4ee;" horiz-adv-x="576" 
d="M408 800h-224v64h224v-64zM456 704h104l-348 -704h-104l140 282l-216 422h104l164 -318z" />
    <glyph glyph-name="uni04EF" unicode="&#x4ef;" horiz-adv-x="464" 
d="M344 560h-224v64h224v-64zM344 464h104l-263 -704h-102l100 263l-167 441h104l112 -314z" />
    <glyph glyph-name="Wgrave" unicode="&#x1e80;" horiz-adv-x="896" 
d="M480 784h-64l-96 160h96zM772 704h108l-248 -704h-80l-103 303l-105 -303h-80l-248 704h108l180 -540l95 285l-87 255h100l180 -540z" />
    <glyph glyph-name="wgrave" unicode="&#x1e81;" horiz-adv-x="688" 
d="M392 544h-64l-96 160h96zM568 464h104l-176 -464h-80l-73 200l-71 -200h-80l-176 464h104l112 -322l62 194l-46 128h96l112 -322z" />
    <glyph glyph-name="Wacute" unicode="&#x1e82;" horiz-adv-x="896" 
d="M576 944l-96 -160h-64l64 160h96zM772 704h108l-248 -704h-80l-103 303l-105 -303h-80l-248 704h108l180 -540l95 285l-87 255h100l180 -540z" />
    <glyph glyph-name="wacute" unicode="&#x1e83;" horiz-adv-x="688" 
d="M456 704l-96 -160h-64l64 160h96zM568 464h104l-176 -464h-80l-73 200l-71 -200h-80l-176 464h104l112 -322l62 194l-46 128h96l112 -322z" />
    <glyph glyph-name="Wdieresis" unicode="&#x1e84;" horiz-adv-x="896" 
d="M360 784q-23 0 -39.5 16.5t-16.5 39.5q0 24 16.5 40t39.5 16q24 0 40 -16t16 -40q0 -23 -16 -39.5t-40 -16.5zM536 784q-23 0 -39.5 16.5t-16.5 39.5q0 24 16.5 40t39.5 16q24 0 40 -16t16 -40q0 -23 -16 -39.5t-40 -16.5zM772 704h108l-248 -704h-80l-103 303l-105 -303
h-80l-248 704h108l180 -540l95 285l-87 255h100l180 -540z" />
    <glyph glyph-name="wdieresis" unicode="&#x1e85;" horiz-adv-x="688" 
d="M256 544q-23 0 -39.5 16.5t-16.5 39.5q0 24 16.5 40t39.5 16q24 0 40 -16t16 -40q0 -23 -16 -39.5t-40 -16.5zM432 544q-23 0 -39.5 16.5t-16.5 39.5q0 24 16.5 40t39.5 16q24 0 40 -16t16 -40q0 -23 -16 -39.5t-40 -16.5zM568 464h104l-176 -464h-80l-73 200l-71 -200
h-80l-176 464h104l112 -322l62 194l-46 128h96l112 -322z" />
    <glyph glyph-name="Ygrave" unicode="&#x1ef2;" 
d="M312 784h-64l-96 160h96zM420 704h108l-208 -419v-285h-96v285l-208 419h108l148 -315z" />
    <glyph glyph-name="ygrave" unicode="&#x1ef3;" horiz-adv-x="464" 
d="M282 544h-64l-96 160h96zM344 464h104l-263 -704h-102l100 263l-167 441h104l112 -314z" />
    <glyph glyph-name="endash" unicode="&#x2013;" horiz-adv-x="528" 
d="M464 216h-400v80h400v-80z" />
    <glyph glyph-name="emdash" unicode="&#x2014;" horiz-adv-x="624" 
d="M560 216h-496v80h496v-80z" />
    <glyph glyph-name="quoteleft" unicode="&#x2018;" horiz-adv-x="256" 
d="M176 704v-192h-112l40 192h72z" />
    <glyph glyph-name="quoteright" unicode="&#x2019;" horiz-adv-x="256" 
d="M80 512v192h112l-40 -192h-72z" />
    <glyph glyph-name="quotesinglbase" unicode="&#x201a;" horiz-adv-x="256" 
d="M80 -80v192h112l-40 -192h-72z" />
    <glyph glyph-name="quotedblleft" unicode="&#x201c;" horiz-adv-x="464" 
d="M176 704v-192h-112l40 192h72zM384 704v-192h-112l40 192h72z" />
    <glyph glyph-name="quotedblright" unicode="&#x201d;" horiz-adv-x="464" 
d="M80 512v192h112l-40 -192h-72zM288 512v192h112l-40 -192h-72z" />
    <glyph glyph-name="quotedblbase" unicode="&#x201e;" horiz-adv-x="464" 
d="M80 -80v192h112l-40 -192h-72zM288 -80v192h112l-40 -192h-72z" />
    <glyph glyph-name="dagger" unicode="&#x2020;" horiz-adv-x="608" 
d="M352 492h192v-88h-192v-644h-96v644h-192v88h192v244h96v-244z" />
    <glyph glyph-name="daggerdbl" unicode="&#x2021;" horiz-adv-x="608" 
d="M544 404h-192v-136h192v-88h-192v-420h-96v420h-192v88h192v136h-192v88h192v244h96v-244h192v-88z" />
    <glyph glyph-name="bullet" unicode="&#x2022;" horiz-adv-x="800" 
d="M400 432q40 0 68 -28t28 -68t-28 -68t-68 -28t-68 28t-28 68t28 68t68 28z" />
    <glyph glyph-name="ellipsis" unicode="&#x2026;" horiz-adv-x="816" 
d="M136 -8q-30 0 -51 21t-21 51q0 31 21 51.5t51 20.5q31 0 51.5 -20.5t20.5 -51.5q0 -30 -20.5 -51t-51.5 -21zM408 -8q-30 0 -51 21t-21 51q0 31 21 51.5t51 20.5q31 0 51.5 -20.5t20.5 -51.5q0 -30 -20.5 -51t-51.5 -21zM680 -8q-30 0 -51 21t-21 51q0 31 21 51.5
t51 20.5q31 0 51.5 -20.5t20.5 -51.5q0 -30 -20.5 -51t-51.5 -21z" />
    <glyph glyph-name="perthousand" unicode="&#x2030;" horiz-adv-x="1168" 
d="M209 424q-61 0 -103 41.5t-42 102.5q0 60 42 102t103 42q60 0 101.5 -42t41.5 -102q0 -61 -41.5 -102.5t-101.5 -41.5zM220 0h-88l448 704h88zM208 504q26 0 45 19t19 45t-19 45t-45 19t-45 -19t-19 -45t19 -45t45 -19zM593 -8q-61 0 -103 41.5t-42 102.5q0 60 42 102
t103 42q60 0 101.5 -42t41.5 -102q0 -61 -41.5 -102.5t-101.5 -41.5zM961 -8q-61 0 -103 41.5t-42 102.5q0 60 42 102t103 42q60 0 101.5 -42t41.5 -102q0 -61 -41.5 -102.5t-101.5 -41.5zM592 72q26 0 45 19t19 45t-19 45t-45 19t-45 -19t-19 -45t19 -45t45 -19zM960 72
q26 0 45 19t19 45t-19 45t-45 19t-45 -19t-19 -45t19 -45t45 -19z" />
    <glyph glyph-name="guilsinglleft" unicode="&#x2039;" horiz-adv-x="336" 
d="M240 408l-88 -144l88 -144l-64 -40l-112 184l112 184z" />
    <glyph glyph-name="guilsinglright" unicode="&#x203a;" horiz-adv-x="336" 
d="M96 408l64 40l112 -184l-112 -184l-64 40l88 144z" />
    <glyph glyph-name="fraction" unicode="&#x2044;" horiz-adv-x="128" 
d="M-116 0h-88l448 704h88z" />
    <glyph glyph-name="uni2070" unicode="&#x2070;" horiz-adv-x="379" 
d="M190 800q60 0 100.5 -47t40.5 -117t-40.5 -117t-100.5 -47t-101 47t-41 117t41 117t101 47zM190 544q26 0 44 26t18 66t-18 66t-44 26q-27 0 -45 -26t-18 -66t18 -66t45 -26z" />
    <glyph glyph-name="uni2074" unicode="&#x2074;" horiz-adv-x="337" 
d="M48 533v60l86 199h78l-77 -187h40v52h79v-52h35v-72h-35v-53h-79v53h-127z" />
    <glyph glyph-name="uni2075" unicode="&#x2075;" horiz-adv-x="332" 
d="M141 687q49 16 96 -9t47 -95q0 -45 -34 -78t-84 -33q-51 0 -83 29t-35 63l72 15q7 -35 42 -35q18 0 30.5 12.5t12.5 29.5q0 27 -25 36.5t-51 -7.5l-70 17l25 160h164v-72h-102z" />
    <glyph glyph-name="uni2076" unicode="&#x2076;" horiz-adv-x="339" 
d="M176 696q53 1 84 -31t31 -79q0 -48 -34 -81t-88 -33q-55 0 -88 32.5t-33 81.5q0 33 20 72t85 134h85zM169 544q19 0 31 12t12 30t-12 30t-31 12q-18 0 -30 -12t-12 -30t11.5 -30t30.5 -12z" />
    <glyph glyph-name="uni2077" unicode="&#x2077;" horiz-adv-x="292" 
d="M48 792h212v-60l-105 -252h-82l99 240h-124v72z" />
    <glyph glyph-name="uni2078" unicode="&#x2078;" horiz-adv-x="332" 
d="M248 644q36 -29 36 -72q0 -42 -34 -71t-84 -29q-52 0 -85 29t-33 71q0 46 36 74q-25 25 -25 61q0 40 30 66.5t77 26.5q45 0 76 -27t31 -66q0 -36 -25 -63zM138 700q0 -12 8 -20t20 -8t20 8t8 20t-8 20t-20 8t-20 -8t-8 -20zM166 544q16 0 27.5 10.5t11.5 24.5
q0 15 -11.5 25.5t-27.5 10.5t-27.5 -10.5t-11.5 -25.5q0 -14 11.5 -24.5t27.5 -10.5z" />
    <glyph glyph-name="uni2079" unicode="&#x2079;" horiz-adv-x="339" 
d="M163 576q-53 -1 -84 31t-31 79q0 48 34 81t88 33q55 0 88 -32.5t33 -81.5q0 -33 -20 -72t-85 -134h-85zM170 728q-19 0 -31 -12t-12 -30t12 -30t31 -12q18 0 30 12t12 30t-11.5 30t-30.5 12z" />
    <glyph glyph-name="Euro" unicode="&#x20ac;" horiz-adv-x="672" 
d="M384 80q107 0 168 118l72 -55q-37 -71 -99 -111t-141 -40q-118 0 -198.5 80.5t-100.5 207.5h-69v48h65q-1 8 -1 24t1 24h-65v48h69q20 127 100.5 207.5t198.5 80.5q79 0 141 -40t99 -111l-72 -55q-61 118 -168 118q-74 0 -128.5 -55.5t-72.5 -144.5h273l-13 -48h-266
q-1 -8 -1 -24t1 -24h254l-13 -48h-235q18 -89 72.5 -144.5t128.5 -55.5z" />
    <glyph glyph-name="trademark" unicode="&#x2122;" horiz-adv-x="848" 
d="M64 704h272v-72h-96v-344h-80v344h-96v72zM784 704v-416h-80v252l-112 -167l-112 167v-252h-80v416h58l134 -210l134 210h58z" />
    <glyph glyph-name="oneeighth" unicode="&#x215b;" horiz-adv-x="748" 
d="M113 392v221l-48 -26l-33 57l100 60h60v-312h-79zM532 704h88l-448 -704h-88zM664 164q36 -29 36 -72q0 -42 -34 -71t-84 -29q-52 0 -85 29t-33 71q0 46 36 74q-25 25 -25 61q0 40 30 66.5t77 26.5q45 0 76 -27t31 -66q0 -36 -25 -63zM554 220q0 -12 8 -20t20 -8t20 8
t8 20t-8 20t-20 8t-20 -8t-8 -20zM582 64q16 0 27.5 10.5t11.5 24.5q0 15 -11.5 25.5t-27.5 10.5t-27.5 -10.5t-11.5 -25.5q0 -14 11.5 -24.5t27.5 -10.5z" />
    <glyph glyph-name="threeeighths" unicode="&#x215c;" horiz-adv-x="792" 
d="M284 494q0 -48 -33.5 -79t-87.5 -31q-49 0 -81 29t-34 63l72 15q2 -14 14 -24.5t29 -10.5q18 0 30 12t12 29q0 27 -21.5 37.5t-47.5 -1.5l-30 39l57 60h-97v72h202v-60l-58 -53q29 -4 51.5 -28.5t22.5 -68.5zM576 704h88l-448 -704h-88zM708 164q36 -29 36 -72
q0 -42 -34 -71t-84 -29q-52 0 -85 29t-33 71q0 46 36 74q-25 25 -25 61q0 40 30 66.5t77 26.5q45 0 76 -27t31 -66q0 -36 -25 -63zM598 220q0 -12 8 -20t20 -8t20 8t8 20t-8 20t-20 8t-20 -8t-8 -20zM626 64q16 0 27.5 10.5t11.5 24.5q0 15 -11.5 25.5t-27.5 10.5
t-27.5 -10.5t-11.5 -25.5q0 -14 11.5 -24.5t27.5 -10.5z" />
    <glyph glyph-name="fiveeighths" unicode="&#x215d;" horiz-adv-x="792" 
d="M284 495q0 -45 -34 -78t-84 -33q-51 0 -83 29t-35 63l72 15q7 -35 42 -35q18 0 30.5 12.5t12.5 29.5q0 27 -25 36.5t-51 -7.5l-70 17l25 160h164v-72h-102l-5 -33q49 16 96 -9t47 -95zM576 704h88l-448 -704h-88zM708 164q36 -29 36 -72q0 -42 -34 -71t-84 -29
q-52 0 -85 29t-33 71q0 46 36 74q-25 25 -25 61q0 40 30 66.5t77 26.5q45 0 76 -27t31 -66q0 -36 -25 -63zM598 220q0 -12 8 -20t20 -8t20 8t8 20t-8 20t-20 8t-20 -8t-8 -20zM626 64q16 0 27.5 10.5t11.5 24.5q0 15 -11.5 25.5t-27.5 10.5t-27.5 -10.5t-11.5 -25.5
q0 -14 11.5 -24.5t27.5 -10.5z" />
    <glyph glyph-name="seveneighths" unicode="&#x215e;" horiz-adv-x="752" 
d="M155 392h-82l99 240h-124v72h212v-60zM536 704h88l-448 -704h-88zM668 164q36 -29 36 -72q0 -42 -34 -71t-84 -29q-52 0 -85 29t-33 71q0 46 36 74q-25 25 -25 61q0 40 30 66.5t77 26.5q45 0 76 -27t31 -66q0 -36 -25 -63zM558 220q0 -12 8 -20t20 -8t20 8t8 20t-8 20
t-20 8t-20 -8t-8 -20zM586 64q16 0 27.5 10.5t11.5 24.5q0 15 -11.5 25.5t-27.5 10.5t-27.5 -10.5t-11.5 -25.5q0 -14 11.5 -24.5t27.5 -10.5z" />
    <glyph glyph-name="arrowleft" unicode="&#x2190;" horiz-adv-x="992" 
d="M48 296l232 233l55 -55l-140 -138h733v-80h-733l140 -138l-55 -55z" />
    <glyph glyph-name="arrowup" unicode="&#x2191;" horiz-adv-x="560" 
d="M280 816l232 -232l-56 -56l-136 141v-733h-80v733l-136 -141l-56 56z" />
    <glyph glyph-name="arrowright" unicode="&#x2192;" horiz-adv-x="992" 
d="M944 296l-232 -233l-55 55l140 138h-733v80h733l-140 138l55 55z" />
    <glyph glyph-name="arrowdown" unicode="&#x2193;" horiz-adv-x="560" 
d="M280 -112l-232 232l56 56l136 -141v733h80v-733l136 141l56 -56z" />
    <glyph glyph-name="arrowboth" unicode="&#x2194;" horiz-adv-x="1024" 
d="M744 529l232 -233l-232 -233l-55 55l138 138h-632l140 -138l-55 -55l-232 233l232 233l55 -55l-140 -138h632l-138 138z" />
    <glyph glyph-name="arrowupdn" unicode="&#x2195;" horiz-adv-x="560" 
d="M320 35l136 141l56 -56l-232 -232l-232 232l56 56l136 -141v634l-136 -141l-56 56l232 232l232 -232l-56 -56l-136 141v-634z" />
    <glyph glyph-name="uni2196" unicode="&#x2196;" horiz-adv-x="785" 
d="M64 704h328v-79l-196 3l541 -540l-56 -56l-541 540l3 -196h-79v328z" />
    <glyph glyph-name="uni2197" unicode="&#x2197;" horiz-adv-x="785" 
d="M721 704v-328h-79l3 196l-541 -540l-56 56l541 540l-196 -3v79h328z" />
    <glyph glyph-name="uni2198" unicode="&#x2198;" horiz-adv-x="785" 
d="M721 0h-328v79l196 -3l-541 540l56 56l541 -540l-3 196h79v-328z" />
    <glyph glyph-name="uni2199" unicode="&#x2199;" horiz-adv-x="785" 
d="M64 0v328h79l-3 -196l541 540l56 -56l-541 -540l196 3v-79h-328z" />
    <glyph glyph-name="partialdiff" unicode="&#x2202;" horiz-adv-x="576" 
d="M128 800q172 -82 278 -233.5t106 -334.5q0 -101 -62 -170.5t-162 -69.5t-162 69.5t-62 170.5t62 170.5t162 69.5q42 0 74 -13q-41 88 -120.5 157t-149.5 96zM288 80q57 0 92.5 44.5t35.5 107.5t-35.5 107.5t-92.5 44.5t-92.5 -44.5t-35.5 -107.5t35.5 -107.5t92.5 -44.5z
" />
    <glyph glyph-name="emptyset" unicode="&#x2205;" horiz-adv-x="664" 
 />
    <glyph glyph-name="product" unicode="&#x220f;" horiz-adv-x="608" 
d="M528 704v-944h-96v856h-256v-856h-96v944h448z" />
    <glyph glyph-name="summation" unicode="&#x2211;" horiz-adv-x="662" 
d="M208 616l262 -384l-262 -384h374v-88h-502v64l278 408l-278 408v64h502v-88h-374z" />
    <glyph glyph-name="minus" unicode="&#x2212;" horiz-adv-x="480" 
d="M64 384h352v-80h-352v80z" />
    <glyph glyph-name="radical" unicode="&#x221a;" horiz-adv-x="848" 
d="M800 704v-88h-269l-227 -616h-80l-176 464h104l112 -322l195 562h341z" />
    <glyph glyph-name="infinity" unicode="&#x221e;" horiz-adv-x="752" 
d="M513 520q73 0 124 -51.5t51 -124.5t-51 -124.5t-124 -51.5q-83 0 -137 64q-53 -64 -135 -64q-74 0 -125.5 51.5t-51.5 124.5t52 124.5t125 51.5q82 0 135 -64q54 64 137 64zM240 248q40 0 68 28t28 68t-28 68t-68 28t-68 -28t-28 -68t28 -68t68 -28zM512 248q40 0 68 28
t28 68t-28 68t-68 28t-68 -28t-28 -68t28 -68t68 -28z" />
    <glyph glyph-name="integral" unicode="&#x222b;" horiz-adv-x="352" 
d="M128 500q0 112 35 162t125 50v-88q-29 0 -46.5 -21.5t-17.5 -57.5v-581q0 -112 -35 -162t-125 -50v88q29 0 46.5 21.5t17.5 57.5v581z" />
    <glyph glyph-name="approxequal" unicode="&#x2248;" horiz-adv-x="528" 
d="M411 472l53 -56q-43 -56 -115 -56q-29 0 -66.5 11.5t-62 20.5t-53 3t-50.5 -35l-53 56q43 56 115 56q34 0 84 -19t84.5 -19t63.5 38zM411 312l53 -56q-43 -56 -115 -56q-29 0 -66.5 11.5t-62 20.5t-53 3t-50.5 -35l-53 56q43 56 115 56q34 0 84 -19t84.5 -19t63.5 38z
" />
    <glyph glyph-name="notequal" unicode="&#x2260;" horiz-adv-x="480" 
d="M416 384h-126l-20 -80h146v-80h-167l-49 -192h-80l49 192h-105v80h126l20 80h-146v80h167l49 192h80l-49 -192h105v-80z" />
    <glyph glyph-name="lessequal" unicode="&#x2264;" horiz-adv-x="496" 
d="M432 192l-368 184v64l368 184v-88l-278 -128l278 -128v-88zM432 144v-80h-368v80h368z" />
    <glyph glyph-name="greaterequal" unicode="&#x2265;" horiz-adv-x="496" 
d="M64 192v88l278 128l-278 128v88l368 -184v-64zM64 144h368v-80h-368v80z" />
    <glyph glyph-name="lozenge" unicode="&#x25ca;" horiz-adv-x="672" 
d="M608 352l-272 -368l-272 368l272 368zM512 352l-176 238l-174 -238l174 -238z" />
    <glyph glyph-name="a.ss01" horiz-adv-x="576" 
d="M400 464h96v-464h-96v62q-21 -31 -59 -50.5t-83 -19.5q-90 0 -150 70t-60 170t60 170t150 70q45 0 83 -19.5t59 -50.5v62zM272 80q56 0 92 44t36 108t-36 108t-92 44t-92 -44t-36 -108t36 -108t92 -44z" />
    <glyph glyph-name="aacute.ss01" horiz-adv-x="576" 
d="M256 544l64 160h96l-96 -160h-64zM400 464h96v-464h-96v62q-21 -31 -59 -50.5t-83 -19.5q-90 0 -150 70t-60 170t60 170t150 70q45 0 83 -19.5t59 -50.5v62zM272 80q56 0 92 44t36 108t-36 108t-92 44t-92 -44t-36 -108t36 -108t92 -44z" />
    <glyph glyph-name="abreve.ss01" horiz-adv-x="576" 
d="M368 672h56q0 -53 -37.5 -90.5t-90.5 -37.5t-90.5 37.5t-37.5 90.5h56q0 -30 21 -51t51 -21t51 21t21 51zM400 464h96v-464h-96v62q-21 -31 -59 -50.5t-83 -19.5q-90 0 -150 70t-60 170t60 170t150 70q45 0 83 -19.5t59 -50.5v62zM272 80q56 0 92 44t36 108t-36 108
t-92 44t-92 -44t-36 -108t36 -108t92 -44z" />
    <glyph glyph-name="acircumflex.ss01" horiz-adv-x="576" 
d="M352 544l-56 88l-56 -88h-72l96 144h64l96 -144h-72zM400 464h96v-464h-96v62q-21 -31 -59 -50.5t-83 -19.5q-90 0 -150 70t-60 170t60 170t150 70q45 0 83 -19.5t59 -50.5v62zM272 80q56 0 92 44t36 108t-36 108t-92 44t-92 -44t-36 -108t36 -108t92 -44z" />
    <glyph glyph-name="adieresis.ss01" horiz-adv-x="576" 
d="M208 544q-23 0 -39.5 16.5t-16.5 39.5q0 24 16.5 40t39.5 16q24 0 40 -16t16 -40q0 -23 -16 -39.5t-40 -16.5zM384 544q-23 0 -39.5 16.5t-16.5 39.5q0 24 16.5 40t39.5 16q24 0 40 -16t16 -40q0 -23 -16 -39.5t-40 -16.5zM400 464h96v-464h-96v62q-21 -31 -59 -50.5
t-83 -19.5q-90 0 -150 70t-60 170t60 170t150 70q45 0 83 -19.5t59 -50.5v62zM272 80q56 0 92 44t36 108t-36 108t-92 44t-92 -44t-36 -108t36 -108t92 -44z" />
    <glyph glyph-name="agrave.ss01" horiz-adv-x="576" 
d="M376 544h-64l-96 160h96zM400 464h96v-464h-96v62q-21 -31 -59 -50.5t-83 -19.5q-90 0 -150 70t-60 170t60 170t150 70q45 0 83 -19.5t59 -50.5v62zM272 80q56 0 92 44t36 108t-36 108t-92 44t-92 -44t-36 -108t36 -108t92 -44z" />
    <glyph glyph-name="amacron.ss01" horiz-adv-x="576" 
d="M408 560h-224v64h224v-64zM400 464h96v-464h-96v62q-21 -31 -59 -50.5t-83 -19.5q-90 0 -150 70t-60 170t60 170t150 70q45 0 83 -19.5t59 -50.5v62zM272 80q56 0 92 44t36 108t-36 108t-92 44t-92 -44t-36 -108t36 -108t92 -44z" />
    <glyph glyph-name="aogonek.ss01" horiz-adv-x="576" 
d="M536 -126l24 -50q-12 -13 -37 -22.5t-45 -9.5q-53 0 -85.5 35t-32.5 89q0 55 40 92v54q-21 -31 -59 -50.5t-83 -19.5q-90 0 -150 70t-60 170t60 170t150 70q45 0 83 -19.5t59 -50.5v62h96v-464q-30 0 -55 -22.5t-25 -61.5q0 -34 21.5 -53t50 -15.5t48.5 26.5zM272 80
q56 0 92 44t36 108t-36 108t-92 44t-92 -44t-36 -108t36 -108t92 -44z" />
    <glyph glyph-name="aring.ss01" horiz-adv-x="576" 
d="M312 736q46 0 79 -33t33 -79t-33 -79t-79 -33t-79 33t-33 79t33 79t79 33zM312 568q23 0 39.5 16.5t16.5 39.5t-16.5 39.5t-39.5 16.5t-39.5 -16.5t-16.5 -39.5t16.5 -39.5t39.5 -16.5zM400 464h96v-464h-96v62q-21 -31 -59 -50.5t-83 -19.5q-90 0 -150 70t-60 170
t60 170t150 70q45 0 83 -19.5t59 -50.5v62zM272 80q56 0 92 44t36 108t-36 108t-92 44t-92 -44t-36 -108t36 -108t92 -44z" />
    <glyph glyph-name="aringacute.ss01" horiz-adv-x="576" 
d="M264 784l64 160h96l-96 -160h-64zM312 736q46 0 79 -33t33 -79t-33 -79t-79 -33t-79 33t-33 79t33 79t79 33zM312 568q23 0 39.5 16.5t16.5 39.5t-16.5 39.5t-39.5 16.5t-39.5 -16.5t-16.5 -39.5t16.5 -39.5t39.5 -16.5zM400 464h96v-464h-96v62q-21 -31 -59 -50.5
t-83 -19.5q-90 0 -150 70t-60 170t60 170t150 70q45 0 83 -19.5t59 -50.5v62zM272 80q56 0 92 44t36 108t-36 108t-92 44t-92 -44t-36 -108t36 -108t92 -44z" />
    <glyph glyph-name="atilde.ss01" horiz-adv-x="576" 
d="M419 640l45 -40q-36 -56 -94 -56q-36 0 -68 14q-49 23 -80.5 20.5t-48.5 -34.5l-45 40q36 56 94 56q38 0 68 -13q47 -23 79 -22t50 35zM400 464h96v-464h-96v62q-21 -31 -59 -50.5t-83 -19.5q-90 0 -150 70t-60 170t60 170t150 70q45 0 83 -19.5t59 -50.5v62zM272 80
q56 0 92 44t36 108t-36 108t-92 44t-92 -44t-36 -108t36 -108t92 -44z" />
    <glyph glyph-name="ae.ss01" horiz-adv-x="896" 
d="M848 238q0 -27 -4 -46h-328q12 -49 47 -80.5t85 -31.5q62 0 100 42l68 -56q-61 -74 -168 -74q-98 0 -152 72v-64h-96v62q-21 -31 -59 -50.5t-83 -19.5q-90 0 -150 70t-60 170t60 170t150 70q45 0 83 -19.5t59 -50.5v62h96v-60q50 68 142 68q90 0 150 -64.5t60 -169.5z
M272 80q56 0 92 44t36 108t-36 108t-92 44t-92 -44t-36 -108t36 -108t92 -44zM638 384q-46 0 -77.5 -28.5t-42.5 -75.5h230q-3 45 -33 74.5t-77 29.5z" />
    <glyph glyph-name="aeacute.ss01" horiz-adv-x="896" 
d="M560 704l-96 -160h-64l64 160h96zM848 238q0 -27 -4 -46h-328q12 -49 47 -80.5t85 -31.5q62 0 100 42l68 -56q-61 -74 -168 -74q-98 0 -152 72v-64h-96v62q-21 -31 -59 -50.5t-83 -19.5q-90 0 -150 70t-60 170t60 170t150 70q45 0 83 -19.5t59 -50.5v62h96v-60
q50 68 142 68q90 0 150 -64.5t60 -169.5zM272 80q56 0 92 44t36 108t-36 108t-92 44t-92 -44t-36 -108t36 -108t92 -44zM638 384q-46 0 -77.5 -28.5t-42.5 -75.5h230q-3 45 -33 74.5t-77 29.5z" />
    <glyph glyph-name="g.ss01" horiz-adv-x="576" 
d="M400 464h96v-438q0 -141 -69 -207.5t-179 -66.5q-47 0 -96 17t-72 40l43 78q53 -47 125 -47q73 0 112.5 45t39.5 127v50q-21 -31 -59 -50.5t-83 -19.5q-90 0 -150 70t-60 170t60 170t150 70q45 0 83 -19.5t59 -50.5v62zM272 80q56 0 92 44t36 108t-36 108t-92 44t-92 -44
t-36 -108t36 -108t92 -44z" />
    <glyph glyph-name="gbreve.ss01" horiz-adv-x="576" 
d="M368 672h56q0 -53 -37.5 -90.5t-90.5 -37.5t-90.5 37.5t-37.5 90.5h56q0 -30 21 -51t51 -21t51 21t21 51zM400 464h96v-438q0 -141 -69 -207.5t-179 -66.5q-47 0 -96 17t-72 40l43 78q53 -47 125 -47q73 0 112.5 45t39.5 127v50q-21 -31 -59 -50.5t-83 -19.5
q-90 0 -150 70t-60 170t60 170t150 70q45 0 83 -19.5t59 -50.5v62zM272 80q56 0 92 44t36 108t-36 108t-92 44t-92 -44t-36 -108t36 -108t92 -44z" />
    <glyph glyph-name="gcommaaccent.ss01" horiz-adv-x="576" 
d="M352 688v-144h-96l32 144h64zM400 464h96v-438q0 -141 -69 -207.5t-179 -66.5q-47 0 -96 17t-72 40l43 78q53 -47 125 -47q73 0 112.5 45t39.5 127v50q-21 -31 -59 -50.5t-83 -19.5q-90 0 -150 70t-60 170t60 170t150 70q45 0 83 -19.5t59 -50.5v62zM272 80q56 0 92 44
t36 108t-36 108t-92 44t-92 -44t-36 -108t36 -108t92 -44z" />
    <glyph glyph-name="gdotaccent.ss01" horiz-adv-x="576" 
d="M288 528q-30 0 -51 21t-21 51t21 51t51 21t51 -21t21 -51t-21 -51t-51 -21zM400 464h96v-438q0 -141 -69 -207.5t-179 -66.5q-47 0 -96 17t-72 40l43 78q53 -47 125 -47q73 0 112.5 45t39.5 127v50q-21 -31 -59 -50.5t-83 -19.5q-90 0 -150 70t-60 170t60 170t150 70
q45 0 83 -19.5t59 -50.5v62zM272 80q56 0 92 44t36 108t-36 108t-92 44t-92 -44t-36 -108t36 -108t92 -44z" />
    <glyph glyph-name="f_f.dlig" horiz-adv-x="768" 
d="M576 554v-90h144v-88h-144v-376h-96v376h-272v-376h-96v376h-64v88h64v90q0 85 39 129.5t105 44.5q51 0 96 -32l-44 -72q-21 16 -45 16q-55 0 -55 -86v-90h272v90q0 85 39 129.5t105 44.5q51 0 96 -32l-44 -72q-21 16 -45 16q-55 0 -55 -86z" />
    <glyph glyph-name="f_f_i.dlig" horiz-adv-x="960" 
d="M912 464v-464h-96v376h-240v-376h-96v376h-272v-376h-96v376h-64v88h64v90q0 85 39 129.5t105 44.5q51 0 96 -32l-44 -72q-21 16 -45 16q-55 0 -55 -86v-90h272v90q0 85 39 129.5t105 44.5q51 0 96 -32l-44 -72q-21 16 -45 16q-55 0 -55 -86v-90h336z" />
    <glyph glyph-name="f_f_j.dlig" horiz-adv-x="992" 
d="M912 464v-492q0 -65 -18.5 -111.5t-48 -68.5t-56.5 -31t-53 -9l-16 88q41 3 68.5 37t27.5 103v396h-240v-376h-96v376h-272v-376h-96v376h-64v88h64v90q0 85 39 129.5t105 44.5q51 0 96 -32l-44 -72q-21 16 -45 16q-55 0 -55 -86v-90h272v90q0 85 39 129.5t105 44.5
q51 0 96 -32l-44 -72q-21 16 -45 16q-55 0 -55 -86v-90h336z" />
    <glyph glyph-name="uni041B.loclBGR" horiz-adv-x="608" 
d="M484 0l-180 540l-180 -540h-108l248 704h80l248 -704h-108z" />
    <glyph glyph-name="uni0432.loclBGR" 
d="M358 404q58 -15 98 -68t40 -126q0 -87 -59 -152.5t-165 -65.5q-92 0 -150 55t-58 153v304q0 46 9.5 82.5t23.5 59t35 39.5t38 25t38.5 12.5t31 5t20.5 0.5q82 0 136.5 -51t54.5 -125q0 -54 -27.5 -93t-65.5 -55zM160 204q0 -64 32.5 -94t77.5 -30q54 0 92 35.5t38 96.5
q0 70 -58 109t-150 39v80q160 0 160 108q0 46 -30 69t-64 23q-48 0 -73 -34t-25 -86v-316z" />
    <glyph glyph-name="uni0433.loclBGR" horiz-adv-x="432" 
d="M191 288q41 9 57 22t16 32q0 42 -56 42q-46 0 -84 -28l-45 70q58 46 129 46q73 0 112.5 -38t39.5 -95q0 -56 -34.5 -89.5t-119.5 -57.5q-62 -17 -62 -59q0 -19 18 -36.5t51 -16.5q64 1 123 58l48 -70q-76 -76 -177 -76q-64 0 -111.5 41.5t-47.5 104.5q0 117 143 150z" />
    <glyph glyph-name="uni0434.loclBGR" horiz-adv-x="576" 
d="M400 464h96v-438q0 -141 -69 -207.5t-179 -66.5q-47 0 -96 17t-72 40l43 78q53 -47 125 -47q73 0 112.5 45t39.5 127v50q-21 -31 -59 -50.5t-83 -19.5q-90 0 -150 70t-60 170t60 170t150 70q45 0 83 -19.5t59 -50.5v62zM272 80q56 0 92 44t36 108t-36 108t-92 44t-92 -44
t-36 -108t36 -108t92 -44z" />
    <glyph glyph-name="uni0436.loclBGR" horiz-adv-x="736" 
d="M736 0h-120l-150 195l-34 -36v-159h-96v159l-34 36l-150 -195h-120l208 260l-192 204h120l168 -188v444h96v-444l168 188h120l-192 -204z" />
    <glyph glyph-name="uni0437.loclBGR" horiz-adv-x="512" 
d="M192 88v80q58 0 101 29t43 83q0 50 -33.5 77t-72.5 27q-72 0 -120 -68l-48 68q64 88 171 88q88 0 143.5 -48t55.5 -140q0 -47 -27 -89.5t-66 -60.5q48 -19 78.5 -62.5t30.5 -111.5q0 -91 -59 -149.5t-156 -58.5q-119 0 -185 90l54 68q50 -70 128 -70q51 0 86.5 34.5
t35.5 85.5q0 65 -44.5 96.5t-115.5 31.5z" />
    <glyph glyph-name="uni0438.loclBGR" 
d="M242 -8q-86 0 -132 57t-46 163v252h96v-260q0 -124 100 -124q46 0 77 40.5t31 111.5v232h96v-464h-96v64q-41 -72 -126 -72z" />
    <glyph glyph-name="uni0439.loclBGR" 
d="M336 672h56q0 -53 -37.5 -90.5t-90.5 -37.5t-90.5 37.5t-37.5 90.5h56q0 -30 21 -51t51 -21t51 21t21 51zM242 -8q-86 0 -132 57t-46 163v252h96v-260q0 -124 100 -124q46 0 77 40.5t31 111.5v232h96v-464h-96v64q-41 -72 -126 -72z" />
    <glyph glyph-name="uni043A.loclBGR" horiz-adv-x="496" 
d="M480 0h-120l-150 195l-34 -36v-159h-96v720h96v-444l168 188h120l-192 -204z" />
    <glyph glyph-name="uni043B.loclBGR" horiz-adv-x="464" 
d="M272 464l176 -464h-104l-112 322l-112 -322h-104l176 464h80z" />
    <glyph glyph-name="uni043F.loclBGR" 
d="M302 472q86 0 132 -57t46 -163v-252h-96v252q0 66 -23 99t-77 33q-45 0 -76.5 -39.5t-31.5 -104.5v-240h-96v464h96v-64q41 72 126 72z" />
    <glyph glyph-name="uni0442.loclBGR" horiz-adv-x="816" 
d="M582 472q80 0 125 -57t45 -163v-252h-96v252q0 132 -92 132q-44 0 -72 -37.5t-28 -98.5v-248h-96v252q0 132 -92 132q-44 0 -72 -39t-28 -105v-240h-96v464h96v-64q38 72 118 72q94 0 138 -76q33 42 66.5 59t83.5 17z" />
    <glyph glyph-name="uni0448.loclBGR" horiz-adv-x="816" 
d="M234 -8q-80 0 -125 57t-45 163v252h96v-252q0 -132 92 -132q44 0 72 37.5t28 98.5v248h96v-252q0 -132 92 -132q44 0 72 39t28 105v240h96v-464h-96v64q-38 -72 -118 -72q-94 0 -138 76q-33 -42 -66.5 -59t-83.5 -17z" />
    <glyph glyph-name="uni0449.loclBGR" horiz-adv-x="896" 
d="M736 88h96v-184h-96v96h-96v64q-38 -72 -118 -72q-94 0 -138 76q-33 -42 -66.5 -59t-83.5 -17q-80 0 -125 57t-45 163v252h96v-252q0 -132 92 -132q44 0 72 37.5t28 98.5v248h96v-252q0 -132 92 -132q44 0 72 39t28 105v240h96v-376z" />
    <glyph glyph-name="uni044C.loclBGR" horiz-adv-x="512" 
d="M80 146v318h96v-156q133 30 210.5 -11t77.5 -137q0 -80 -57.5 -124t-139.5 -44q-76 0 -131.5 39.5t-55.5 114.5zM368 156q0 50 -49 68.5t-143 -0.5v-78q0 -26 20 -42t39 -20t36 -4q47 0 72 23t25 53z" />
    <glyph glyph-name="uni044A.loclBGR" horiz-adv-x="576" 
d="M240 308q133 30 210.5 -11t77.5 -137q0 -80 -57.5 -124t-139.5 -44q-76 0 -131.5 39.5t-55.5 114.5v230h-96v88h192v-156zM335 80q47 0 72 23t25 53q0 50 -49 68.5t-143 -0.5v-78q0 -26 20 -42t39 -20t36 -4z" />
    <glyph glyph-name="uni044E.loclBGR" horiz-adv-x="784" 
d="M512 472q100 0 162 -69.5t62 -170.5t-62 -170.5t-162 -69.5q-89 0 -149 56.5t-72 143.5h-115v-192h-96v720h96v-448h115q12 87 72 143.5t149 56.5zM512 80q57 0 92.5 44.5t35.5 107.5t-35.5 107.5t-92.5 44.5t-92.5 -44.5t-35.5 -107.5t35.5 -107.5t92.5 -44.5z" />
    <glyph glyph-name="uni0430.ss01" horiz-adv-x="576" 
d="M400 464h96v-464h-96v62q-21 -31 -59 -50.5t-83 -19.5q-90 0 -150 70t-60 170t60 170t150 70q45 0 83 -19.5t59 -50.5v62zM272 80q56 0 92 44t36 108t-36 108t-92 44t-92 -44t-36 -108t36 -108t92 -44z" />
    <glyph glyph-name="zero.subs" horiz-adv-x="379" 
d="M190 112q60 0 100.5 -47t40.5 -117t-40.5 -117t-100.5 -47t-101 47t-41 117t41 117t101 47zM190 -144q26 0 44 26t18 66t-18 66t-44 26q-27 0 -45 -26t-18 -66t18 -66t45 -26z" />
    <glyph glyph-name="one.subs" horiz-adv-x="288" 
d="M132 104h60v-312h-79v221l-48 -26l-33 57z" />
    <glyph glyph-name="two.subs" horiz-adv-x="331" 
d="M229 -96l-42 -40h96v-72h-231v52l67 56q85 70 85 105q0 14 -11.5 24.5t-26.5 10.5q-16 0 -27.5 -10.5t-11.5 -24.5q0 -9 3 -16l-74 -19q-8 15 -8 35q0 43 33.5 75t84.5 32q48 0 82.5 -31t34.5 -76q0 -51 -54 -101z" />
    <glyph glyph-name="three.subs" horiz-adv-x="332" 
d="M210 -9q29 -4 51.5 -28.5t22.5 -68.5q0 -48 -33.5 -79t-87.5 -31q-49 0 -81 29t-34 63l72 15q2 -14 14 -24.5t29 -10.5q18 0 30 12t12 29q0 27 -21.5 37.5t-47.5 -1.5l-30 39l57 60h-97v72h202v-60z" />
    <glyph glyph-name="four.subs" horiz-adv-x="337" 
d="M48 -155v60l86 199h78l-77 -187h40v52h79v-52h35v-72h-35v-53h-79v53h-127z" />
    <glyph glyph-name="five.subs" horiz-adv-x="332" 
d="M141 -1q49 16 96 -9t47 -95q0 -45 -34 -78t-84 -33q-51 0 -83 29t-35 63l72 15q7 -35 42 -35q18 0 30.5 12.5t12.5 29.5q0 27 -25 36.5t-51 -7.5l-70 17l25 160h164v-72h-102z" />
    <glyph glyph-name="six.subs" horiz-adv-x="339" 
d="M176 8q53 1 84 -31t31 -79q0 -48 -34 -81t-88 -33q-55 0 -88 32.5t-33 81.5q0 33 20 72t85 134h85zM169 -144q19 0 31 12t12 30t-12 30t-31 12q-18 0 -30 -12t-12 -30t11.5 -30t30.5 -12z" />
    <glyph glyph-name="seven.subs" horiz-adv-x="292" 
d="M48 104h212v-60l-105 -252h-82l99 240h-124v72z" />
    <glyph glyph-name="eight.subs" horiz-adv-x="332" 
d="M248 -44q36 -29 36 -72q0 -42 -34 -71t-84 -29q-52 0 -85 29t-33 71q0 46 36 74q-25 25 -25 61q0 40 30 66.5t77 26.5q45 0 76 -27t31 -66q0 -36 -25 -63zM138 12q0 -12 8 -20t20 -8t20 8t8 20t-8 20t-20 8t-20 -8t-8 -20zM166 -144q16 0 27.5 10.5t11.5 24.5
q0 15 -11.5 25.5t-27.5 10.5t-27.5 -10.5t-11.5 -25.5q0 -14 11.5 -24.5t27.5 -10.5z" />
    <glyph glyph-name="nine.subs" horiz-adv-x="339" 
d="M163 -112q-53 -1 -84 31t-31 79q0 48 34 81t88 33q55 0 88 -32.5t33 -81.5q0 -33 -20 -72t-85 -134h-85zM170 40q-19 0 -31 -12t-12 -30t12 -30t31 -12q18 0 30 12t12 30t-11.5 30t-30.5 12z" />
    <glyph glyph-name="zero.tf" horiz-adv-x="640" 
d="M320 712q120 0 192 -103t72 -257t-72 -257t-192 -103q-122 0 -193 102.5t-71 257.5q0 154 72 257t192 103zM320 80q72 0 120 79t48 193t-48 193t-120 79t-120 -79t-48 -193t48 -193t120 -79z" />
    <glyph glyph-name="one.tf" horiz-adv-x="640" 
d="M400 88h144v-88h-384v88h144v498l-120 -70l-40 72l176 116h80v-616z" />
    <glyph glyph-name="two.tf" horiz-adv-x="640" 
d="M420 248l-158 -160h282v-88h-432v64l182 180q89 88 121.5 146.5t32.5 108.5q0 54 -35.5 89.5t-92.5 35.5q-58 0 -93 -36t-35 -91q0 -21 7 -39l-89 -32q-14 33 -14 71q0 91 63.5 153t160.5 62t160.5 -60.5t63.5 -154.5q0 -66 -36 -131.5t-88 -117.5z" />
    <glyph glyph-name="three.tf" horiz-adv-x="640" 
d="M356 450q83 -2 143.5 -59.5t60.5 -158.5q0 -98 -67.5 -169t-172.5 -71q-57 0 -103.5 20.5t-74.5 52.5t-44 67t-18 68l89 27q9 -68 50.5 -107.5t100.5 -39.5q60 0 102 42t42 109q0 41 -21 72.5t-53 46t-70.5 14t-72.5 -18.5l-51 63l186 208h-270v88h416v-64z" />
    <glyph glyph-name="four.tf" horiz-adv-x="640" 
d="M80 148v64l212 492h102l-201 -468h159v164h96v-164h96v-88h-96v-148h-96v148h-272z" />
    <glyph glyph-name="five.tf" horiz-adv-x="640" 
d="M218 426q53 29 112 29.5t108 -23.5t81.5 -77t32.5 -125q0 -98 -65 -168t-167 -70q-55 0 -100 20.5t-72 52.5t-42.5 67t-17.5 68l89 27q9 -69 48 -108t95 -39q57 0 96.5 41t39.5 108q0 64 -40 102.5t-101.5 36.5t-117.5 -47l-83 31l54 352h305v-88h-226z" />
    <glyph glyph-name="six.tf" horiz-adv-x="640" 
d="M552 224q0 -96 -68 -164t-164 -68t-164 68t-68 164q0 32 3 58t15.5 58.5t20.5 51t36 62.5t43 65t61 85.5t70 99.5h115l-188 -260q33 12 72 12q87 0 151.5 -65t64.5 -167zM320 80q55 0 95.5 42.5t40.5 101.5t-40.5 101.5t-95.5 42.5t-95.5 -42.5t-40.5 -101.5t40.5 -101.5
t95.5 -42.5z" />
    <glyph glyph-name="seven.tf" horiz-adv-x="640" 
d="M112 704h432v-64l-240 -640h-104l233 616h-321v88z" />
    <glyph glyph-name="eight.tf" horiz-adv-x="640" 
d="M455 384q97 -61 97 -172q0 -92 -67 -156t-165 -64q-102 0 -167 63.5t-65 156.5q0 114 93 172q-61 50 -61 136q0 81 56 136.5t144 55.5q84 0 142 -56t58 -136q0 -84 -65 -136zM320 624q-43 0 -73.5 -29.5t-30.5 -70.5q0 -42 30 -72t74 -30t74 30t30 72q0 41 -30.5 70.5
t-73.5 29.5zM320 80q56 0 96 37.5t40 90.5q0 54 -39.5 92t-96.5 38t-96.5 -38t-39.5 -92q0 -53 39.5 -90.5t96.5 -37.5z" />
    <glyph glyph-name="nine.tf" horiz-adv-x="640" 
d="M88 480q0 96 68 164t164 68t164 -68t68 -164q0 -32 -3 -58t-15.5 -58.5t-20.5 -51t-36 -62.5t-43 -65t-61 -85.5t-70 -99.5h-115l188 260q-33 -12 -72 -12q-87 0 -151.5 65t-64.5 167zM320 624q-55 0 -95.5 -42.5t-40.5 -101.5t40.5 -101.5t95.5 -42.5t95.5 42.5
t40.5 101.5t-40.5 101.5t-95.5 42.5z" />
    <glyph glyph-name="zero.zero" horiz-adv-x="656" 
d="M328 712q120 0 192 -103t72 -257t-72 -257t-192 -103q-122 0 -193 102.5t-71 257.5q0 154 72 257t192 103zM328 624q-72 0 -120 -79t-48 -193q0 -68 18 -124l271 316q-49 80 -121 80zM328 80q72 0 120 79t48 193q0 70 -18 125l-271 -316q49 -81 121 -81z" />
    <glyph glyph-name="zero.tf.zero" horiz-adv-x="640" 
d="M320 712q120 0 192 -103t72 -257t-72 -257t-192 -103q-122 0 -193 102.5t-71 257.5q0 154 72 257t192 103zM320 624q-72 0 -120 -79t-48 -193q0 -68 18 -124l271 316q-49 80 -121 80zM320 80q72 0 120 79t48 193q0 70 -18 125l-271 -316q49 -81 121 -81z" />
    <glyph glyph-name="zero.dnom" horiz-adv-x="379" 
d="M190 320q60 0 100.5 -47t40.5 -117t-40.5 -117t-100.5 -47t-101 47t-41 117t41 117t101 47zM190 64q26 0 44 26t18 66t-18 66t-44 26q-27 0 -45 -26t-18 -66t18 -66t45 -26z" />
    <glyph glyph-name="one.dnom" horiz-adv-x="288" 
d="M132 312h60v-312h-79v221l-48 -26l-33 57z" />
    <glyph glyph-name="two.dnom" horiz-adv-x="331" 
d="M229 112l-42 -40h96v-72h-231v52l67 56q85 70 85 105q0 14 -11.5 24.5t-26.5 10.5q-16 0 -27.5 -10.5t-11.5 -24.5q0 -8 3 -16l-74 -19q-8 15 -8 35q0 43 33.5 75t84.5 32q48 0 82.5 -31t34.5 -76q0 -51 -54 -101z" />
    <glyph glyph-name="three.dnom" horiz-adv-x="332" 
d="M210 199q29 -4 51.5 -28.5t22.5 -68.5q0 -48 -33.5 -79t-87.5 -31q-49 0 -81 29t-34 63l72 15q2 -14 14 -24.5t29 -10.5q18 0 30 12t12 29q0 27 -21.5 37.5t-47.5 -1.5l-30 39l57 60h-97v72h202v-60z" />
    <glyph glyph-name="four.dnom" horiz-adv-x="337" 
d="M48 53v60l86 199h78l-77 -187h40v52h79v-52h35v-72h-35v-53h-79v53h-127z" />
    <glyph glyph-name="five.dnom" horiz-adv-x="332" 
d="M141 207q49 16 96 -9t47 -95q0 -45 -34 -78t-84 -33q-51 0 -83 29t-35 63l72 15q7 -35 42 -35q18 0 30.5 12.5t12.5 29.5q0 27 -25 36.5t-51 -7.5l-70 17l25 160h164v-72h-102z" />
    <glyph glyph-name="six.dnom" horiz-adv-x="339" 
d="M176 216q53 1 84 -31t31 -79q0 -48 -34 -81t-88 -33q-55 0 -88 32.5t-33 81.5q0 33 20 72t85 134h85zM169 64q19 0 31 12t12 30t-12 30t-31 12q-18 0 -30 -12t-12 -30t11.5 -30t30.5 -12z" />
    <glyph glyph-name="seven.dnom" horiz-adv-x="292" 
d="M48 312h212v-60l-105 -252h-82l99 240h-124v72z" />
    <glyph glyph-name="eight.dnom" horiz-adv-x="332" 
d="M248 164q36 -29 36 -72q0 -42 -34 -71t-84 -29q-52 0 -85 29t-33 71q0 46 36 74q-25 25 -25 61q0 40 30 66.5t77 26.5q45 0 76 -27t31 -66q0 -36 -25 -63zM138 220q0 -12 8 -20t20 -8t20 8t8 20t-8 20t-20 8t-20 -8t-8 -20zM166 64q16 0 27.5 10.5t11.5 24.5
q0 15 -11.5 25.5t-27.5 10.5t-27.5 -10.5t-11.5 -25.5q0 -14 11.5 -24.5t27.5 -10.5z" />
    <glyph glyph-name="nine.dnom" horiz-adv-x="339" 
d="M163 96q-53 -1 -84 31t-31 79q0 48 34 81t88 33q55 0 88 -32.5t33 -81.5q0 -33 -20 -72t-85 -134h-85zM170 248q-19 0 -31 -12t-12 -30t12 -30t31 -12q18 0 30 12t12 30t-11.5 30t-30.5 12z" />
    <glyph glyph-name="zero.numr" horiz-adv-x="379" 
d="M190 712q60 0 100.5 -47t40.5 -117t-40.5 -117t-100.5 -47t-101 47t-41 117t41 117t101 47zM190 456q26 0 44 26t18 66t-18 66t-44 26q-27 0 -45 -26t-18 -66t18 -66t45 -26z" />
    <glyph glyph-name="one.numr" horiz-adv-x="288" 
d="M132 704h60v-312h-79v221l-48 -26l-33 57z" />
    <glyph glyph-name="two.numr" horiz-adv-x="331" 
d="M229 504l-42 -40h96v-72h-231v52l67 56q85 70 85 105q0 14 -11.5 24.5t-26.5 10.5q-16 0 -27.5 -10.5t-11.5 -24.5q0 -9 3 -16l-74 -19q-8 15 -8 35q0 43 33.5 75t84.5 32q48 0 82.5 -31t34.5 -76q0 -51 -54 -101z" />
    <glyph glyph-name="three.numr" horiz-adv-x="332" 
d="M210 591q29 -4 51.5 -28.5t22.5 -68.5q0 -48 -33.5 -79t-87.5 -31q-49 0 -81 29t-34 63l72 15q2 -14 14 -24.5t29 -10.5q18 0 30 12t12 29q0 27 -21.5 37.5t-47.5 -1.5l-30 39l57 60h-97v72h202v-60z" />
    <glyph glyph-name="four.numr" horiz-adv-x="337" 
d="M48 445v60l86 199h78l-77 -187h40v52h79v-52h35v-72h-35v-53h-79v53h-127z" />
    <glyph glyph-name="five.numr" horiz-adv-x="332" 
d="M141 599q49 16 96 -9t47 -95q0 -45 -34 -78t-84 -33q-51 0 -83 29t-35 63l72 15q7 -35 42 -35q18 0 30.5 12.5t12.5 29.5q0 27 -25 36.5t-51 -7.5l-70 17l25 160h164v-72h-102z" />
    <glyph glyph-name="six.numr" horiz-adv-x="339" 
d="M176 608q53 1 84 -31t31 -79q0 -48 -34 -81t-88 -33q-55 0 -88 32.5t-33 81.5q0 33 20 72t85 134h85zM169 456q19 0 31 12t12 30t-12 30t-31 12q-18 0 -30 -12t-12 -30t11.5 -30t30.5 -12z" />
    <glyph glyph-name="seven.numr" horiz-adv-x="292" 
d="M48 704h212v-60l-105 -252h-82l99 240h-124v72z" />
    <glyph glyph-name="eight.numr" horiz-adv-x="332" 
d="M248 556q36 -29 36 -72q0 -42 -34 -71t-84 -29q-52 0 -85 29t-33 71q0 46 36 74q-25 25 -25 61q0 40 30 66.5t77 26.5q45 0 76 -27t31 -66q0 -36 -25 -63zM138 612q0 -12 8 -20t20 -8t20 8t8 20t-8 20t-20 8t-20 -8t-8 -20zM166 456q16 0 27.5 10.5t11.5 24.5
q0 15 -11.5 25.5t-27.5 10.5t-27.5 -10.5t-11.5 -25.5q0 -14 11.5 -24.5t27.5 -10.5z" />
    <glyph glyph-name="nine.numr" horiz-adv-x="339" 
d="M163 488q-53 -1 -84 31t-31 79q0 48 34 81t88 33q55 0 88 -32.5t33 -81.5q0 -33 -20 -72t-85 -134h-85zM170 640q-19 0 -31 -12t-12 -30t12 -30t31 -12q18 0 30 12t12 30t-11.5 30t-30.5 12z" />
    <glyph glyph-name="exclam.case" horiz-adv-x="304" 
d="M112 208l-16 496h112l-16 -496h-80zM152 -8q-30 0 -51 21t-21 51t21 51t51 21q31 0 51.5 -21t20.5 -51t-20.5 -51t-51.5 -21z" />
    <glyph glyph-name="exclamdown.case" horiz-adv-x="304" 
d="M152 712q31 0 51.5 -21t20.5 -51t-20.5 -51t-51.5 -21q-30 0 -51 21t-21 51t21 51t51 21zM112 496h80l16 -496h-112z" />
    <glyph glyph-name="question.case" horiz-adv-x="496" 
d="M232 712q88 0 144 -52t56 -132q0 -31 -7.5 -57.5t-23 -49t-28 -37t-34.5 -35t-29 -28.5q-34 -36 -34 -113h-88q-12 85 30 147q12 18 34.5 39.5t39.5 36.5t30.5 39t13.5 52q0 47 -28.5 74.5t-74.5 27.5q-70 0 -107 -52l-62 62q62 78 168 78zM232 136q31 0 51.5 -21
t20.5 -51t-20.5 -51t-51.5 -21q-30 0 -51 21t-21 51t21 51t51 21z" />
    <glyph glyph-name="questiondown.case" horiz-adv-x="496" 
d="M264 568q-31 0 -51.5 21t-20.5 51t20.5 51t51.5 21q30 0 51 -21t21 -51t-21 -51t-51 -21zM264 -8q-88 0 -144 52t-56 132q0 31 7.5 57.5t23 49t28 37t34.5 35t29 28.5q34 36 34 113h88q12 -85 -30 -147q-12 -18 -34.5 -39.5t-39.5 -36.5t-30.5 -39t-13.5 -52
q0 -47 28.5 -74.5t74.5 -27.5q70 0 107 52l62 -62q-62 -78 -168 -78z" />
    <glyph glyph-name="braceleft.case" horiz-adv-x="344" 
d="M64 312v80q30 1 47 22.5t17 49.5v250q0 156 112 182l40 -80q-32 -9 -44 -34.5t-12 -71.5v-212q0 -117 -67 -146q67 -29 67 -146v-212q0 -46 12 -71.5t44 -34.5l-40 -80q-112 26 -112 182v250q0 28 -17 49.5t-47 22.5z" />
    <glyph glyph-name="braceright.case" horiz-adv-x="344" 
d="M280 312q-30 -1 -47 -22.5t-17 -49.5v-250q0 -156 -112 -182l-40 80q32 9 44 34.5t12 71.5v212q0 117 67 146q-67 29 -67 146v212q0 46 -12 71.5t-44 34.5l40 80q112 -26 112 -182v-250q0 -28 17 -49.5t47 -22.5v-80z" />
    <glyph glyph-name="bracketleft.case" horiz-adv-x="352" 
d="M176 792v-880h96v-88h-192v1056h192v-88h-96z" />
    <glyph glyph-name="bracketright.case" horiz-adv-x="352" 
d="M176 792h-96v88h192v-1056h-192v88h96v880z" />
    <glyph glyph-name="parenleft.case" horiz-adv-x="320" 
d="M272 780q-57 -94 -84.5 -208.5t-27.5 -219.5t27.5 -219.5t84.5 -208.5l-88 -52q-120 211 -120 480t120 480z" />
    <glyph glyph-name="parenright.case" horiz-adv-x="320" 
d="M48 780l88 52q120 -211 120 -480t-120 -480l-88 52q57 94 84.5 208.5t27.5 219.5t-27.5 219.5t-84.5 208.5z" />
    <glyph glyph-name="emdash.case" horiz-adv-x="624" 
d="M560 312h-496v80h496v-80z" />
    <glyph glyph-name="endash.case" horiz-adv-x="528" 
d="M464 312h-400v80h400v-80z" />
    <glyph glyph-name="hyphen.case" horiz-adv-x="400" 
d="M336 312h-272v80h272v-80z" />
    <glyph glyph-name="guillemotleft.case" horiz-adv-x="560" 
d="M240 496l-88 -144l88 -144l-64 -40l-112 184l112 184zM464 496l-88 -144l88 -144l-64 -40l-112 184l112 184z" />
    <glyph glyph-name="guillemotright.case" horiz-adv-x="560" 
d="M96 496l64 40l112 -184l-112 -184l-64 40l88 144zM320 496l64 40l112 -184l-112 -184l-64 40l88 144z" />
    <glyph glyph-name="guilsinglleft.case" horiz-adv-x="336" 
d="M240 496l-88 -144l88 -144l-64 -40l-112 184l112 184z" />
    <glyph glyph-name="guilsinglright.case" horiz-adv-x="336" 
d="M96 496l64 40l112 -184l-112 -184l-64 40l88 144z" />
    <glyph glyph-name="parenleft_one_parenright.dlig" horiz-adv-x="848" 
d="M424 712q152 0 256 -104t104 -256t-104 -256t-256 -104t-256 104.5t-104 255.5q0 152 104 256t256 104zM424 72q117 0 198.5 81.5t81.5 198.5t-81.5 198.5t-198.5 81.5t-198.5 -81.5t-81.5 -198.5t81.5 -198.5t198.5 -81.5zM304 485l110 62h58v-387h-80v291l-55 -28z" />
    <glyph glyph-name="parenleft_two_parenright.dlig" horiz-adv-x="848" 
d="M424 -8q-152 0 -256 104.5t-104 255.5q0 152 104 256t256 104t256 -104t104 -256t-104 -256t-256 -104zM424 72q117 0 198.5 81.5t81.5 198.5t-81.5 198.5t-198.5 81.5t-198.5 -81.5t-81.5 -198.5t81.5 -198.5t198.5 -81.5zM482 281l-55 -49h130v-74h-269v58l97 78
q92 73 92 134q0 21 -15.5 37t-41.5 16t-42 -17t-16 -37q0 -9 3 -20l-74 -22q-9 18 -9 42q0 54 40.5 91t97.5 37t97 -35.5t40 -92.5q0 -79 -75 -146z" />
    <glyph glyph-name="parenleft_three_parenright.dlig" horiz-adv-x="848" 
d="M424 -8q-152 0 -256 104.5t-104 255.5q0 152 104 256t256 104t256 -104t104 -256t-104 -256t-256 -104zM424 72q117 0 198.5 81.5t81.5 198.5t-81.5 198.5t-198.5 81.5t-198.5 -81.5t-81.5 -198.5t81.5 -198.5t198.5 -81.5zM469 409q39 -2 72.5 -34.5t33.5 -90.5
q0 -50 -42 -92t-110 -42t-107.5 43t-42.5 89l74 15q13 -73 76 -73q32 0 52 18t20 45q0 41 -36.5 57t-71.5 -4l-37 46l83 87h-126v74h245v-58z" />
    <glyph glyph-name="parenleft_four_parenright.dlig" horiz-adv-x="848" 
d="M424 -8q-152 0 -256 104.5t-104 255.5q0 152 104 256t256 104t256 -104t104 -256t-104 -256t-256 -104zM424 72q117 0 198.5 81.5t81.5 198.5t-81.5 198.5t-198.5 81.5t-198.5 -81.5t-81.5 -198.5t81.5 -198.5t198.5 -81.5zM270 227v58l118 263h81l-106 -247h70v78h80
v-78h53v-74h-53v-71h-80v71h-163z" />
    <glyph glyph-name="parenleft_five_parenright.dlig" horiz-adv-x="848" 
d="M424 712q152 0 256 -104t104 -256t-104 -256t-256 -104t-256 104.5t-104 255.5q0 152 104 256t256 104zM424 72q117 0 198.5 81.5t81.5 198.5t-81.5 198.5t-198.5 81.5t-198.5 -81.5t-81.5 -198.5t81.5 -198.5t198.5 -81.5zM376 406q30 14 64 14t63.5 -12t49 -43
t19.5 -75q0 -58 -41 -99t-107 -41q-67 0 -105.5 39t-42.5 85l77 15q10 -65 71 -65q30 0 49 20t19 47q0 29 -21 46.5t-53.5 14t-61.5 -30.5l-66 25l31 200h199v-74h-133z" />
    <glyph glyph-name="parenleft_six_parenright.dlig" horiz-adv-x="848" 
d="M424 -8q-152 0 -256 104.5t-104 255.5q0 152 104 256t256 104t256 -104t104 -256t-104 -256t-256 -104zM424 72q117 0 198.5 81.5t81.5 198.5t-81.5 198.5t-198.5 81.5t-198.5 -81.5t-81.5 -198.5t81.5 -198.5t198.5 -81.5zM568 283q0 -55 -42 -94t-106 -39t-106 39
t-42 94q0 19 5 38.5t10.5 34.5t21.5 40.5t26 39.5t36.5 51.5t41.5 58.5h91l-93 -130q73 4 115 -32.5t42 -100.5zM420 221q28 0 48 18.5t20 45.5t-20 46t-48 19t-48 -19t-20 -46t20 -45.5t48 -18.5z" />
    <glyph glyph-name="parenleft_seven_parenright.dlig" horiz-adv-x="848" 
d="M424 -8q-152 0 -256 104.5t-104 255.5q0 152 104 256t256 104t256 -104t104 -256t-104 -256t-256 -104zM424 72q117 0 198.5 81.5t81.5 198.5t-81.5 198.5t-198.5 81.5t-198.5 -81.5t-81.5 -198.5t81.5 -198.5t198.5 -81.5zM299 548h266v-58l-147 -334h-85l141 318h-175
v74z" />
    <glyph glyph-name="parenleft_eight_parenright.dlig" horiz-adv-x="848" 
d="M424 712q152 0 256 -104t104 -256t-104 -256t-256 -104t-256 104.5t-104 255.5q0 152 104 256t256 104zM424 72q117 0 198.5 81.5t81.5 198.5t-81.5 198.5t-198.5 81.5t-198.5 -81.5t-81.5 -198.5t81.5 -198.5t198.5 -81.5zM516 370q51 -36 51 -94q0 -52 -41.5 -88
t-101.5 -36q-62 0 -102.5 36t-40.5 88q0 59 49 94q-31 31 -31 73q0 46 35 77.5t90 31.5q52 0 88.5 -32t36.5 -77q0 -42 -33 -73zM424 479q-19 0 -32 -10.5t-13 -25.5q0 -17 12 -28t33 -11t33 11t12 28q0 15 -13 25.5t-32 10.5zM424 225q27 0 45 15t18 36q0 23 -17 37t-46 14
t-46 -14t-17 -37q0 -21 18 -36t45 -15z" />
    <glyph glyph-name="parenleft_nine_parenright.dlig" horiz-adv-x="848" 
d="M424 -8q-152 0 -256 104.5t-104 255.5q0 152 104 256t256 104t256 -104t104 -256t-104 -256t-256 -104zM424 72q117 0 198.5 81.5t81.5 198.5t-81.5 198.5t-198.5 81.5t-198.5 -81.5t-81.5 -198.5t81.5 -198.5t198.5 -81.5zM280 421q0 55 42 94t106 39t106 -39t42 -94
q0 -19 -5 -38.5t-10.5 -34.5t-21.5 -40.5t-26 -39.5t-36.5 -51.5t-41.5 -58.5h-91l93 130q-73 -4 -115 32.5t-42 100.5zM428 483q-28 0 -48 -18.5t-20 -45.5t20 -46t48 -19t48 19t20 46t-20 45.5t-48 18.5z" />
    <glyph glyph-name="copyright.ss02" horiz-adv-x="536" 
d="M268 304q-86 0 -145 59.5t-59 144.5q0 86 59 145t145 59t145 -59t59 -145t-59 -145t-145 -59zM268 349q66 0 112.5 46.5t46.5 112.5t-46.5 112.5t-112.5 46.5t-112.5 -46.5t-46.5 -112.5t46.5 -112.5t112.5 -46.5zM269 433q30 0 49 31l34 -25q-24 -50 -83 -50
q-47 0 -76.5 34t-29.5 85t29.5 85t76.5 34q59 0 83 -50l-34 -25q-20 31 -49 31q-26 0 -43 -20t-17 -55t17 -55t43 -20z" />
    <glyph glyph-name="registered.ss02" horiz-adv-x="536" 
d="M268 712q86 0 145 -59t59 -145t-59 -145t-145 -59t-145 59.5t-59 144.5q0 86 59 145t145 59zM268 349q66 0 112.5 46.5t46.5 112.5t-46.5 112.5t-112.5 46.5t-112.5 -46.5t-46.5 -112.5t46.5 -112.5t112.5 -46.5zM348 541q0 -47 -38 -69l44 -77h-51l-36 65h-27v-65h-46
v226h68q42 0 64 -22.5t22 -57.5zM240 579v-77h18q19 0 32 10t13 29q0 38 -45 38h-18z" />
    <glyph glyph-name="trademark.ss02" horiz-adv-x="672" 
d="M64 704h206v-54h-73v-260h-60v260h-73v54zM608 704v-314h-61v190l-84 -126l-85 126v-190h-60v314h44l101 -159l101 159h44z" />
    </font>
</defs>
</svg>
